<?xml version="1.0" encoding="UTF-8"?>
<svg xmlns="http://www.w3.org/2000/svg" xmlns:xlink="http://www.w3.org/1999/xlink" viewBox="0 0 2398 1371">
  <defs>
    <style>
      .cls-1 {
        fill: #7bc143;
        opacity: .22;
      }

      .cls-2 {
        fill: url(#linear-gradient-2);
      }

      .cls-3 {
        fill: url(#radial-gradient-7);
      }

      .cls-4 {
        fill: url(#radial-gradient-10);
      }

      .cls-5, .cls-6 {
        fill: #fff;
      }

      .cls-7 {
        fill: #0b572c;
      }

      .cls-8 {
        stroke-width: .85px;
      }

      .cls-8, .cls-9, .cls-10, .cls-11, .cls-6, .cls-12, .cls-13, .cls-14 {
        stroke-miterlimit: 10;
      }

      .cls-8, .cls-9, .cls-10, .cls-12, .cls-13, .cls-14 {
        fill: none;
      }

      .cls-8, .cls-12, .cls-14 {
        stroke: #9ab25c;
      }

      .cls-9 {
        stroke-width: .69px;
      }

      .cls-9, .cls-10, .cls-11, .cls-6, .cls-13 {
        stroke: #231f20;
      }

      .cls-15 {
        fill: url(#radial-gradient-16);
      }

      .cls-16 {
        fill: url(#radial-gradient-20);
      }

      .cls-17 {
        fill: url(#radial-gradient-21);
      }

      .cls-18 {
        fill: url(#radial-gradient-8);
      }

      .cls-19 {
        fill: url(#radial-gradient-5);
      }

      .cls-20 {
        fill: url(#radial-gradient-4);
      }

      .cls-10 {
        stroke-width: .54px;
      }

      .cls-21 {
        fill: #b85026;
      }

      .cls-22 {
        fill: url(#radial-gradient-25);
      }

      .cls-23 {
        fill: url(#radial-gradient-26);
      }

      .cls-24 {
        fill: url(#radial-gradient-22);
      }

      .cls-25 {
        fill: url(#radial-gradient-6);
      }

      .cls-26 {
        fill: url(#radial-gradient-19);
      }

      .cls-11 {
        fill: #003308;
        stroke-width: .95px;
      }

      .cls-27 {
        fill: url(#radial-gradient-12);
      }

      .cls-6 {
        stroke-width: 1.19px;
      }

      .cls-28 {
        fill: url(#radial-gradient);
      }

      .cls-29 {
        fill: url(#radial-gradient-13);
      }

      .cls-12 {
        stroke-width: .81px;
      }

      .cls-30 {
        fill: url(#radial-gradient-24);
      }

      .cls-31 {
        fill: url(#radial-gradient-15);
      }

      .cls-32 {
        fill: url(#radial-gradient-2);
      }

      .cls-33 {
        fill: url(#radial-gradient-3);
      }

      .cls-13 {
        stroke-width: .86px;
      }

      .cls-14 {
        stroke-width: .6px;
      }

      .cls-34 {
        fill: url(#radial-gradient-17);
      }

      .cls-35 {
        fill: url(#radial-gradient-14);
      }

      .cls-36 {
        fill: url(#linear-gradient-3);
      }

      .cls-37 {
        fill: url(#linear-gradient);
      }

      .cls-38 {
        fill: #497336;
      }

      .cls-39 {
        fill: url(#radial-gradient-23);
      }

      .cls-40 {
        fill: url(#linear-gradient-4);
      }

      .cls-41 {
        fill: url(#radial-gradient-11);
      }

      .cls-42 {
        fill: url(#radial-gradient-18);
      }

      .cls-43 {
        fill: url(#radial-gradient-9);
      }

      .cls-44 {
        fill: #248340;
      }
    </style>
    <radialGradient id="radial-gradient" cx="65.59" cy="66.5" fx="65.59" fy="66.5" r="49.6" gradientUnits="userSpaceOnUse">
      <stop offset="0" stop-color="#fff"/>
      <stop offset="1" stop-color="#ffd95d"/>
    </radialGradient>
    <linearGradient id="linear-gradient" x1="387.53" y1="1326.9" x2="580.53" y2="1326.9" gradientTransform="translate(37.3 -13.03) rotate(1.6)" gradientUnits="userSpaceOnUse">
      <stop offset=".08" stop-color="#b1c5b6"/>
      <stop offset=".31" stop-color="#9ac9a2"/>
      <stop offset=".35" stop-color="#96cb9e"/>
      <stop offset=".42" stop-color="#8dc497"/>
      <stop offset=".52" stop-color="#74b186"/>
      <stop offset=".66" stop-color="#4d926a"/>
      <stop offset=".79" stop-color="#20704a"/>
    </linearGradient>
    <radialGradient id="radial-gradient-2" cx="128.25" cy="413.92" fx="128.25" fy="413.92" r="115.53" gradientUnits="userSpaceOnUse">
      <stop offset="0" stop-color="#3f6225"/>
      <stop offset="1" stop-color="#8aac5e"/>
    </radialGradient>
    <radialGradient id="radial-gradient-3" cx="67.52" cy="978.85" fx="67.52" fy="978.85" r="60.07" gradientUnits="userSpaceOnUse">
      <stop offset="0" stop-color="#517835"/>
      <stop offset="1" stop-color="#99b15d"/>
    </radialGradient>
    <radialGradient id="radial-gradient-4" cx="41.36" cy="724.54" fx="41.36" fy="724.54" r="37.92" xlink:href="#radial-gradient"/>
    <radialGradient id="radial-gradient-5" cx="224.9" cy="859.92" fx="224.9" fy="859.92" r="47.78" gradientTransform="translate(-653.39 1073.58) rotate(-89.46)" xlink:href="#radial-gradient"/>
    <radialGradient id="radial-gradient-6" cx="92.03" cy="563.08" fx="92.03" fy="563.08" r="49.6" gradientTransform="translate(-11.88 -215.8) scale(1.29 1.35)" xlink:href="#radial-gradient"/>
    <radialGradient id="radial-gradient-7" cx="924.73" cy="1155.32" fx="924.73" fy="1155.32" r="92.03" gradientTransform="translate(2127.96 2231.53) rotate(-88.06) scale(1 -1)" xlink:href="#radial-gradient-2"/>
    <radialGradient id="radial-gradient-8" cx="1687.99" cy="1124.67" fx="1687.99" fy="1124.67" r="92.03" gradientTransform="translate(261.4 -467.04) rotate(91.69) scale(1 -1)" xlink:href="#radial-gradient-2"/>
    <radialGradient id="radial-gradient-9" cx="-212.22" cy="2074.6" fx="-212.22" fy="2074.6" r="47.78" gradientTransform="translate(-653.39 1073.58) rotate(-89.46)" xlink:href="#radial-gradient"/>
    <linearGradient id="linear-gradient-2" x1="1383.7" y1="516.47" x2="1576.7" y2="516.47" gradientTransform="translate(30.98 1763.82) rotate(-2.02) scale(1 -1)" xlink:href="#linear-gradient"/>
    <radialGradient id="radial-gradient-10" cx="940.58" cy="195.28" fx="940.58" fy="195.28" r="77.01" gradientTransform="translate(1807.14 2231.53) rotate(-91.94)" xlink:href="#radial-gradient-2"/>
    <radialGradient id="radial-gradient-11" cx="-92.36" cy="2553.12" fx="-92.36" fy="2553.12" r="33.52" gradientTransform="translate(-653.39 1073.58) rotate(-89.46)" xlink:href="#radial-gradient"/>
    <radialGradient id="radial-gradient-12" cx="-252.83" cy="809.6" fx="-252.83" fy="809.6" r="42.08" gradientTransform="translate(942.58 1942.77) rotate(-154.94)" xlink:href="#radial-gradient-3"/>
    <radialGradient id="radial-gradient-13" cx="-677.85" cy="1113.12" fx="-677.85" fy="1113.12" r="57.47" gradientTransform="translate(942.58 1942.77) rotate(-154.94)" xlink:href="#radial-gradient-3"/>
    <radialGradient id="radial-gradient-14" cx="-1728.35" cy="69.8" fx="-1728.35" fy="69.8" r="49.6" gradientTransform="translate(602.11) rotate(-180) scale(1 -1)" xlink:href="#radial-gradient"/>
    <radialGradient id="radial-gradient-15" cx="-1693.66" cy="439.07" fx="-1693.66" fy="439.07" r="90.43" gradientTransform="translate(602.11) rotate(-180) scale(1 -1)" xlink:href="#radial-gradient-2"/>
    <radialGradient id="radial-gradient-16" cx="-1625.58" cy="264.85" fx="-1625.58" fy="264.85" r="37.92" gradientTransform="translate(602.11) rotate(-180) scale(1 -1)" xlink:href="#radial-gradient"/>
    <radialGradient id="radial-gradient-17" cx="90.28" cy="-990.84" fx="90.28" fy="-990.84" r="47.78" gradientTransform="translate(1255.51 1073.58) rotate(-90.54) scale(1 -1)" xlink:href="#radial-gradient"/>
    <radialGradient id="radial-gradient-18" cx="-1294.29" cy="565.52" fx="-1294.29" fy="565.52" r="49.6" gradientTransform="translate(614 -215.8) rotate(-180) scale(1.29 -1.35)" xlink:href="#radial-gradient"/>
    <radialGradient id="radial-gradient-19" cx="-160.25" cy="734.31" fx="-160.25" fy="734.31" r="74.52" gradientTransform="translate(-653.39 1073.58) rotate(-89.46)" xlink:href="#radial-gradient"/>
    <linearGradient id="linear-gradient-3" x1="403.69" y1="1243.38" x2="596.69" y2="1243.38" gradientTransform="translate(1569.28 -1081.11) rotate(1.7)" xlink:href="#linear-gradient"/>
    <radialGradient id="radial-gradient-20" cx="855" cy="1205.3" fx="855" fy="1205.3" r="92.03" gradientTransform="translate(394.51 -799) rotate(93.21) scale(.98 -1) skewX(-.31)" xlink:href="#radial-gradient-2"/>
    <radialGradient id="radial-gradient-21" cx="1749.73" cy="1079.3" fx="1749.73" fy="1079.3" r="92.03" gradientTransform="translate(2273.25 1883.21) rotate(-89.31) scale(1 -1)" xlink:href="#radial-gradient-2"/>
    <radialGradient id="radial-gradient-22" cx="-286.69" cy="2021.03" fx="-286.69" fy="2021.03" r="47.78" gradientTransform="translate(3161.01 326.87) rotate(89.54)" xlink:href="#radial-gradient"/>
    <linearGradient id="linear-gradient-4" x1="1322.3" y1="452.72" x2="1515.3" y2="452.72" gradientTransform="translate(2464.69 -351.32) rotate(176.98) scale(1 -1)" xlink:href="#linear-gradient"/>
    <radialGradient id="radial-gradient-23" cx="864.14" cy="184.39" fx="864.14" fy="184.39" r="77.01" gradientTransform="translate(680.64 -787.96) rotate(87.06)" xlink:href="#radial-gradient-2"/>
    <radialGradient id="radial-gradient-24" cx="-169.2" cy="2545.54" fx="-169.2" fy="2545.54" r="33.52" gradientTransform="translate(3161.01 326.87) rotate(89.54)" xlink:href="#radial-gradient"/>
    <radialGradient id="radial-gradient-25" cx="-230.24" cy="722.96" fx="-230.24" fy="722.96" r="42.08" gradientTransform="translate(1550.11 -514.34) rotate(24.06)" xlink:href="#radial-gradient-3"/>
    <radialGradient id="radial-gradient-26" cx="-702.85" cy="1040.07" fx="-702.85" fy="1040.07" r="57.47" gradientTransform="translate(1550.11 -514.34) rotate(24.06)" xlink:href="#radial-gradient-3"/>
  </defs>
  <g id="Layer_19" data-name="Layer 19">
    <rect class="cls-1" x="-2" y="-2" width="2398" height="1372"/>
  </g>
  <g id="Layer_12" data-name="Layer 12">
    <rect class="cls-6" x="258.5" y="218.5" width="1928" height="933"/>
  </g>
  <g id="background">
    <path class="cls-11" d="m212.5,145.5c4-4,28-10,28-10,15-6,35,0,35,0,0,0,0-2-19,12s-44-2-44-2c-11-20-115-56-115-56l-6-7s96,27,121,63m-40-26s-5,34,9,53,12,36,12,36c14-27-21-89-21-89m-26.03-10.93s-2.97,38.93,12.03,57.93,14,30,14,30c11-18-21.98-86.43-21.98-86.43m-29.82-11.93s-15.56,36.82,6.8,70.36c10,15,10,35,10,35,0,0,4-17,5-47s-17.75-56.87-17.75-56.87m70.75,31.87s1,35,10,52,15,25,13,30c0,0,0-21,1-35s-24-47-24-47m-60.74-34.64s38.74-11.36,57.74-30.36l23-23c-62,4-83,51-86.49,51.01m33.87,14.7c2.62-.71,34.62-8.71,60.62-27.71s44-7,44-7c-3,1-17-13-53-7s-55.46,39.8-55.46,39.8m27.48,15.34c2.98-1.13,20.98-4.13,39.98-21.13,0,0,9-7,39-14,0,0-10,4-40,3s-50,25-50,25m28.28,20.34s28.72-.34,39.72-15.34,21-18,21-18c0,0-14,1-40,7s-29.67,18.46-29.67,18.46m72.67,89.54c-8-49-55-72-55-72,0,0,20,49,49,67l6,5ZM98.33,99.84c-11.01,21.24.32,102.36,3.17,95.66,23-54,1.73-103.97,1.73-103.97m-26.84,43.67c-4.89,7.3,4.11,49.3,5.11,46.3,15.7-47.1,3.41-73.14,3.41-73.14m26.63-19.17s35.96-5.69,73.96-65.69c0,0-60.2,9.7-74.6,38.85m-6.39-2.56c19.99-10.29,28.99-44.29,28.99-44.29-32,3-38.36,23.42-38.36,23.42"/>
    <path class="cls-38" d="m99.5,779.5s74-15,76-31c1.66-13.31-5-7-5-7-15,17-74,25-74,25l68-30c6-4,2-5,2-5,0,0-8.53-1.37-22,9s-69,7-69,7m0,0c19-14,89-19,83-28l-74-3,71.87-11c-1.73-2.52-4.45-4.18-7.43-4.83-39.29-8.53-85.44,1.83-85.44,1.83,17-15,48-11,72-8s9-6,9-6c-29-16-77-2-77-2,14-20,60-12,60-12,0,0-35-17-52-17-8.1,0,32-5,32-5,0,0-1-12-30-14,0,0,21-5,40,1,0,0-4.43-25.19,4-34,0,0,11,37,10,32-1.96-9.81,9-16,9-16-4,6,1,19,1,19,2-21,18-25,18-25l-12,38c2-24,29-41,29-41-25,23-25,60-25,60,17-44,55-44,55-44,0,0-23,13-41,36s-4,39-4,39c-3-34,51-63,51-63-18,35-37,54-44,64s2,16,2,16c6-32,48-67,48-67-18,45-37,58-42,68s1,10,1,10c18-41,66-51,66-51-26.94,8.69-61,56-61,58s5,8,5,8c18-33,62-54,62-54-13,27-41,46-52,56s0,11,0,11c30-16,59-52,59-52-19,50-56,58-56,58,0,0,39,22,55,28,2.11.79,2.2,9.49,0,9-18-4-60-33-60-33,0,0-12,27-83,20,0,0,68-2,75-27,0,0,0-5-3-6s-9,26-85,23"/>
    <path class="cls-28" d="m62.65,66.23s14.79-16.04,31.39-16.04c12.47,0,19.8,8.42,22.24,13.08.85,1.63,1.31,6.54.5,9.25-1.77,5.91-5.3,19.36-17.36,10.32-4.74-3.56-36.77-16.61-36.77-16.61Zm0-1.65c.74,1.69,18.65-13.64,22.24-15.7,9.16-5.23,20.93-15.7-1.31-27.47-22.24-11.77-30.08,22.24-20.93,43.16Zm-2.62,40.55c6.54,18.31,37.93,5.23,31.39-11.77-6.54-17-28.78-27.47-28.78-27.47,0,0-9.16,20.93-2.62,39.24Zm1.31-39.24s0-24.85-11.77-30.08c0,0-15.7-9.16-30.08-1.31-10.52,5.74-3.56,14.98.95,19.53,1.75,1.77,3.84,3.13,6.15,4.03,5.87,2.29,19.23,6.86,34.76,7.84Zm0,0s-6.09-1.31-7.85-1.31c-6.54,0-15.7-2.62-28.78,7.85-7.28,5.82-6.12,11.98-6.54,15.7-.25,2.17,1.52,7.38,2.45,9.36,2.57,5.51,9.54,16.12,21.43,3.7,1.43-1.49,2.5-3.28,3.14-5.24,1.47-4.45,4.2-13.64,6.99-18.29,3.92-6.54,9.16-11.77,9.16-11.77Z"/>
    <path class="cls-37" d="m423.01,1307.79c9.88,40.29,88.26,63.5,88.26,63.5l68.03-.1s-16.99-36.49-66.49-54.88c-3.86-1.44-20.77-8.58-63.42-21.78,0,0-40.59-15.14-60.64-13.7,0,0,29.97,9.46,34.26,26.97Z"/>
    <path class="cls-13" d="m15.14,500.95c-.36-4.55-8.64-8.45-8.64-8.45,0,0,7-5,14,2"/>
    <path class="cls-32" d="m10.85,507.33c-1.14-2.72-11.35,7.17-11.35,7.17,0,0,1.01-73.36,1.18-74.65,0,0,9.44,2.15,18.38,1.71L.5,427.5v-50s19.44-2.42,21.88,1.73c2.44,4.15,8.45,3.43,8.45,3.43,0,0-2.28-5.44.8-6.45s16.09,1.56,16.09,1.56c0,0,24.57,28.49,20.03,41.1,0,0,5.51-8.6,2.89-23.21-2.62-14.61-10.16-16.16-10.16-16.16,0,0-14.91-16.24,19.85-22.01,34.76-5.77,20.67,20.23,20.67,20.23,0,0,3.9,4.29,7.79-3.16,3.89-7.45,4.82-20.05-3.31-26.06-8.13-6.01,15-23,15-23,0,0,11.46-17.87,22.35-10.29s20.17,16.31,13.86,43.11l6.48-16.34s2.11-5.02,1.29-10.32,19.99,5.85,19.99,5.85c0,0,1.96,8.02-3.07,12.75-5.03,4.73,12.66-6.6,12.66-6.6,0,0,8.44-8.32,9.58-5.6s-2.59,8.89-2.59,8.89c0,0,11.2-6.75,19.81-4.6,8.61,2.14,7.18,25.5,7.18,25.5,0,0,18.19-3.46,28.95,28.91,0,0-14.61,10.33-44.35-.39l-29.25-2.84c11.7,1.13,20.81,11.16,20.81,11.16-42.41-4.11-50.06-13.99-51.52-14.13l13.99,18.33c-15.28-8.01-32.17-3.12-32.17-3.12,17.87-.88,44.05,14.71,44.05,14.71-10.72,2.88-14.78-.13-40.46-7.84-25.68-7.71-12.66,6.6-12.66,6.6,29.41,1.55,39.02,19.45,39.02,19.45-37.04.32-31.85-5.7-49.08-9.98-17.23-4.28-22.58,3.03-22.58,3.03,40.62,6.55,48.27,16.43,48.27,16.43,0,0,.82,5.3-13.63,14.34-14.45,9.04-39.16-6.41-39.16-6.41l-4.55.86c12.84,3.86,16.58,9.44,16.58,9.44-20.3,8.47-45.33-4.4-46.79-4.54-43.82-4.25-6.98,8.46-6.98,8.46,31.67-4.76,35.96,19.17,35.96,19.17-25.01,10.63-44.23-2.11-44.23-2.11"/>
    <path class="cls-9" d="m257,396.77s-79.91-36.52-128.42-15.06c0,0-29.69,12.82-74.26,50.31C9.75,469.52.5,476.5.5,476.5"/>
    <path class="cls-44" d="m782.5,1368.5c-46-26-73-113-73-113,0,0,19,73,83,114l-10-1Zm-12.22-15.94c22.22-7.06,34.22-66.06,34.22-66.06-45,35-35.99,64.51-35.99,64.51m-7.01,1.49s-31-3-58,17l38,1c17-5,23.25-15.51,23.25-15.51m-19.25-23.68s-41.99-10.81-75.99,15.19m0,0c71,16,80-9,80-9m7.54,1.84c20.46-9.84,39.46-73.84,39.46-73.84-40,20-43,69-43,69m-8.12-8.83c21.12-13.17,31.12-82.17,31.12-82.17-45,48-33.49,79.07-33.49,79.07m-8.38-12.39c15.88-21.67,16.88-81.67,16.88-81.67-27,48-19.43,77.66-19.43,77.66m.43,3.34c-11-7-78,8-78,8,47,16,80-3,80-3m-11-23c-20-10-73,3-73,3,47,18,75,2,75,2m-2.74-7.86s20.74-33.14,17.74-74.14c0,0-28,32-21,68m-9.45-26.08s23.45-19.92,18.45-54.92c0,0-26,20-19,54m7.59,21.92c-14.23-10.41-30.85-11.23-64.09-7.11,0,0,38.12,20.59,65.36,10.16m-7.1-19.64c-22.75-16.33-56.75-6.33-56.75-6.33,29,19,57.95,10.33,57.95,10.33m-2.95-10.33s-3-27-44-31c0,0,19,34,42,25m-1.72-3.5s9.11-45.41-16.12-62.22c0,0-11.76,27.39,18.01,40.18"/>
    <path class="cls-21" d="m2110.28,7.67c-32,17-33,34-33,34,34-5,46-26,46-26l-2,5s-15,21-18,43c-1.01,7.39,19-23,19-23-9,23-3,38-3,38,23-19,23-56,23-56,11,36,30,39,30,39-4-31-24-60-24-60l-61,1s23,7,28,2l-5,3Z"/>
    <path class="cls-33" d="m135.53,1028.55C106.53,930.55-.49,927.93-.49,927.93c0,0,.88,1.12.99,1.57,4,16-24.94,112.1,135.03,99.05Z"/>
    <path class="cls-5" d="m21.77,256.26s-12.74.6-12.74,3.62,14.44,3.62,14.44,3.62h11.24c2.51,0,5.01-.35,7.29-1.1,3.49-1.15,7.17-3.04,1.85-4.93-8.49-3.02-22.08-1.21-22.08-1.21Z"/>
    <path class="cls-7" d="m6.54,1135.55c64.76-54,126.49-36,126.49-36,0,0-73.87,3-126.49,44m0-8l-.51-7c83.26-60.51,162-54.96,162-54.96-76.24-23.2-161.5,43.37-161.5,43.37l-.5-1.41c43-43,118.97-53.05,118.97-53.05-76-10-119,40-119,40l.03-2.95c2-9,49.21-32.7,71.97-43.05,11-5-62,7-73,26v-8c3.32-8.6,26-20,51.95-21.36,16.1-.85-32.95-7.64-50.84,5.76l.89-6.39s25-13,47-7c0,0-36-14-47-3,0,0,4-9,16-9,0,0-15-5-22,6l-1,142,8-8c42-32,97.03-37.95,97.03-37.95-51-14-99,33-99,33l-.5-4c51.61-51,116.88-48.3,116.88-48.3,0,0-56.37-17-115.69,37"/>
    <path class="cls-20" d="m39.12,724.33s11.31-12.26,24-12.26c9.53,0,15.13,6.43,17,10,.65,1.25,1,5,.38,7.07-1.36,4.52-4.05,14.8-13.27,7.89-3.63-2.72-28.11-12.69-28.11-12.69Zm0-1.26c.57,1.3,14.25-10.43,17-12,7-4,16-12-1-21s-23,17-16,33Zm-2,31c5,14,29,4,24-9s-22-21-22-21c0,0-7,16-2,30Zm1-30s0-19-9-23c0,0-12-7-23-1-8.04,4.39-2.72,11.45.72,14.93,1.34,1.35,2.93,2.39,4.7,3.08,4.48,1.75,14.7,5.25,26.57,5.99Zm0,0s-4.65-1-6-1c-5,0-12-2-22,6-5.56,4.45-4.68,9.16-5,12-.19,1.66,1.16,5.64,1.87,7.16,1.96,4.21,7.29,12.32,16.38,2.83,1.09-1.14,1.91-2.51,2.4-4,1.13-3.4,3.21-10.43,5.34-13.98,3-5,7-9,7-9Z"/>
    <path class="cls-19" d="m208.31,859.55s-15.31-14.39-15.17-30.39c.11-12.01,8.29-18.99,12.8-21.3,1.58-.81,6.31-1.2,8.91-.39,5.67,1.76,18.6,5.28,9.78,16.81-3.47,4.54-16.33,35.27-16.33,35.27Zm-1.59-.01c1.64-.7-12.98-18.08-14.92-21.56-4.96-8.87-14.93-20.3-26.47,1.01-11.54,21.31,21.15,29.18,41.39,20.55Zm39.04,2.89c17.7-6.14,5.38-36.49-11.06-30.35-16.44,6.15-26.72,27.47-26.72,27.47,0,0,20.08,9.01,37.78,2.87Zm-37.79-1.61s-23.94-.22-29.09,11.07c0,0-8.96,15.04-1.53,28.97,5.43,10.19,14.4,3.56,18.82-.74,1.72-1.67,3.05-3.67,3.94-5.89,2.26-5.63,6.79-18.47,7.86-33.41Zm0,0s-1.31,5.85-1.33,7.55c-.06,6.3-2.66,15.1,7.3,27.79,5.54,7.06,11.48,6,15.06,6.44,2.09.26,7.13-1.4,9.04-2.27,5.33-2.42,15.61-9.04,3.76-20.61-1.42-1.39-3.14-2.43-5.02-3.08-4.27-1.46-13.1-4.17-17.56-6.9-6.26-3.84-11.26-8.93-11.26-8.93Z"/>
    <path class="cls-5" d="m19.81,827.48s-10.89.45-10.9,3.02,12.32,3.17,12.32,3.17l9.6.06c2.15.01,4.28-.28,6.24-.91,2.99-.96,6.14-2.56,1.61-4.2-7.24-2.62-18.86-1.15-18.86-1.15Z"/>
    <path class="cls-8" d="m8.5,936.5s85,80,113,83"/>
    <path class="cls-25" d="m103.41,545.92s19.14-21.7,40.62-21.7c16.13,0,25.62,11.39,28.77,17.7,1.1,2.21,1.69,8.85.64,12.51-2.3,7.99-6.86,26.2-22.46,13.96-6.14-4.82-47.58-22.47-47.58-22.47Zm0-2.23c.96,2.29,24.13-18.47,28.77-21.24,11.85-7.08,27.08-21.24-1.69-37.18-28.77-15.93-38.93,30.1-27.08,58.42Zm-3.39,54.88c8.46,24.78,49.09,7.08,40.62-15.93-8.46-23.01-37.24-37.18-37.24-37.18,0,0-11.85,28.33-3.39,53.11Zm1.69-53.11s0-33.64-15.23-40.72c0,0-20.31-12.39-38.93-1.77-13.62,7.77-4.6,20.27,1.23,26.43,2.26,2.39,4.96,4.23,7.96,5.46,7.59,3.11,24.89,9.29,44.98,10.6Zm0,0s-7.88-1.77-10.16-1.77c-8.46,0-20.31-3.54-37.24,10.62-9.42,7.88-7.92,16.21-8.46,21.24-.32,2.93,1.97,9.99,3.16,12.67,3.32,7.45,12.34,21.81,27.73,5.01,1.85-2.01,3.23-4.44,4.07-7.09,1.91-6.02,5.43-18.46,9.04-24.76,5.08-8.85,11.85-15.93,11.85-15.93Z"/>
    <path class="cls-3" d="m927.11,1359.12c2.14.98-6.01,8.84-6.01,8.84,0,0,58.43,1.17,59.47,1.08,0,0-1.46-7.58-.87-14.68l10.69,15.15,39.81,1.35s2.45-15.41-.79-17.47-2.5-6.82-2.5-6.82c0,0,4.27,1.96,5.16-.47s-.81-12.85-.81-12.85c0,0-22.02-20.33-32.18-17.06,0,0,7-4.16,18.56-1.68,11.56,2.48,12.59,8.52,12.59,8.52,0,0,12.53,12.31,18.06-15.21,5.53-27.52-15.55-17-15.55-17,0,0-3.31-3.22,2.73-6.12,6.04-2.9,16.1-3.3,20.66,3.34,4.57,6.64,18.72-11.32,18.72-11.32,0,0,14.54-8.64,8.79-17.52-5.74-8.88-12.44-16.5-33.95-12.2l13.18-4.72s4.05-1.54,8.25-.75c4.2.8-4.12-16.07-4.12-16.07,0,0-6.33-1.78-10.24,2.1s5.6-9.9,5.6-9.9c0,0,6.85-6.49,4.71-7.47s-7.14,1.82-7.14,1.82c0,0,5.67-8.74,4.2-15.65s-20.1-6.41-20.1-6.41c0,0,3.24-14.39-22.24-23.83,0,0-8.62,11.35-.89,35.32l1.47,23.36c-.59-9.34-8.32-16.87-8.32-16.87,2.13,33.87,9.79,40.23,9.86,41.4l-14.21-11.64c5.96,12.38,1.62,25.7,1.62,25.7,1.18-14.2-10.53-35.46-10.53-35.46-2.58,8.46-.3,11.77,5.15,32.43,5.45,20.65-5.6,9.9-5.6,9.9-.44-23.45-14.43-31.59-14.43-31.59-1.26,29.48,3.68,25.51,6.62,39.34,2.94,13.83-3.02,17.89-3.02,17.89-4.12-32.52-11.78-38.87-11.78-38.87,0,0-4.2-.8-11.79,10.46-7.59,11.26,4.05,31.35,4.05,31.35l-.81,3.6c-2.72-10.33-7.07-13.46-7.07-13.46-7.29,15.93,2.28,36.21,2.35,37.38,2.2,35-6.92,5.32-6.92,5.32,4.64-25.09-14.29-29.14-14.29-29.14-9.14,19.62.48,35.27.48,35.27"/>
    <path class="cls-38" d="m1226.94,1166.94s-73.1,18.92-74.24,35c-.95,13.38,5.37,6.72,5.37,6.72,14.07-17.77,72.56-28.9,72.56-28.9l-66.31,33.58c-5.78,4.31-1.73,5.1-1.73,5.1,0,0,8.59.91,21.49-10.16,12.45-10.68,68.53-10.66,68.53-10.66m0,0c-18.23,14.99-87.86,23.71-81.39,32.38l74.05-.94-71.19,14.81c1.86,2.42,4.66,3.94,7.68,4.43,39.69,6.43,85.22-6.38,85.22-6.38-16.18,15.88-47.35,13.54-71.47,11.82-24.13-1.72-8.67,6.47-8.67,6.47,29.81,14.43,77-2.1,77-2.1-12.92,20.72-59.28,15.18-59.28,15.18,0,0,35.86,15.11,52.83,14.21,8.09-.43-31.69,6.7-31.69,6.7,0,0,1.64,11.93,30.7,12.38,0,0-20.7,6.11-40,1.13,0,0,5.77,24.92-2.18,34.16,0,0-12.95-36.36-11.69-31.42,2.48,9.69-8.14,16.46-8.14,16.46,3.67-6.2-2.01-18.92-2.01-18.92-.88,21.08-16.64,25.92-16.64,25.92l9.96-38.58c-.72,24.07-26.78,42.49-26.78,42.49,23.74-24.3,21.77-61.25,21.77-61.25-14.63,44.84-52.58,46.87-52.58,46.87,0,0,22.28-14.21,39.03-38.13s1.92-39.16,1.92-39.16c4.81,33.79-47.57,65.63-47.57,65.63,16.11-35.91,34.07-55.89,40.53-66.25,6.46-10.36-2.85-15.87-2.85-15.87-4.29,32.27-44.37,69.46-44.37,69.46,15.58-45.89,33.86-59.89,38.32-70.14,4.46-10.25-1.53-9.93-1.53-9.93-15.79,41.9-63.19,54.44-63.19,54.44,26.43-10.11,57.93-59.17,57.83-61.16-.11-2-5.42-7.72-5.42-7.72-16.22,33.91-59.04,57.22-59.04,57.22,11.54-27.65,38.49-48.12,48.95-58.69,10.45-10.57-.59-10.98-.59-10.98-29.11,17.57-56.15,55.07-56.15,55.07,16.31-50.94,52.83-60.9,52.83-60.9,0,0-40.12-19.89-56.41-25.03-2.15-.68-2.7-9.36-.48-8.99,18.19,3.04,61.67,29.76,61.67,29.76,0,0,10.55-27.6,81.82-24.39,0,0-67.8,5.62-73.46,30.95,0,0,.27,4.99,3.32,5.83s7.6-26.44,83.66-27.49"/>
    <path class="cls-18" d="m1412.85,1162.16c-2.14-.97,5.97-8.87,5.97-8.87,0,0-58.44-.92-59.47-.82,0,0,1.49,7.57.93,14.67l-10.76-15.1-39.81-1.18s-2.38,15.42.86,17.47,2.53,6.81,2.53,6.81c0,0-4.28-1.94-5.15.49-.87,2.43.86,12.84.86,12.84,0,0,22.11,20.23,32.26,16.92,0,0-6.98,4.19-18.55,1.76-11.57-2.43-12.63-8.47-12.63-8.47,0,0-12.58-12.26-17.99,15.28-5.41,27.54,15.62,16.93,15.62,16.93,0,0,3.33,3.21-2.7,6.13-6.03,2.92-16.08,3.37-20.67-3.25-4.59-6.62-18.67,11.4-18.67,11.4,0,0-14.5,8.7-8.72,17.55,5.78,8.85,12.52,16.44,34,12.05l-13.16,4.77s-4.04,1.56-8.25.78c-4.2-.78,4.19,16.05,4.19,16.05,0,0,6.34,1.75,10.23-2.14,3.89-3.89-5.56,9.93-5.56,9.93,0,0-6.82,6.52-4.68,7.49s7.14-1.85,7.14-1.85c0,0-5.63,8.76-4.13,15.67s20.13,6.32,20.13,6.32c0,0-3.18,14.4,22.34,23.74,0,0,8.57-11.39.74-35.32l-1.57-23.35c.63,9.34,8.39,16.83,8.39,16.83-2.28-33.86-9.96-40.19-10.04-41.35l14.26,11.57c-6.02-12.36-1.73-25.69-1.73-25.69-1.12,14.21,10.68,35.42,10.68,35.42,2.54-8.47.25-11.77-5.29-32.4-5.54-20.63,5.56-9.93,5.56-9.93.54,23.45,14.57,31.52,14.57,31.52,1.13-29.49-3.79-25.49-6.79-39.31-3-13.82,2.94-17.91,2.94-17.91,4.26,32.5,11.95,38.82,11.95,38.82,0,0,4.2.78,11.74-10.51,7.54-11.29-4.18-31.33-4.18-31.33l.8-3.6c2.77,10.31,7.13,13.43,7.13,13.43,7.22-15.96-2.43-36.2-2.51-37.37-2.35-34.99,6.9-5.35,6.9-5.35-4.53,25.11,14.42,29.08,14.42,29.08,9.05-19.66-.64-35.27-.64-35.27"/>
    <path class="cls-43" d="m1418.84,1308.02s-15.31-14.39-15.17-30.39c.11-12.01,8.29-18.99,12.8-21.3,1.58-.81,6.31-1.2,8.91-.39,5.67,1.76,18.6,5.28,9.78,16.81-3.47,4.54-16.33,35.27-16.33,35.27Zm-1.59-.01c1.64-.7-12.98-18.08-14.92-21.56-4.96-8.87-14.93-20.3-26.47,1.01-11.54,21.31,21.15,29.18,41.39,20.55Zm39.04,2.89c17.7-6.14,5.38-36.49-11.06-30.35-16.44,6.15-26.72,27.47-26.72,27.47,0,0,20.08,9.01,37.78,2.87Zm-37.79-1.61s-23.94-.22-29.09,11.07c0,0-8.96,15.04-1.53,28.97,5.43,10.19,14.4,3.56,18.82-.74,1.72-1.67,3.05-3.67,3.94-5.89,2.26-5.63,6.79-18.47,7.86-33.41Zm0,0s-1.31,5.85-1.33,7.55c-.06,6.3-2.66,15.1,7.3,27.79,5.54,7.06,11.48,6,15.06,6.44,2.09.26,7.13-1.4,9.04-2.27,5.33-2.42,15.61-9.04,3.76-20.61-1.42-1.39-3.14-2.43-5.02-3.08-4.27-1.46-13.1-4.17-17.56-6.9-6.26-3.84-11.26-8.93-11.26-8.93Z"/>
    <path class="cls-2" d="m1431.24,1215.13c9.59-40.36,87.8-64.13,87.8-64.13l68.03-.39s-16.72,36.61-66.09,55.36c-3.85,1.46-20.71,8.73-63.26,22.24,0,0-40.48,15.43-60.54,14.14,0,0,29.9-9.68,34.06-27.22Z"/>
    <path class="cls-38" d="m1596.07,1195.56s56.08-.01,68.53,10.66c12.9,11.07,21.49,10.16,21.49,10.16,0,0,4.05-.79-1.73-5.1l-66.31-33.58s58.49,11.13,72.56,28.9c0,0,6.32,6.66,5.37-6.72-1.15-16.08-74.24-35-74.24-35m0,0c76.05,1.05,80.61,28.33,83.66,27.49s3.32-5.83,3.32-5.83c-5.66-25.34-73.46-30.95-73.46-30.95,71.27-3.21,81.82,24.39,81.82,24.39,0,0,43.48-26.72,61.67-29.76,2.22-.37,1.67,8.31-.48,8.99-16.3,5.14-56.41,25.03-56.41,25.03,0,0,36.52,9.96,52.83,60.9,0,0-27.04-37.49-56.15-55.07,0,0-11.04.41-.59,10.98,10.45,10.57,37.4,31.03,48.95,58.69,0,0-42.82-23.31-59.04-57.22,0,0-5.31,5.73-5.42,7.72s31.39,51.05,57.83,61.16c0,0-47.4-12.54-63.19-54.44,0,0-5.99-.32-1.53,9.93,4.46,10.25,22.74,24.24,38.32,70.14,0,0-40.08-37.19-44.37-69.46,0,0-9.31,5.51-2.85,15.87,6.46,10.36,24.42,30.34,40.53,66.25,0,0-52.38-31.83-47.57-65.63,0,0-14.83,15.23,1.92,39.16,16.75,23.93,39.03,38.13,39.03,38.13,0,0-37.95-2.02-52.58-46.87,0,0-1.97,36.95,21.77,61.25,0,0-26.06-18.41-26.78-42.49l9.96,38.58s-15.76-4.85-16.64-25.92c0,0-5.68,12.72-2.01,18.92,0,0-10.62-6.77-8.14-16.46,1.26-4.94-11.69,31.42-11.69,31.42-7.95-9.25-2.18-34.16-2.18-34.16-19.29,4.98-40-1.13-40-1.13,29.07-.45,30.7-12.38,30.7-12.38,0,0-39.77-7.13-31.69-6.7,16.98.9,52.83-14.21,52.83-14.21,0,0-46.36,5.54-59.28-15.18,0,0,47.19,16.54,77,2.1,0,0,15.46-8.19-8.67-6.47-24.13,1.72-55.29,4.06-71.47-11.82,0,0,45.54,12.8,85.22,6.38,3.01-.49,5.82-2.01,7.68-4.43l-71.19-14.81,74.05.94c6.47-8.67-63.16-17.39-81.39-32.38"/>
    <path class="cls-44" d="m1846.81,1362.92c-32.79-41.43-24.98-132.19-24.98-132.19,0,0-9.94,74.77,33.86,136.89l-8.88-4.7Zm-5.3-19.37c23.24,1.85,56.61-48.27,56.61-48.27-54.88,15.44-57.67,46.17-57.67,46.17m-7.05-1.26s-27.58-14.47-60.13-6.14l34.82,15.26c17.63,1.78,27.38-5.59,27.38-5.59m-8.9-29.19s-34.81-25.86-76.11-14.6m0,0c59.72,41.6,77.48,21.84,77.48,21.84m6.29,4.54c22.66-1.39,64.4-53.5,64.4-53.5-44.59,3.43-65.85,47.68-65.85,47.68m-4.19-11.25c24.53-4.23,59.82-64.36,59.82-64.36-59.78,27.48-60.84,60.59-60.84,60.59m-3.09-14.64c22.88-14.08,46.44-69.27,46.44-69.27-43.11,34.27-47.29,64.6-47.29,64.6m-.86,3.25c-7.55-10.63-75.26-22.01-75.26-22.01,37.49,32.55,75.22,27.4,75.22,27.4m-1.51-25.45c-14.75-16.81-68.74-24.76-68.74-24.76,36.74,34.4,68.7,30.14,68.7,30.14m.43-8.31s31.71-22.87,44.4-61.97c0,0-38,19.07-45.1,55.05m1.09-27.72s29.23-9.61,37.8-43.91c0,0-31.62,8.71-37.97,42.84m-1.24,23.16c-9.25-15-24.33-22.04-56.67-30.76,0,0,27.54,33.45,56.7,34.06m.83-20.87c-14.91-23.7-50.17-27.27-50.17-27.27,19.69,28.54,49.78,31.43,49.78,31.43m1.16-10.68s7.41-26.14-29.06-45.31c0,0,4.77,38.66,29.47,39m-.27-3.89s25.57-38.62,8.54-63.7c0,0-21.23,20.92,1.52,44"/>
    <path class="cls-4" d="m2035.32,1360.97c-1.79.82,5.03,7.4,5.03,7.4,0,0-48.9.98-49.76.9,0,0,1.22-6.34.73-12.28l-8.95,12.68-33.31,1.13s-2.05-12.9.66-14.62,2.09-5.71,2.09-5.71c0,0-3.57,1.64-4.31-.39-.74-2.03.68-10.75.68-10.75,0,0,18.42-17.01,26.93-14.28,0,0-5.86-3.48-15.53-1.4-9.68,2.07-10.54,7.13-10.54,7.13,0,0-10.48,10.3-15.11-12.72-4.63-23.03,13.01-14.23,13.01-14.23,0,0,2.77-2.7-2.28-5.12s-13.47-2.76-17.29,2.79c-3.82,5.55-15.66-9.47-15.66-9.47,0,0-12.16-7.23-7.36-14.66,4.81-7.43,10.41-13.8,28.41-10.21l-11.03-3.95s-3.39-1.29-6.9-.62,3.45-13.45,3.45-13.45c0,0,5.3-1.49,8.57,1.76s-4.69-8.29-4.69-8.29c0,0-5.73-5.43-3.95-6.25,1.79-.82,5.98,1.52,5.98,1.52,0,0-4.75-7.31-3.52-13.1,1.23-5.79,16.82-5.36,16.82-5.36,0,0-2.71-12.04,18.61-19.94,0,0,7.21,9.5.74,29.56l-1.23,19.55c.49-7.82,6.96-14.12,6.96-14.12-1.78,28.35-8.19,33.66-8.25,34.64l11.89-9.74c-4.99,10.36-1.35,21.5-1.35,21.5-.99-11.89,8.81-29.68,8.81-29.68,2.16,7.08.25,9.85-4.31,27.13-4.56,17.28,4.69,8.29,4.69,8.29.37-19.63,12.07-26.43,12.07-26.43,1.05,24.67-3.08,21.35-5.54,32.92-2.46,11.57,2.53,14.97,2.53,14.97,3.45-27.21,9.85-32.53,9.85-32.53,0,0,3.51-.67,9.86,8.76,6.35,9.42-3.38,26.23-3.38,26.23l.68,3.01c2.28-8.64,5.91-11.26,5.91-11.26,6.1,13.33-1.91,30.3-1.97,31.28-1.84,29.29,5.79,4.46,5.79,4.46-3.89-20.99,11.96-24.39,11.96-24.39,7.64,16.42-.41,29.51-.41,29.51"/>
    <path class="cls-38" d="m2085.72,1347.35s73.94-15.27,75.88-31.28c1.61-13.32-5.03-6.98-5.03-6.98-14.94,17.06-73.91,25.27-73.91,25.27l67.89-30.25c5.99-4.02,1.98-5.01,1.98-5.01,0,0-8.53-1.33-21.97,9.08-12.96,10.05-68.97,7.26-68.97,7.26m0,0c18.95-14.07,88.93-19.33,82.9-28.31l-74.01-2.73,71.83-11.27c-1.74-2.51-4.46-4.17-7.45-4.8-39.32-8.39-85.43,2.15-85.43,2.15,16.94-15.06,47.96-11.18,71.97-8.27,24.01,2.91,8.98-6.03,8.98-6.03-29.06-15.89-77.01-1.72-77.01-1.72,13.93-20.05,59.96-12.22,59.96-12.22,0,0-35.06-16.87-52.06-16.81-8.1.03,31.98-5.12,31.98-5.12,0,0-1.04-12-30.05-13.89,0,0,20.98-5.08,40,.85,0,0-4.52-25.17,3.87-34.01,0,0,11.14,36.96,10.12,31.96-2-9.8,8.94-16.03,8.94-16.03-3.98,6.01,1.07,19,1.07,19,1.92-21.01,17.91-25.07,17.91-25.07l-11.86,38.04c1.91-24.01,28.85-41.11,28.85-41.11-24.91,23.09-24.78,60.09-24.78,60.09,16.84-44.06,54.84-44.2,54.84-44.2,0,0-22.95,13.09-40.87,36.15-17.91,23.07-3.86,39.01-3.86,39.01-3.13-33.99,50.77-63.19,50.77-63.19-17.87,35.07-36.8,54.14-43.76,64.16-6.96,10.03,2.06,15.99,2.06,15.99,5.88-32.02,47.75-67.18,47.75-67.18-17.83,45.07-36.79,58.14-41.75,68.15-4.96,10.02,1.04,10,1.04,10,17.85-41.07,65.81-51.24,65.81-51.24-26.9,8.79-60.79,56.23-60.78,58.23s5.03,7.98,5.03,7.98c17.88-33.07,61.8-54.23,61.8-54.23-12.9,27.05-40.83,46.15-51.79,56.19-10.96,10.04.04,11,.04,11,29.94-16.11,58.81-52.22,58.81-52.22-18.81,50.07-55.78,58.21-55.78,58.21,0,0,39.08,21.86,55.1,27.8,2.11.78,2.23,9.48.03,9-18.01-3.93-60.12-32.78-60.12-32.78,0,0-11.9,27.04-82.93,20.31,0,0,67.99-2.25,74.9-27.28,0,0-.02-5-3.02-5.99s-8.9,26.03-84.91,23.31"/>
    <path class="cls-41" d="m1898.55,1191.8s-10.74-10.09-10.64-21.31c.08-8.42,5.81-13.32,8.98-14.94,1.11-.57,4.43-.84,6.25-.28,3.98,1.24,13.05,3.7,6.86,11.79-2.43,3.18-11.45,24.74-11.45,24.74Zm-1.11-.01c1.15-.49-9.1-12.68-10.47-15.12-3.48-6.22-10.47-14.24-18.57.71-8.1,14.95,14.84,20.47,29.03,14.41Zm27.38,2.02c12.42-4.3,3.78-25.6-7.76-21.29-11.53,4.31-18.74,19.27-18.74,19.27,0,0,14.08,6.32,26.5,2.02Zm-26.51-1.13s-16.79-.16-20.4,7.76c0,0-6.29,10.55-1.07,20.32,3.81,7.15,10.1,2.5,13.2-.52,1.2-1.17,2.14-2.57,2.76-4.13,1.59-3.95,4.76-12.95,5.51-23.44Zm0,0s-.92,4.1-.93,5.29c-.04,4.42-1.87,10.59,5.12,19.49,3.89,4.95,8.06,4.21,10.56,4.52,1.46.18,5-.98,6.34-1.59,3.74-1.7,10.95-6.34,2.64-14.46-1-.97-2.2-1.71-3.52-2.16-3-1.02-9.19-2.92-12.32-4.84-4.39-2.69-7.9-6.26-7.9-6.26Z"/>
    <path class="cls-27" d="m1486.16,1264.79c-10.68,70.79,56.45,104.21,56.45,104.21,0,0-.23-.97-.16-1.29,2.21-11.34,49.09-63.73-56.29-102.92Z"/>
    <path class="cls-14" d="m1539.45,1360.9s-30.19-75.98-47.07-86.2"/>
    <path class="cls-29" d="m1989.35,1150.98c-14.59,96.68,77.1,142.32,77.1,142.32,0,0-.31-1.33-.22-1.76,3.02-15.49,67.04-87.04-76.88-140.56Z"/>
    <path class="cls-12" d="m2062.13,1282.23s-41.24-103.78-64.29-117.73"/>
    <path class="cls-7" d="m2389.22,1130.67c-62.85-48.97-151.08-52.55-151.08-52.55,0,0,73.73-21.5,151.08,43m-.2,21.15c-70.85-64.5-138.18-44.19-138.18-44.19,0,0,77.96-3.23,139.6,57.68l-.6,4.78s-57.33-56.14-118.25-39.42c0,0,65.73,7.11,115.89,45.33l9.56,9.56-1.19-169.6c-8.36-13.14-26.28-7.17-26.28-7.17,14.33,0,19.11,10.75,19.11,10.75-13.14-13.14-56.14,3.58-56.14,3.58,26.28-7.17,56.14,8.36,56.14,8.36l1.06,7.64c-21.37-16-79.96-7.89-60.72-6.88,31,1.63,58.08,15.25,62.05,25.52v9.56c-13.14-22.69-100.33-37.03-87.19-31.05,27.18,12.36,83.57,40.67,85.96,51.42l.04,3.53s-51.36-59.72-142.13-47.78c0,0,90.74,12,142.1,63.36l-.6,1.68s-101.84-79.5-192.9-51.8c0,0,94.05-6.63,193.49,65.64l-.61,8.36"/>
    <path class="cls-11" d="m2183.56,148.8c25-36,121-63,121-63l-6,7s-104,36-115,56c0,0-25,16-44,2-19-14-19-12-19-12,0,0,20-6,35,0,0,0,24,6,28,10m40-26s-35,62-21,89c0,0-2-17,12-36,14-19,9-53,9-53m21.98-9.43s-32.98,68.43-21.98,86.43c0,0-1-11,14-30,15-19,12.03-57.93,12.03-57.93m21.73-8.95s-18.75,26.87-17.75,56.87c1,30,5,47,5,47,0,0,0-20,10-35,22.36-33.54,6.8-70.36,6.8-70.36m-74.8,33.36s-25,33-24,47c1,14,1,35,1,35-2-5,4-13,13-30,9-17,10-52,10-52m66.49-36.99c-3.49-.01-24.49-47.01-86.49-51.01l23,23c19,19,57.74,30.36,57.74,30.36m-24.28,10.44s-19.46-33.8-55.46-39.8c-36-6-50,8-53,7,0,0,18-12,44,7,26,19,58,27,60.62,27.71m-12.62,6.29s-20-26-50-25c-30,1-40-3-40-3,30,7,39,14,39,14,19,17,37,20,39.98,21.13m-8.31,5.33s-3.67-12.46-29.67-18.46c-26-6-40-7-40-7,0,0,10,3,21,18,11,15,39.72,15.34,39.72,15.34m-57.72,76.66c29-18,49-67,49-67,0,0-47,23-55,72l6-5Zm158.27-120.97s-21.27,49.97,1.73,103.97c2.85,6.7,14.18-74.42,3.17-95.66m13.42,8.52s-12.29,26.04,3.41,73.14c1,3,10-39,5.11-46.3m-34.51-72.85c-14.4-29.15-74.6-38.85-74.6-38.85,38,60,73.96,65.69,73.96,65.69m16.4-50.27s-6.36-20.42-38.36-23.42c0,0,9,34,28.99,44.29"/>
    <path class="cls-38" d="m2380.83,774.52s-59.77,3.2-73.64-7.47c-14.38-11.06-23.48-9.61-23.48-9.61,0,0-4.27,1.07,2.13,5.34l72.57,32.02s-62.97-8.54-78.98-26.68c0,0-7.11-6.74-5.34,7.47,2.13,17.08,81.11,33.09,81.11,33.09m0,0c-81.11,3.2-87.52-25.61-90.72-24.55s-3.2,6.4-3.2,6.4c7.47,26.68,80.05,28.82,80.05,28.82-75.78,7.47-88.58-21.35-88.58-21.35,0,0-44.83,30.95-64.04,35.22-2.34.52-2.25-8.76,0-9.61,17.08-6.4,58.7-29.88,58.7-29.88,0,0-39.49-8.54-59.77-61.9,0,0,30.95,38.42,62.97,55.5,0,0,11.74-1.07,0-11.74-11.74-10.67-41.62-30.95-55.5-59.77,0,0,46.96,22.41,66.17,57.63,0,0,5.34-6.4,5.34-8.54,0-2.13-36.36-52.63-65.1-61.9,0,0,51.23,10.67,70.44,54.43,0,0,6.4,0,1.07-10.67-5.34-10.67-25.61-24.55-44.83-72.57,0,0,44.83,37.35,51.23,71.51,0,0,9.61-6.4,2.13-17.08-7.47-10.67-27.75-30.95-46.96-68.31,0,0,57.63,30.95,54.43,67.24,0,0,14.94-17.08-4.27-41.62-19.21-24.55-43.76-38.42-43.76-38.42,0,0,40.56,0,58.7,46.96,0,0,0-39.49-26.68-64.04,0,0,28.82,18.14,30.95,43.76l-12.81-40.56s17.08,4.27,19.21,26.68c0,0,5.34-13.87,1.07-20.28,0,0,11.7,6.61,9.61,17.08-1.07,5.34,10.67-34.15,10.67-34.15,9,9.41,4.27,36.29,4.27,36.29,20.28-6.4,42.69-1.07,42.69-1.07-30.95,2.13-32.02,14.94-32.02,14.94,0,0,42.79,5.34,34.15,5.34-18.14,0-55.5,18.14-55.5,18.14,0,0,49.09-8.54,64.04,12.81,0,0-51.23-14.94-82.18,2.13,0,0-16.01,9.61,9.61,6.4,25.61-3.2,58.7-7.47,76.84,8.54,0,0-49.26-11.06-91.19-1.95-3.19.69-6.09,2.47-7.93,5.15l76.71,11.74-78.98,3.2c-6.4,9.61,68.31,14.94,88.58,29.88"/>
    <path class="cls-35" d="m2296.64,86.14c-12.06,9.04-15.58-4.41-17.36-10.32-.81-2.7-.36-7.61.5-9.25,2.44-4.66,9.77-13.08,22.24-13.08,16.61,0,31.39,16.04,31.39,16.04,0,0-32.02,13.05-36.77,16.61Zm15.84-61.42c-22.24,11.77-10.46,22.24-1.31,27.47,3.59,2.05,21.5,17.39,22.24,15.7,9.16-20.93,1.31-54.94-20.93-43.16Zm20.93,44.47s-22.24,10.46-28.78,27.47,24.85,30.08,31.39,11.77-2.62-39.24-2.62-39.24Zm36.07-7.84c2.31-.9,4.4-2.27,6.15-4.03,4.5-4.55,11.47-13.79.95-19.53-14.39-7.85-30.08,1.31-30.08,1.31-11.77,5.23-11.77,30.08-11.77,30.08,15.53-.97,28.89-5.54,34.76-7.84Zm-25.6,19.61c2.79,4.65,5.51,13.84,6.99,18.29.65,1.96,1.72,3.75,3.14,5.24,11.89,12.41,18.86,1.81,21.43-3.7.92-1.98,2.69-7.19,2.45-9.36-.42-3.72.74-9.87-6.54-15.7-13.08-10.46-22.24-7.85-28.78-7.85-1.76,0-7.85,1.31-7.85,1.31,0,0,5.23,5.23,9.16,11.77Z"/>
    <path class="cls-13" d="m2380.91,504.25c.36-4.55,8.64-8.45,8.64-8.45,0,0-7-5-14,2"/>
    <path class="cls-31" d="m2387.67,512.19c.89-2.13,8.88,5.61,8.88,5.61,0,0-.79-57.42-.92-58.43,0,0-7.39,1.68-14.38,1.34l14.52-11.01v-39.14s-15.22-1.89-17.13,1.36c-1.91,3.25-6.62,2.69-6.62,2.69,0,0,1.79-4.26-.63-5.05s-12.59,1.22-12.59,1.22c0,0-19.23,22.3-15.68,32.17,0,0-4.32-6.73-2.27-18.17s7.95-12.65,7.95-12.65c0,0,11.67-12.71-15.53-17.23-27.21-4.51-16.18,15.84-16.18,15.84,0,0-3.06,3.36-6.1-2.47-3.04-5.83-3.77-15.7,2.59-20.4s-11.74-18-11.74-18c0,0-8.97-13.99-17.49-8.05-8.53,5.94-15.78,12.77-10.85,33.75l-5.07-12.79s-1.65-3.93-1.01-8.08-15.65,4.58-15.65,4.58c0,0-1.53,6.28,2.4,9.98,3.94,3.7-9.91-5.17-9.91-5.17,0,0-6.6-6.51-7.5-4.38s2.03,6.96,2.03,6.96c0,0-8.77-5.28-15.51-3.6s-5.62,19.96-5.62,19.96c0,0-14.24-2.71-22.66,22.63,0,0,11.43,8.09,34.72-.3l22.89-2.22c-9.16.89-16.29,8.73-16.29,8.73,33.19-3.22,39.18-10.95,40.33-11.06l-10.95,14.34c11.96-6.27,25.18-2.44,25.18-2.44-13.99-.69-34.48,11.52-34.48,11.52,8.39,2.25,11.57-.1,31.67-6.14,20.1-6.04,9.91,5.17,9.91,5.17-23.02,1.21-30.54,15.22-30.54,15.22,28.99.25,24.93-4.46,38.41-7.81,13.48-3.35,17.67,2.37,17.67,2.37-31.8,5.13-37.78,12.86-37.78,12.86,0,0-.64,4.15,10.67,11.23,11.31,7.08,30.65-5.02,30.65-5.02l3.56.68c-10.05,3.02-12.98,7.39-12.98,7.39,15.89,6.63,35.48-3.44,36.63-3.55,34.3-3.33,5.46,6.62,5.46,6.62-24.79-3.73-28.14,15-28.14,15,19.57,8.32,34.62-1.65,34.62-1.65"/>
    <path class="cls-10" d="m2195,425.65s62.55-28.58,100.52-11.79c0,0,23.24,10.03,58.13,39.38s42.12,34.81,42.12,34.81"/>
    <path class="cls-5" d="m2374.29,259.57s12.74.6,12.74,3.62-14.44,3.62-14.44,3.62h-11.24c-2.51,0-5.01-.35-7.29-1.1-3.49-1.15-7.17-3.04-1.85-4.93,8.49-3.02,22.08-1.21,22.08-1.21Z"/>
    <path class="cls-15" d="m2201.83,277.33c-9.22,6.91-11.91-3.37-13.27-7.89-.62-2.07-.27-5.82.38-7.07,1.87-3.57,7.47-10,17-10,12.69,0,24,12.26,24,12.26,0,0-24.48,9.97-28.11,12.69Zm12.11-46.95c-17,9-8,17-1,21,2.75,1.57,16.43,13.3,17,12,7-16,1-42-16-33Zm16,34s-17,8-22,21,19,23,24,9-2-30-2-30Zm27.57-5.99c1.77-.69,3.37-1.73,4.7-3.08,3.44-3.48,8.77-10.54.72-14.93-11-6-23,1-23,1-9,4-9,23-9,23,11.87-.74,22.09-4.24,26.57-5.99Zm-19.57,14.99c2.13,3.56,4.22,10.58,5.34,13.98.5,1.5,1.31,2.86,2.4,4,9.09,9.49,14.42,1.38,16.38-2.83.7-1.51,2.06-5.5,1.87-7.16-.32-2.84.56-7.55-5-12-10-8-17-6-22-6-1.35,0-6,1-6,1,0,0,4,4,7,9Z"/>
    <path class="cls-34" d="m2229.42,941.59c-8.82-11.53,4.11-15.05,9.78-16.81,2.6-.81,7.33-.41,8.91.39,4.52,2.31,12.69,9.29,12.8,21.3.15,16-15.17,30.39-15.17,30.39,0,0-12.86-30.73-16.33-35.27Zm59.31,14.71c-11.54-21.31-21.51-9.88-26.47-1.01-1.94,3.48-16.56,20.86-14.92,21.56,20.24,8.63,52.93.77,41.39-20.55Zm-42.65,20.56s-10.28-21.33-26.72-27.47c-16.44-6.15-28.76,24.21-11.06,30.35,17.7,6.14,37.78-2.87,37.78-2.87Zm7.87,34.67c.89,2.22,2.22,4.22,3.94,5.89,4.42,4.3,13.38,10.93,18.82.74,7.43-13.93-1.53-28.97-1.53-28.97-5.15-11.29-29.09-11.07-29.09-11.07,1.07,14.95,5.6,27.78,7.86,33.41Zm-19.12-24.49c-4.46,2.73-13.29,5.44-17.56,6.9-1.88.64-3.59,1.69-5.02,3.08-11.85,11.57-1.57,18.19,3.76,20.61,1.91.87,6.95,2.53,9.04,2.27,3.58-.44,9.52.62,15.06-6.44,9.96-12.69,7.36-21.49,7.3-27.79-.02-1.7-1.33-7.55-1.33-7.55,0,0-4.99,5.09-11.26,8.93Z"/>
    <path class="cls-5" d="m2377.25,891.78s10.89.45,10.9,3.02c.02,2.58-12.32,3.17-12.32,3.17l-9.6.06c-2.15.01-4.28-.28-6.24-.91-2.99-.96-6.14-2.56-1.61-4.2,7.24-2.62,18.86-1.15,18.86-1.15Z"/>
    <path class="cls-42" d="m2245.07,571.7c-15.6,12.24-20.16-5.97-22.46-13.96-1.05-3.66-.46-10.31.64-12.51,3.16-6.31,12.64-17.7,28.77-17.7,21.49,0,40.62,21.7,40.62,21.7,0,0-41.44,17.66-47.58,22.47Zm20.5-83.13c-28.77,15.93-13.54,30.1-1.69,37.18,4.65,2.78,27.82,23.54,28.77,21.24,11.85-28.33,1.69-74.35-27.08-58.42Zm27.08,60.19s-28.77,14.16-37.24,37.18c-8.46,23.01,32.16,40.72,40.62,15.93s-3.39-53.11-3.39-53.11Zm46.67-10.6c2.99-1.22,5.7-3.07,7.96-5.46,5.83-6.16,14.84-18.66,1.23-26.43-18.62-10.62-38.93,1.77-38.93,1.77-15.23,7.08-15.23,40.72-15.23,40.72,20.09-1.31,37.39-7.5,44.98-10.6Zm-33.13,26.54c3.61,6.3,7.14,18.74,9.04,24.76.84,2.65,2.22,5.07,4.07,7.09,15.39,16.8,24.41,2.44,27.73-5.01,1.19-2.68,3.48-9.74,3.16-12.67-.55-5.03.96-13.36-8.46-21.24-16.93-14.16-28.77-10.62-37.24-10.62-2.28,0-10.16,1.77-10.16,1.77,0,0,6.77,7.08,11.85,15.93Z"/>
    <path class="cls-5" d="m533.74,1222.11s-12.06.37-12.11,3.23,13.61,3.65,13.61,3.65l10.64.17c2.38.04,4.75-.26,6.92-.93,3.32-1.03,6.83-2.76,1.83-4.63-7.99-2.98-20.87-1.48-20.87-1.48Z"/>
    <path class="cls-26" d="m78.94,1245.1s-23.89-22.44-23.65-47.39c.18-18.73,12.92-29.63,19.96-33.23,2.46-1.26,9.84-1.87,13.9-.61,8.85,2.75,29.01,8.24,15.26,26.22-5.41,7.08-25.46,55.01-25.46,55.01Zm-2.48-.02c2.56-1.09-20.24-28.2-23.27-33.63-7.73-13.83-23.29-31.66-41.29,1.58-18,33.24,32.99,45.51,64.56,32.05Zm60.89,4.5c27.61-9.57,8.39-56.92-17.25-47.33s-41.67,42.85-41.67,42.85c0,0,31.32,14.05,58.92,4.48Zm-58.94-2.52s-37.34-.35-45.37,17.26c0,0-13.98,23.45-2.39,45.18,8.48,15.89,22.45,5.55,29.35-1.15,2.68-2.6,4.75-5.72,6.14-9.18,3.53-8.78,10.58-28.8,12.26-52.11Zm0,0s-2.05,9.13-2.08,11.77c-.09,9.83-4.15,23.55,11.39,43.35,8.65,11.02,17.91,9.36,23.49,10.05,3.25.4,11.12-2.18,14.1-3.54,8.31-3.78,24.35-14.1,5.86-32.15-2.22-2.16-4.89-3.79-7.82-4.8-6.66-2.28-20.43-6.5-27.39-10.76-9.77-5.99-17.56-13.92-17.56-13.92Z"/>
    <path class="cls-38" d="m337.51,1308.13s-63.94,3.43-78.78-7.99c-15.38-11.83-25.12-10.28-25.12-10.28,0,0-4.57,1.14,2.28,5.71l77.64,34.25s-67.36-9.13-84.49-28.54c0,0-7.61-7.21-5.71,7.99,2.28,18.27,86.77,35.39,86.77,35.39m0,0c-86.77,3.43-93.62-27.4-97.05-26.26s-3.43,6.85-3.43,6.85c7.99,28.54,85.63,30.83,85.63,30.83-81.06,7.99-94.76-22.83-94.76-22.83,0,0-47.95,33.11-68.5,37.68-2.51.56-2.41-9.37,0-10.28,18.27-6.85,62.8-31.97,62.8-31.97,0,0-42.24-9.13-63.94-66.22,0,0,33.11,41.1,67.36,59.37,0,0,12.56-1.14,0-12.56s-44.53-33.11-59.37-63.94c0,0,50.24,23.98,70.79,61.65,0,0,5.71-6.85,5.71-9.13s-38.89-56.3-69.65-66.22c0,0,54.8,11.42,75.36,58.23,0,0,6.85,0,1.14-11.42-5.71-11.42-27.4-26.26-47.95-77.64,0,0,47.95,39.96,54.8,76.5,0,0,10.28-6.85,2.28-18.27-7.99-11.42-29.69-33.11-50.24-73.07,0,0,61.65,33.11,58.23,71.93,0,0,15.98-18.27-4.57-44.53-20.55-26.26-46.81-41.1-46.81-41.1,0,0,43.39,0,62.8,50.24,0,0,0-42.24-28.54-68.5,0,0,30.83,19.41,33.11,46.81l-13.7-43.39s18.27,4.57,20.55,28.54c0,0,5.71-14.84,1.14-21.69,0,0,12.51,7.07,10.28,18.27-1.14,5.71,11.42-36.54,11.42-36.54,9.63,10.06,4.57,38.82,4.57,38.82,21.69-6.85,45.67-1.14,45.67-1.14-33.11,2.28-34.25,15.98-34.25,15.98,0,0,45.78,5.71,36.54,5.71-19.41,0-59.37,19.41-59.37,19.41,0,0,52.52-9.13,68.5,13.7,0,0-54.8-15.98-87.91,2.28,0,0-17.13,10.28,10.28,6.85s62.8-7.99,82.21,9.13c0,0-52.7-11.83-97.55-2.09-3.41.74-6.51,2.64-8.49,5.51l82.06,12.56-84.49,3.43c-6.85,10.28,73.07,15.98,94.76,31.97"/>
    <path class="cls-21" d="m414.7,1157c-32,17-33,34-33,34,34-5,46-26,46-26l-2,5s-15,21-18,43c-1.01,7.39,19-23,19-23-9,23-3,38-3,38,23-19,23-56,23-56,11,36,30,39,30,39-4-31-24-60-24-60l-61,1s23,7,28,2l-5,3Z"/>
    <path class="cls-38" d="m798.35,1276.87s8.7-36.99,17.68-43.54c9.3-6.79,10.04-12.6,10.04-12.6,0,0,.11-2.79-3.63.35l-32.44,38.52s16.43-36.85,30.33-43.37c0,0,5.37-3.13-3.6-4.58-10.79-1.74-34.62,43.53-34.62,43.53m0,0c12.51-49.99,31.21-48.76,31.13-50.9s-3.33-3.09-3.33-3.09c-17.59-.2-31.83,43.64-31.83,43.64,8.95-47.5,28.79-50.17,28.79-50.17,0,0-10.87-32.83-10.05-45.3.1-1.52,5.74.19,5.85,1.71.86,11.55,7.75,41.09,7.75,41.09,0,0,12.24-22.54,48.37-25.38,0,0-28.93,12.01-45.04,28.48,0,0-1.44,7.34,7.15,2.09s26.28-19.85,46.31-23.16c0,0-22.03,24.62-46.91,30.05,0,0,2.95,4.39,4.25,4.77s38.55-12.77,49.32-28.64c0,0-15.63,29.31-45.72,33.22,0,0-1.14,3.9,6.31,2.55,7.45-1.35,19.52-11.23,52.21-14.38,0,0-30.75,20.66-52.7,18.47,0,0,2.19,6.99,10.02,4.34,7.83-2.65,23.81-11.39,49.99-16.44,0,0-29.13,29.6-50.67,21.18,0,0,7.74,12.15,26.12,4.82,18.38-7.33,31.21-19.82,31.21-19.82,0,0-7.23,24.71-39.08,27.4,0,0,24.06,7.04,43.77-4.84,0,0-16.19,14.32-32.18,11.06l26.99-.58s-5.64,9.64-19.68,6.95c0,0,7.5,5.72,12.17,4.26,0,0-6.11,5.95-12.12,2.81-3.06-1.6,18.91,12.59,18.91,12.59-7.33,3.81-22.87-3.87-22.87-3.87.29,13.5-6.96,26.2-6.96,26.2,4.22-19.24-3.4-22.17-3.4-22.17,0,0-10.88,25.12-9.34,19.86,3.23-11.06-1.16-37.05-1.16-37.05,0,0-3.55,31.44-19.22,36.74,0,0,18.24-28.55,13.35-50.46,0,0-3-11.47-5.61,4.71-2.61,16.18-5.91,37.1-18.9,45.3,0,0,15.52-28.04,17.44-55.22.15-2.06-.42-4.15-1.73-5.75l-20.83,44.65,12.13-48.69c-4.71-5.61-21.28,38.96-34,48.65"/>
    <path class="cls-44" d="m255.39,925.95c-61.09,30.06-85.34,93.13-85.34,93.13,0,0,32.78-74.73,76.33-93.24l9,.11Zm-23.21,14.05s-10.99,25.36,25.55,61.04c0,0-4.75-53.72-23.82-62.24m-4.68-2.72s-4.5-9.98-19.13-16.14l-33.92-2.93c22.02,20.52,49.92,20.96,49.92,20.96m-82.49-3.91c27.65,26.56,66.12,21.16,66.12,21.16m4.19-5.1s-5.5-23.16-70.3-16.05m73.56,19.12s-2.25,43.92,31.34,65.74c0,0-10.48-58.88-27.7-69.69m-14.18,13.51s-13.37,26.5,21.86,73.74c0,0-1.97-62.42-19.44-76.26m-13.8,16.02s-9.72,25.64,9.49,71.08c0,0,5.14-53.51-6.81-74.39m.32-3.86s-27.46-20.23-70.91-10.71c0,0,58.13,20.09,68.62,14.96m-7.54,10.87s-23.31-17.06-66.96-5.76c0,0,45.87,16.9,64.68,10.01m-4.46,7.61c-9.85,31.34,11.86,62.64,11.86,62.64,6.79-36.19-8.34-67.78-8.34-67.78m-15.13,28.17c-9.65,29.56,11.48,49.98,11.48,49.98,7.97-30.65-10.9-50.74-10.9-50.74m9.81-20.57c-23.19-12.02-59.2,2.48-59.2,2.48,29.17,7.01,44.05,7.94,57.76.11m-5.39,10.74s-24.9-10.63-52.62,3.37c0,0,29.26,12.32,51.15.07m-4.58,10.59c-19.57-10.32-39.9,18.03-39.9,18.03,36.9.56,42.28-23.17,42.28-23.17m-4.79,27.89c-27.79,8.4-20.07,33.95-20.07,33.95,24.14-12.43,20.6-53.76,20.6-53.76"/>
    <path class="cls-44" d="m2384.38,1372.97c-27.17-62.43-89.03-89.6-89.03-89.6,0,0,73.11,36.24,89.57,80.61l-.54,8.99Zm-12.95-23.84s-24.82-12.16-62.17,22.67c0,0,53.89-2.23,63.28-20.88m2.94-4.55s10.18-4.03,17.02-18.36l4.51-33.75c-21.52,21.04-23.27,48.88-23.27,48.88m7.76-82.22c-27.82,26.38-24.23,65.05-24.23,65.05m4.9,4.42s23.39-4.41,19.32-69.48m-22.54,72.59s-43.76-4.31-67.13,28.23c0,0,59.3-7.71,70.91-24.41m-12.84-14.79s-25.84-14.59-74.69,18.39c0,0,62.45.96,77.09-15.85m-15.36-14.54s-25.16-10.91-71.45,6.15c0,0,53.21,7.64,74.63-3.32m3.84.5s21.49-26.49,14.02-70.33c0,0-22.78,57.13-18.15,67.85m-10.5-8.04s18.13-22.49,8.88-66.62c0,0-19.03,45.03-13.02,64.14m-7.39-4.82c-30.84-11.3-63.12,8.91-63.12,8.91,35.84,8.48,68.09-5.16,68.09-5.16m-27.43-16.44c-29.08-11.02-50.46,9.13-50.46,9.13,30.24,9.39,51.2-8.51,51.2-8.51m20.09,10.76c13.09-22.6.3-59.25.3-59.25-8.36,28.81-10,43.63-2.81,57.69m-10.48-5.89s11.78-24.37-.9-52.72c0,0-13.67,28.65-2.47,51.09m-10.37-5.07c11.23-19.06-16.14-40.7-16.14-40.7-2.29,36.83,21.17,43.32,21.17,43.32m-27.64-6.09c-7.09-28.15-32.98-21.63-32.98-21.63,11.28,24.7,52.74,23.09,52.74,23.09"/>
    <path class="cls-36" d="m1971.37,157.35c9.81,40.31,88.15,63.65,88.15,63.65l68.03.02s-16.92-36.52-66.4-55c-3.86-1.44-20.75-8.62-63.38-21.89,0,0-40.57-15.21-60.62-13.81,0,0,29.95,9.51,34.21,27.03Z"/>
    <path class="cls-44" d="m1732.15.38c46.45,25.19,74.96,111.71,74.96,111.71,0,0-20.27-72.66-84.98-112.53l10.02.83Zm12.5,15.73c-22.09,7.44-33.06,66.64-33.06,66.64,44.38-35.78,34.86-65.13,34.86-65.13m6.98-1.61s31.05,2.46,57.69-18.01l-38.01-.34c-16.91,5.3-22.97,15.91-22.97,15.91m19.66,23.34s42.18,10.08,75.72-16.51m0,0c-71.27-14.76-79.83,10.39-79.83,10.39m-7.57-1.7c-20.28,10.19-38.16,74.51-38.16,74.51,39.64-20.7,41.79-69.74,41.79-69.74m8.28,8.69c-20.89,13.53-29.68,82.7-29.68,82.7,44.16-48.78,32.11-79.64,32.11-79.64m8.6,12.25c-15.5,21.95-15.45,81.96-15.45,81.96,26.16-48.46,18.07-77.99,18.07-77.99m-.49-3.33c11.12,6.81,77.85-9.36,77.85-9.36-47.27-15.18-79.94,4.4-79.94,4.4m11.4,22.8c20.17,9.65,72.94-4.27,72.94-4.27-47.31-17.18-75.02-.69-75.02-.69m2.88,7.81s-20.16,33.5-16.44,74.44c0,0,27.44-32.48,19.81-68.36m9.9,25.91s-23.1,20.33-17.49,55.24c0,0,25.65-20.45,18.05-54.32m-7.97-21.79c14.41,10.16,31.04,10.69,64.2,5.99,0,0-38.48-19.92-65.52-9.02m7.45,19.52c23.03,15.93,56.85,5.33,56.85,5.33-29.33-18.49-58.12-9.32-58.12-9.32m3.13,10.28s3.47,26.94,44.53,30.23c0,0-19.59-33.66-42.43-24.26m1.78,3.47s-8.31,45.56,17.2,61.93c0,0,11.28-27.59-18.71-39.86"/>
    <path class="cls-16" d="m1630.59,8.18c-2.11-1,6.19-8.52,6.19-8.52,0,0-58.39-2.18-59.43-2.1,0,0,1.3,7.42.56,14.34l-10.38-14.97-39.77-2.02s-2.77,15,.43,17.06c3.2,2.06,2.36,6.7,2.36,6.7,0,0-4.23-1.99-5.16.36s.54,12.55.54,12.55c0,0,21.59,20.23,31.82,17.22,0,0-7.08,3.93-18.59,1.31-11.51-2.62-12.41-8.54-12.41-8.54,0,0-12.27-12.24-18.37,14.52-6.1,26.76,15.19,16.87,15.19,16.87,0,0,3.25,3.21-2.85,5.92-6.1,2.72-16.16,2.93-20.58-3.62-4.43-6.56-18.95,10.72-18.95,10.72,0,0-14.71,8.17-9.16,16.94,5.56,8.77,12.1,16.32,33.69,12.51l-13.28,4.37s-4.08,1.43-8.26.58c-4.18-.85,3.79,15.76,3.79,15.76,0,0,6.29,1.85,10.28-1.87,3.98-3.71-5.8,9.57-5.8,9.57,0,0-6.98,6.22-4.87,7.21s7.18-1.65,7.18-1.65c0,0-5.85,8.43-4.52,15.2,1.33,6.77,19.97,6.61,19.97,6.61,0,0-3.54,13.99,21.74,23.65,0,0,8.85-10.93,1.62-34.46l-.98-22.82c.39,9.13,7.97,16.61,7.97,16.61-1.43-33.1-8.95-39.43-9-40.58l13.97,11.61c-5.7-12.19-1.08-25.11-1.08-25.11-1.48,13.84,9.79,34.8,9.79,34.8,2.75-8.21.54-11.49-4.47-31.74-5.02-20.25,5.8-9.57,5.8-9.57-.05,22.9,13.77,31.08,13.77,31.08,1.87-28.75-3.15-24.96-5.8-38.51-2.66-13.55,3.39-17.41,3.39-17.41,3.44,31.81,10.97,38.15,10.97,38.15,0,0,4.18.85,12-10,7.82-10.85-3.39-30.67-3.39-30.67l.89-3.5c2.51,10.13,6.79,13.26,6.79,13.26,7.62-15.42-1.52-35.38-1.57-36.52-1.47-34.2,7.03-5.07,7.03-5.07-5.16,24.4,13.68,28.69,13.68,28.69,9.54-18.99.25-34.43.25-34.43"/>
    <path class="cls-38" d="m1323.3,208.44s72.76-20.19,73.62-36.29c.72-13.4-5.48-6.63-5.48-6.63-13.76,18.02-72.05,30.17-72.05,30.17l65.71-34.73c5.7-4.41,1.64-5.13,1.64-5.13,0,0-8.6-.76-21.31,10.53-12.26,10.89-68.33,11.86-68.33,11.86m0,0c17.96-15.31,87.44-25.24,80.81-33.79l-74.03,2.24,70.92-16.05c-1.9-2.39-4.73-3.86-7.76-4.29-39.79-5.73-85.1,7.86-85.1,7.86,15.9-16.16,47.1-14.36,71.25-13.07,24.15,1.3,8.55-6.62,8.55-6.62-30.06-13.91-76.95,3.45-76.95,3.45,12.55-20.94,59-16.21,59-16.21,0,0-36.11-14.48-53.07-13.28-8.08.57,31.57-7.25,31.57-7.25,0,0-1.85-11.9-30.91-11.85,0,0,20.59-6.47,39.97-1.83,0,0-6.2-24.81,1.59-34.2,0,0,13.59,36.13,12.24,31.21-2.65-9.64,7.85-16.6,7.85-16.6-3.57,6.27,2.34,18.88,2.34,18.88.51-21.09,16.19-26.21,16.19-26.21l-9.29,38.75c.3-24.08,26.03-42.95,26.03-42.95-23.31,24.71-20.7,61.62-20.7,61.62,13.85-45.09,51.75-47.78,51.75-47.78,0,0-22.02,14.59-38.35,38.81-16.33,24.21-1.23,39.19-1.23,39.19-5.39-33.7,46.42-66.45,46.42-66.45-15.48,36.18-33.09,56.48-39.37,66.95-6.28,10.47,3.13,15.82,3.13,15.82,3.72-32.34,43.15-70.22,43.15-70.22-14.78,46.16-32.81,60.47-37.09,70.8-4.28,10.33,1.7,9.9,1.7,9.9,15.06-42.17,62.23-55.54,62.23-55.54-26.25,10.57-56.89,60.17-56.75,62.16.14,2,5.55,7.63,5.55,7.63,15.62-34.19,58.03-58.25,58.03-58.25-11.06,27.85-37.65,48.78-47.91,59.53-10.27,10.75.78,10.97.78,10.97,28.79-18.08,55.18-56.04,55.18-56.04-15.42,51.22-51.76,61.81-51.76,61.81,0,0,40.46,19.19,56.84,24.04,2.16.64,2.86,9.31.64,8.98-18.24-2.72-62.18-28.68-62.18-28.68,0,0-10.06,27.78-81.38,25.81,0,0,67.69-6.8,72.91-32.23,0,0-.35-4.99-3.42-5.77s-7.14,26.57-83.16,28.95"/>
    <path class="cls-17" d="m1139.64,213.17c2.16.93-5.82,8.97-5.82,8.97,0,0,58.45-.1,59.48-.22,0,0-1.62-7.54-1.19-14.65l11.02,14.91,39.83.48s2.12-15.46-1.17-17.45c-3.28-1.99-2.65-6.77-2.65-6.77,0,0,4.31,1.87,5.14-.58.83-2.45-1.09-12.83-1.09-12.83,0,0-22.46-19.84-32.55-16.35,0,0,6.9-4.31,18.52-2.08s12.78,8.25,12.78,8.25c0,0,12.79,12.04,17.72-15.6,4.93-27.63-15.92-16.66-15.92-16.66,0,0-3.38-3.15,2.59-6.18,5.98-3.03,16.02-3.65,20.73,2.89,4.71,6.53,18.46-11.73,18.46-11.73,0,0,14.34-8.95,8.41-17.7-5.94-8.75-12.8-16.22-34.21-11.46l13.08-5s4.02-1.63,8.23-.93c4.21.7-4.47-15.98-4.47-15.98,0,0-6.37-1.64-10.19,2.32-3.82,3.96,5.38-10.02,5.38-10.02,0,0,6.71-6.64,4.55-7.58-2.16-.93-7.1,1.98-7.1,1.98,0,0,5.48-8.86,3.86-15.74s-20.24-5.97-20.24-5.97c0,0,2.93-14.46-22.75-23.34,0,0-8.37,11.54-.12,35.33l1.98,23.32c-.79-9.33-8.69-16.68-8.69-16.68,2.87,33.82,10.66,40.01,10.76,41.17l-14.46-11.32c6.23,12.25,2.18,25.66,2.18,25.66.87-14.23-11.3-35.23-11.3-35.23-2.39,8.51-.04,11.78,5.86,32.31,5.9,20.53-5.38,10.02-5.38,10.02-.95-23.44-15.11-31.26-15.11-31.26-.61,29.5,4.23,25.42,7.48,39.19,3.24,13.76-2.63,17.96-2.63,17.96-4.83-32.42-12.62-38.61-12.62-38.61,0,0-4.21-.7-11.55,10.72-7.34,11.42,4.73,31.26,4.73,31.26l-.73,3.61c-2.95-10.26-7.36-13.3-7.36-13.3-6.94,16.09,3.07,36.15,3.16,37.32,2.96,34.95-6.81,5.47-6.81,5.47,4.1-25.18-14.92-28.82-14.92-28.82-8.71,19.82,1.25,35.25,1.25,35.25"/>
    <path class="cls-24" d="m1137.96,53.73s15.56,14.12,15.69,30.12c.1,12.01-7.95,19.14-12.43,21.52-1.56.83-6.29,1.31-8.9.55-5.7-1.66-18.69-4.96-10.07-16.64,3.39-4.6,15.71-35.55,15.71-35.55Zm1.59-.01c-1.63.73,13.29,17.85,15.29,21.3,5.11,8.78,15.28,20.04,26.45-1.47,11.17-21.51-21.66-28.81-41.75-19.82Zm-39.08-2.2c-17.59,6.44-4.74,36.58,11.59,30.15,16.33-6.43,26.24-27.94,26.24-27.94,0,0-20.23-8.66-37.82-2.21Zm37.81.95s23.94-.19,28.89-11.58c0,0,8.7-15.19,1.03-28.99-5.61-10.09-14.46-3.31-18.8,1.07-1.69,1.7-2.98,3.72-3.83,5.96-2.16,5.67-6.46,18.58-7.28,33.55Zm0,0s1.21-5.87,1.2-7.57c-.05-6.3,2.4-15.14-7.78-27.66-5.67-6.97-11.59-5.8-15.17-6.18-2.09-.22-7.1,1.52-9,2.43-5.29,2.52-15.45,9.31-3.4,20.67,1.44,1.36,3.18,2.38,5.07,2.99,4.3,1.39,13.17,3.94,17.68,6.59,6.33,3.73,11.41,8.73,11.41,8.73Z"/>
    <path class="cls-40" d="m1132.18,154.82c-8.88,40.52-86.66,65.65-86.66,65.65l-68.01,1.58s16.08-36.9,65.12-56.51c3.83-1.53,20.55-9.09,62.86-23.34,0,0,40.21-16.14,60.28-15.19,0,0-29.72,10.2-33.58,27.81Z"/>
    <path class="cls-38" d="m995.72,171.3s-56.07.99-68.71-9.47c-13.09-10.84-21.66-9.78-21.66-9.78,0,0-4.03.86,1.82,5.07l66.88,32.41s-58.68-10.11-73.06-27.63c0,0-6.43-6.55-5.25,6.82,1.43,16.06,74.84,33.7,74.84,33.7m0,0c-76.06.28-81.09-26.92-84.12-26.03-3.03.89-3.21,5.89-3.21,5.89,6.1,25.23,73.99,29.67,73.99,29.67-71.21,4.45-82.23-22.96-82.23-22.96,0,0-43.01,27.48-61.14,30.83-2.21.41-1.81-8.28.32-8.99,16.2-5.42,55.97-26.01,55.97-26.01,0,0-36.69-9.32-53.89-59.97,0,0,27.69,37.01,57.1,54.08,0,0,11.03-.61.39-10.99-10.63-10.39-37.94-30.38-49.96-57.83,0,0,43.22,22.56,60.03,56.18,0,0,5.21-5.82,5.28-7.82s-32.28-50.5-58.88-60.15c0,0,47.61,11.71,64.13,53.33,0,0,6,.21,1.36-9.96-4.64-10.17-23.16-23.84-39.54-69.46,0,0,40.72,36.48,45.57,68.68,0,0,9.21-5.67,2.57-15.92-6.64-10.24-24.95-29.91-41.68-65.53,0,0,52.93,30.91,48.71,64.79,0,0,14.56-15.49-2.6-39.12-17.17-23.63-39.69-37.44-39.69-37.44,0,0,37.98,1.36,53.39,45.94,0,0,1.32-36.98-22.84-60.86,0,0,26.37,17.96,27.51,42.01l-10.63-38.41s15.85,4.57,17.09,25.63c0,0,5.46-12.81,1.68-18.95,0,0,10.73,6.58,8.42,16.31-1.18,4.96,11.14-31.62,11.14-31.62,8.11,9.11,2.78,34.12,2.78,34.12,19.2-5.32,40.01.43,40.01.43-29.05.96-30.48,12.92-30.48,12.92,0,0,39.89,6.43,31.8,6.14-16.99-.61-52.58,15.13-52.58,15.13,0,0,46.26-6.35,59.53,14.14,0,0-47.47-15.71-77.02-.76,0,0-15.31,8.46,8.78,6.32,24.09-2.14,55.22-5.03,71.67,10.57,0,0-45.75-12.01-85.32-4.89-3.01.54-5.78,2.11-7.6,4.56l71.44,13.57-74.06.35c-6.32,8.78,63.46,16.28,81.94,30.95"/>
    <path class="cls-44" d="m688.1,2.31c33.51,40.85,27.28,131.73,27.28,131.73,0,0,8.63-74.94-36.25-136.28l8.96,4.54Zm5.64,19.28c-23.27-1.44-55.76,49.25-55.76,49.25,54.6-16.39,56.85-47.17,56.85-47.17m7.08,1.14s27.83,13.99,60.23,5.08l-35.08-14.65c-17.66-1.47-27.28,6.07-27.28,6.07m9.41,29.03s35.26,25.24,76.35,13.27m0,0c-60.44-40.55-77.85-20.49-77.85-20.49m-6.37-4.43c-22.63,1.79-63.45,54.61-63.45,54.61,44.52-4.21,65.01-48.82,65.01-48.82m4.39,11.17c-24.45,4.65-58.69,65.39-58.69,65.39,59.29-28.52,59.78-61.64,59.78-61.64m3.34,14.58c-22.63,14.48-45.22,70.07-45.22,70.07,42.51-35.02,46.15-65.41,46.15-65.41m.81-3.26c7.73,10.5,75.63,20.7,75.63,20.7-38.05-31.89-75.69-26.08-75.69-26.08m1.96,25.42c15.04,16.55,69.16,23.56,69.16,23.56-37.33-33.75-69.22-28.94-69.22-28.94m-.28,8.32s-31.31,23.42-43.31,62.74c0,0,37.66-19.73,44.13-55.83m-.6,27.73s-29.06,10.11-37.03,44.56c0,0,31.47-9.27,37.21-43.5m.84-23.18c9.51,14.84,24.71,21.61,57.2,29.77,0,0-28.12-32.96-57.28-33.07m-.47,20.88c15.32,23.44,50.64,26.39,50.64,26.39-20.19-28.19-50.32-30.55-50.32-30.55m-.97,10.7s-6.95,26.26,29.84,44.79c0,0-5.44-38.57-30.14-38.48m.34,3.88s-24.89,39.06-7.43,63.84c0,0,20.86-21.29-2.29-43.97"/>
    <path class="cls-39" d="m474.65,9.55c1.77-.85-5.16-7.31-5.16-7.31,0,0,48.87-1.84,49.74-1.77,0,0-1.11,6.36-.51,12.29L527.44-.07l33.29-1.71s2.28,12.86-.4,14.63c-2.68,1.77-1.99,5.74-1.99,5.74,0,0,3.54-1.7,4.32.31.78,2.02-.49,10.76-.49,10.76,0,0-18.12,17.33-26.68,14.74,0,0,5.92,3.38,15.55,1.13s10.41-7.31,10.41-7.31c0,0,10.3-10.48,15.33,12.46,5.03,22.94-12.76,14.45-12.76,14.45,0,0-2.73,2.75,2.37,5.08,5.1,2.33,13.51,2.52,17.24-3.09,3.72-5.62,15.82,9.2,15.82,9.2,0,0,12.29,7.01,7.61,14.53-4.68,7.51-10.17,13.98-28.23,10.7l11.1,3.75s3.41,1.23,6.91.5c3.5-.73-3.21,13.51-3.21,13.51,0,0-5.27,1.58-8.6-1.61-3.32-3.19,4.83,8.2,4.83,8.2,0,0,5.83,5.33,4.05,6.18s-6-1.42-6-1.42c0,0,4.87,7.23,3.74,13.03-1.13,5.81-16.73,5.65-16.73,5.65,0,0,2.92,11.99-18.26,20.26,0,0-7.38-9.37-1.26-29.54l.89-19.57c-.36,7.83-6.71,14.23-6.71,14.23,1.29-28.37,7.6-33.8,7.65-34.78l-11.72,9.94c4.81-10.45.98-21.52.98-21.52,1.2,11.87-8.29,29.83-8.29,29.83-2.28-7.04-.42-9.85,3.84-27.21s-4.83-8.2-4.83-8.2c-.02,19.63-11.61,26.64-11.61,26.64-1.48-24.65,2.7-21.4,4.97-33.01,2.26-11.61-2.79-14.93-2.79-14.93-2.97,27.27-9.29,32.7-9.29,32.7,0,0-3.5.73-10.01-8.58-6.51-9.31,2.93-26.29,2.93-26.29l-.73-3c-2.13,8.68-5.72,11.36-5.72,11.36-6.34-13.22,1.38-30.33,1.42-31.31,1.33-29.32-5.87-4.35-5.87-4.35,4.25,20.92-11.53,24.59-11.53,24.59-7.93-16.28-.11-29.52-.11-29.52"/>
    <path class="cls-38" d="m424.49,24.05s-73.67,16.56-75.33,32.6c-1.38,13.35,5.15,6.89,5.15,6.89,14.64-17.31,73.45-26.56,73.45-26.56l-67.35,31.43c-5.91,4.13-1.89,5.04-1.89,5.04,0,0,8.55,1.18,21.8-9.46s68.84-8.46,68.84-8.46m0,0c-18.7,14.4-88.58,20.88-82.39,29.75l74.05,1.43-71.63,12.52c1.78,2.48,4.54,4.09,7.53,4.67,39.46,7.7,85.38-3.64,85.38-3.64-16.68,15.36-47.76,12.01-71.81,9.52-24.06-2.49-8.87,6.19-8.87,6.19,29.33,15.38,77.03.37,77.03.37-13.57,20.29-59.73,13.27-59.73,13.27,0,0,35.35,16.26,52.35,15.9,8.1-.17-31.89,5.68-31.89,5.68,0,0,1.25,11.98,30.29,13.36,0,0-20.89,5.44-40.01-.15,0,0,4.96,25.09-3.28,34.08,0,0-11.78-36.76-10.67-31.78,2.17,9.76-8.66,16.19-8.66,16.19,3.87-6.08-1.4-18.97-1.4-18.97-1.56,21.04-17.47,25.38-17.47,25.38l11.19-38.25c-1.49,24.04-28.13,41.6-28.13,41.6,24.51-23.52,23.73-60.52,23.73-60.52-16.07,44.35-54.06,45.15-54.06,45.15,0,0,22.72-13.48,40.23-36.86s3.17-39.08,3.17-39.08c3.72,33.93-49.66,64.06-49.66,64.06,17.26-35.37,35.85-54.77,42.64-64.92,6.79-10.15-2.34-15.95-2.34-15.95-5.32,32.12-46.57,68-46.57,68,17.04-45.37,35.76-58.77,40.55-68.87,4.79-10.1-1.21-9.98-1.21-9.98-17.13,41.37-64.91,52.38-64.91,52.38,26.75-9.26,59.8-57.28,59.76-59.28s-5.17-7.89-5.17-7.89c-17.3,33.37-60.84,55.3-60.84,55.3,12.43-27.27,40.02-46.86,50.8-57.09,10.79-10.23-.23-11-.23-11-29.65,16.63-57.89,53.24-57.89,53.24,17.94-50.39,54.76-59.17,54.76-59.17,0,0-39.46-21.17-55.58-26.83-2.12-.75-2.4-9.44-.19-9,18.08,3.62,60.68,31.72,60.68,31.72,0,0,11.43-27.25,82.56-21.75,0,0-67.94,3.44-74.41,28.58,0,0,.11,5,3.13,5.94,3.02.94,8.45-26.18,84.49-24.79"/>
    <path class="cls-30" d="m614.35,176.3s10.92,9.9,11.01,21.12c.07,8.42-5.58,13.42-8.72,15.1-1.1.59-4.41.92-6.24.39-4-1.17-13.11-3.48-7.07-11.67,2.38-3.23,11.02-24.94,11.02-24.94Zm1.11,0c-1.14.51,9.32,12.52,10.73,14.94,3.59,6.16,10.72,14.06,18.55-1.03,7.83-15.09-15.19-20.21-29.28-13.91Zm-27.41-1.55c-12.34,4.52-3.33,25.66,8.13,21.15s18.4-19.6,18.4-19.6c0,0-14.19-6.07-26.53-1.55Zm26.52.67s16.79-.14,20.26-8.12c0,0,6.1-10.66.72-20.34-3.94-7.08-10.14-2.32-13.19.75-1.18,1.19-2.09,2.61-2.69,4.18-1.52,3.98-4.53,13.03-5.1,23.53Zm0,0s.85-4.12.84-5.31c-.04-4.42,1.68-10.62-5.46-19.4-3.97-4.89-8.13-4.07-10.64-4.33-1.47-.15-4.98,1.07-6.31,1.7-3.71,1.77-10.84,6.53-2.38,14.5,1.01.96,2.23,1.67,3.56,2.1,3.01.97,9.24,2.76,12.4,4.62,4.44,2.62,8,6.12,8,6.12Z"/>
    <path class="cls-22" d="m1074.4,103.12C1083.85,32.16,1016.14-.08,1016.14-.08c0,0,.24.97.19,1.29-2.01,11.38-47.97,64.57,58.08,101.92Z"/>
    <path class="cls-14" d="m970.44.97s31.52,75.45,48.57,85.36"/>
    <path class="cls-23" d="m524.28,218.7c12.9-96.92-79.57-140.96-79.57-140.96,0,0,.33,1.32.25,1.76-2.75,15.54-65.51,88.19,79.32,139.2Z"/>
    <path class="cls-12" d="m449.22,88.74s43.04,103.04,66.33,116.59"/>
    <path class="cls-5" d="m1890.67,68.24s-12.04.8-11.99,3.65,13.72,3.17,13.72,3.17l10.63-.2c2.38-.04,4.74-.42,6.88-1.17,3.28-1.15,6.73-3,1.66-4.69-8.09-2.7-20.91-.75-20.91-.75Z"/>
    <path class="cls-21" d="m792.28,212.97c27.2-15.06,27.8-29.66,27.8-29.66-29.09,4.8-39.07,22.99-39.07,22.99l1.64-4.32s12.55-18.24,14.8-37.16c.75-6.35-15.95,20.01-15.95,20.01,7.38-19.86,2-32.64,2-32.64-19.45,16.64-18.89,48.38-18.89,48.38-9.98-30.72-26.32-33.01-26.32-33.01,3.9,26.53,21.49,51.11,21.49,51.11l52.31-1.77s-19.83-5.66-24.05-1.3l4.24-2.65Z"/>
    <path class="cls-38" d="m1712.08,88.02s-8.22,37.1-17.12,43.76c-9.22,6.91-9.87,12.72-9.87,12.72,0,0-.07,2.79,3.63-.4l31.95-38.93s-15.95,37.06-29.77,43.75c0,0-5.33,3.2,3.66,4.54,10.81,1.6,34.05-43.97,34.05-43.97m0,0c-11.86,50.15-30.58,49.16-30.47,51.3.11,2.14,3.37,3.05,3.37,3.05,17.59-.02,31.26-44.04,31.26-44.04-8.34,47.62-28.15,50.54-28.15,50.54,0,0,11.29,32.69,10.63,45.16-.08,1.52-5.74-.12-5.87-1.64-1.01-11.53-8.28-40.99-8.28-40.99,0,0-11.95,22.7-48.04,26.01,0,0,28.77-12.38,44.67-29.05,0,0,1.35-7.36-7.18-2s-26.02,20.18-46.01,23.76c0,0,21.71-24.9,46.52-30.65,0,0-3.01-4.35-4.31-4.72-1.31-.36-38.38,13.27-48.95,29.27,0,0,15.26-29.51,45.29-33.81,0,0,1.09-3.92-6.35-2.47-7.44,1.45-19.38,11.48-52.02,15.05,0,0,30.48-21.05,52.46-19.15,0,0-2.28-6.97-10.08-4.21-7.8,2.75-23.66,11.7-49.77,17.08,0,0,28.75-29.97,50.39-21.83,0,0-7.9-12.05-26.18-4.48-18.29,7.57-30.95,20.22-30.95,20.22,0,0,6.91-24.8,38.72-27.9,0,0-24.15-6.73-43.71,5.41,0,0,16.01-14.53,32.03-11.47l-26.99.92s5.52-9.72,19.59-7.2c0,0-7.58-5.63-12.22-4.11,0,0,6.04-6.03,12.08-2.97,3.08,1.56-19.07-12.35-19.07-12.35,7.28-3.9,22.92,3.57,22.92,3.57-.46-13.49,6.62-26.29,6.62-26.29-3.97,19.29,3.68,22.13,3.68,22.13,0,0,10.55-25.26,9.08-19.98-3.09,11.1,1.64,37.03,1.64,37.03,0,0,3.14-31.48,18.74-36.98,0,0-17.87,28.78-12.7,50.62,0,0,3.15,11.43,5.55-4.78s5.43-37.17,18.31-45.54c0,0-15.16,28.24-16.73,55.44-.12,2.07.47,4.14,1.8,5.73l20.25-44.91-11.5,48.85c4.78,5.55,20.78-39.23,33.37-49.08"/>
    <path class="cls-21" d="m2191.7,1142.82c14.69,27.4,29.28,28.2,29.28,28.2-4.4-29.15-22.46-39.38-22.46-39.38l4.3,1.7s18.07,12.8,36.95,15.3c6.34.84-19.8-16.23-19.8-16.23,19.76,7.65,32.61,2.45,32.61,2.45-16.38-19.67-48.12-19.55-48.12-19.55,30.85-9.56,33.36-25.87,33.36-25.87-26.58,3.53-51.4,20.79-51.4,20.79l1.06,52.33s5.93-19.76,1.62-24.03l2.59,4.28Z"/>
  </g>
</svg>