<?xml version="1.0" encoding="UTF-8"?>
<svg id="Layer_1" data-name="Layer 1" xmlns="http://www.w3.org/2000/svg" viewBox="0 0 153.18 240.79">
  <defs>
    <style>
      .cls-1 {
        fill: none;
        stroke: #231f20;
        stroke-miterlimit: 10;
        stroke-width: .94px;
      }
    </style>
  </defs>
  <path class="cls-1" d="m78.25,52.71s-1.15,11.61-10.44,10.45c-9.28-1.15-8.14-19.72-8.14-19.72,0,0,9.29,5.79,16.25-.01,0,0-1.15,8.12,2.33,9.28Z"/>
  <path class="cls-1" d="m128.19,107.21c-1.16,0-15.09-5.79-20.9-10.43-5.81-4.64-18.57-8.11-18.57-8.11,0,0-5.8,0-5.8,8.13,0,8.12,3.49,15.08,3.49,15.08,0,0,8.13,11.6-1.13,30.17,0,0-12.75,22.06-20.87,26.71,0,0,12.77,5.79,9.31,27.84,0,0-2.31,18.57.02,24.37,0,0,2.32,1.16.01,15.09h-1.16s0-8.12,0-8.12c0,0-4.64,6.97-5.79,10.45s-17.41,1.18-17.41,1.18"/>
  <path class="cls-1" d="m132.4,100.26c4.82,4.46,3.91,2.3,3.91,2.3,0,0,3.48,0,4.64,1.16,1.16,1.16,0,2.32,0,2.32l5.45.77c.8.11.96,1.21.22,1.54-1.31.58-2.76,1.17-3.35,1.17-1.16,0,4.65,5.8,8.13,4.63,2.52-.84.78,1.97-.37,3.59-.52.73-1.27,1.25-2.13,1.45-1.99.47-5.83.9-9.1-1.55-4.64-3.48-3.48-2.32-4.64-3.48,0,0,0,2.32-2.32,1.16-2.32-1.16-.43-4.62-1.6-5.78-1.16-1.16-3.48-2.32-3.48-2.32"/>
  <path class="cls-1" d="m52.93,163.86s-4.78-25.26-4.79-29.9c0-4.64-1.17-12.76,4.62-23.21,2.79-5.04,3.97-9.26,4.44-12.29.4-2.57.9-7.41-.24-9.74-1.9-3.88-5.45-9.56.42-16.27,0,0,2.32-2.32-2.33-5.8-4.64-3.48-13.93-9.27-13.93-9.27,0,0-11.61-3.47-15.94-7.74-.12-.11-.21-.25-.31-.37,0,0-9.29-5.79-10.45-5.79S.48,38.85.47,27.24c0,0,0-2.32,3.48,1.16,3.48,3.48,4.65,5.8,5.81,5.8,0,0,2.32,0,1.16-1.16s-1.16-4.64-1.16-4.64c0,0,4.65,4.64,6.97,6.96,2.32,2.32,11.61,4.63,11.61,4.63,3.48,0,17.42,9.27,17.42,9.27,0,0,15.07,5.04,15.08,6.58"/>
  <path class="cls-1" d="m73.63,182.14s11.7,13.3,12.87,19.1c1.17,5.8-1.15,13.93-1.15,13.93,0,0-4.63,8.13-3.47,9.29,1.16,1.16,11.6-1.17,12.76-5.81,1.16-4.64,1.15-11.61,3.47-10.45l2.33,5.8,1.16-1.16s-3.49-5.8-2.33-9.28c1.16-3.48-4.65-8.12-4.65-8.12,0,0-3.48-1.16-6.98-16.24s-15.1-18.55-15.1-18.55"/>
  <path class="cls-1" d="m84.79,66.65s-4.63,17.41,1.18,23.21"/>
  <path class="cls-1" d="m66.22,63.18s-4.63,8.13-8.12,8.13"/>
  <path class="cls-1" d="m81.92,65.12s-5.24,11.98-13.37,8.5c-6.22-2.66,0-10.44,0-10.44"/>
  <path class="cls-1" d="m88.32,117.7c-6.96-1.15-18.57-2.31-23.93,8.12-3.09,6.02-10.42,33.66-10.42,33.66-3.47,12.77-2.31,17.41-2.31,17.41,0,0,2.33,6.96,8.15,25.52,5.82,18.56,2.34,20.89,2.34,20.89,0,0-4.76,7.21-5.79,9.29l-6.57,7.24"/>
  <path class="cls-1" d="m52.77,110.75s9.72,9.25,11.62,15.08"/>
  <path class="cls-1" d="m61.7,208.25s3.9,4.16,11.23-.25"/>
  <path class="cls-1" d="m81.42,193.14s9.34-.77,9.31-3.87"/>
  <path class="cls-1" d="m60.56,225.65v5.8c9.28-5.81,12.28-15.16,12.28-15.16"/>
  <path class="cls-1" d="m56.35,232.6s7.69-2.31,11.18,4.65"/>
  <path class="cls-1" d="m85.35,215.17s4.75-4.14,9.7,1.41"/>
  <path class="cls-1" d="m94.62,195.43s-6.22,16.27-6.22,17.43"/>
  <path class="cls-1" d="m86.64,208.58s2.05,3.6,1.91,5.1"/>
  <path class="cls-1" d="m134.79,184.97c1.12-41.78-25.59-69.61-25.59-69.61,10.45,5.79,29.05,39.43,29.05,39.43-16.3-58.01-55.3-58.46-55.3-58.46"/>
  <path class="cls-1" d="m56.96,93.36s-52.22,1.21-33.59,77.78c0,0,2.29-31.34,5.77-33.66,0,0-6.94,31.34,8.17,55.7,0,0-5.82-23.2-3.51-31.33,0,0,13.41,38.09,11.63,33.64-2.33-5.8-3.5-24.37-3.5-24.37,0,0,13.76,27.91,11.62,22.04-4.65-12.76-9.31-26.68-9.31-26.68,0,0,3.49,5.8,4.65,5.8,0,0-4.65-10.44-1.17-12.76,0,0,1.17,8.12,3.49,10.44"/>
  <path class="cls-1" d="m88.48,134.15s10.3,10.24,8.02,50.86c0,0,2.32-2.32,2.31-15.09,0,0,4.65,12.76,2.34,20.89,0,0,5.79-15.09,2.29-33.66,0,0,6.99,27.85,2.35,37.13,0,0,4.64-4.65,5.79-16.25,0,0,5.81,4.64,3.5,17.4,0,0,10.41-39.47-9.34-60.34,0,0,20.89,2.3,20.93,49.88,0,0,2.3-23.21-.02-29.01-2.33-5.8,6.98,18.56,8.15,27.84"/>
  <path class="cls-1" d="m59.67,43.44s-1.6-8.1,10.01-10.43c0,0,13.92-1.17,12.77,10.43-.8,8.08-3.47,9.29-3.47,9.29v7.59c0,.37.07.74.22,1.08.5,1.22,1.88,4.08,3.71,4.08,0,0,14.66,9.29,17.42,12.75,0,0,15.83,15.09,32.08,22.04"/>
  <path class="cls-1" d="m74.74,32.1C85.71,28.33,91.14.12,87.68.48c-25.5,2.61-15.21,25.04-12.94,31.63"/>
  <path class="cls-1" d="m74.53,32.68c1.52-11.5-19.67-28.36-20.9-25.1-9.06,23.98,14,24.19,20.9,25.1"/>
  <path class="cls-1" d="m74.7,32.56c13.55-14.67,32.84-19.25,31.81-11.9-3.55,25.39-23.9,14.07-32.22,11.83"/>
</svg>