<?xml version="1.0" encoding="UTF-8"?>
<svg id="Layer_1" data-name="Layer 1" xmlns="http://www.w3.org/2000/svg" xmlns:xlink="http://www.w3.org/1999/xlink" viewBox="0 0 153.18 240.59">
  <defs>
    <style>
      .cls-1 {
        fill: #c1a941;
      }

      .cls-1, .cls-2, .cls-3, .cls-4, .cls-5, .cls-6, .cls-7, .cls-8, .cls-9 {
        stroke: #231f20;
        stroke-miterlimit: 10;
      }

      .cls-1, .cls-3, .cls-4, .cls-5, .cls-6, .cls-7, .cls-8 {
        stroke-width: .94px;
      }

      .cls-2 {
        fill: url(#linear-gradient-6);
      }

      .cls-2, .cls-9 {
        stroke-width: .8px;
      }

      .cls-3 {
        fill: url(#linear-gradient-5);
      }

      .cls-4 {
        fill: #d6bf84;
      }

      .cls-5 {
        fill: url(#linear-gradient);
      }

      .cls-6 {
        fill: none;
      }

      .cls-7 {
        fill: url(#linear-gradient-4);
      }

      .cls-8 {
        fill: url(#linear-gradient-3);
      }

      .cls-9 {
        fill: url(#linear-gradient-2);
      }
    </style>
    <linearGradient id="linear-gradient" x1="82.94" y1="145.88" x2="138.25" y2="145.88" gradientUnits="userSpaceOnUse">
      <stop offset="0" stop-color="#f26a49"/>
      <stop offset="1" stop-color="#a12221"/>
    </linearGradient>
    <linearGradient id="linear-gradient-2" x1="19.36" y1="144.61" x2="57.02" y2="144.61" xlink:href="#linear-gradient"/>
    <linearGradient id="linear-gradient-3" x1="79.75" y1=".47" x2="79.75" y2="32.1" gradientUnits="userSpaceOnUse">
      <stop offset=".17" stop-color="#f58874"/>
      <stop offset=".94" stop-color="#822929"/>
    </linearGradient>
    <linearGradient id="linear-gradient-4" x1="51.55" y1="19.92" x2="74.61" y2="19.92" gradientUnits="userSpaceOnUse">
      <stop offset=".18" stop-color="#f58874"/>
      <stop offset=".94" stop-color="#822929"/>
    </linearGradient>
    <linearGradient id="linear-gradient-5" x1="107.83" y1="23.12" x2="75.2" y2="34.99" xlink:href="#linear-gradient-3"/>
    <linearGradient id="linear-gradient-6" x1="53.17" y1="93.37" x2="89.35" y2="93.37" gradientUnits="userSpaceOnUse">
      <stop offset="0" stop-color="#f26a5e"/>
      <stop offset="1" stop-color="#ab3a3b"/>
    </linearGradient>
  </defs>
  <path class="cls-4" d="m78.25,52.71s-1.15,11.61-10.44,10.45c-9.28-1.15-8.14-19.72-8.14-19.72,0,0,9.29,5.79,16.25-.01,0,0-1.15,8.12,2.33,9.28Z"/>
  <path class="cls-4" d="m57.37,72.45s2.32-2.32-2.33-5.8c-4.64-3.48-13.93-9.27-13.93-9.27,0,0-11.61-3.47-15.94-7.74-.12-.11-.21-.25-.31-.37,0,0-9.29-5.79-10.45-5.79S.48,38.85.47,27.24c0,0,0-2.32,3.48,1.16,3.48,3.48,4.65,5.8,5.81,5.8,0,0,2.32,0,1.16-1.16s-1.16-4.64-1.16-4.64c0,0,4.65,4.64,6.97,6.96,2.32,2.32,11.61,4.63,11.61,4.63,3.48,0,17.42,9.27,17.42,9.27,0,0,15.07,5.04,15.08,6.58,0,0,2.52,5.04,5.52,7.04,0,0-6,9-8,8"/>
  <path class="cls-4" d="m53.35,162.87s-5.2-24.26-5.21-28.9c0,0-.79-16.1,4.62-23.21"/>
  <path class="cls-4" d="m72.54,160.64s11.61,3.47,15.1,18.55,6.98,16.24,6.98,16.24c0,0,5.81,4.64,4.65,8.12-1.16,3.48,2.33,9.28,2.33,9.28l-1.16,1.16-2.33-5.8c-2.32-1.16-2.32,5.8-3.47,10.45-1.16,4.64-11.6,6.97-12.76,5.81-1.16-1.16,3.47-9.29,3.47-9.29,0,0,2.31-8.13,1.15-13.93-1.17-5.8-12.15-19.37-12.15-19.37,0,0-3-7-5-8"/>
  <path class="cls-6" d="m66.22,63.18s-4.63,8.13-8.12,8.13"/>
  <path class="cls-4" d="m61.7,208.25s3.9,4.16,11.23-.25"/>
  <path class="cls-4" d="m60.56,225.65v5.8c9.28-5.81,12.28-15.16,12.28-15.16"/>
  <path class="cls-6" d="m85.35,215.17s4.75-4.14,9.7,1.41"/>
  <path class="cls-5" d="m134.79,184.97c1.12-41.78-25.59-69.61-25.59-69.61,10.45,5.79,29.05,39.43,29.05,39.43-16.3-58.01-55.3-58.46-55.3-58.46,0,0,10.66,21.09,5.54,37.81,0,0,10.3,10.24,8.02,50.86,0,0,2.32-2.32,2.31-15.09,0,0,4.65,12.76,2.34,20.89,0,0,5.79-15.09,2.29-33.66,0,0,6.99,27.85,2.35,37.13,0,0,4.64-4.65,5.79-16.25,0,0,5.81,4.64,3.5,17.4,0,0,10.41-39.47-9.34-60.34,0,0,20.89,2.3,20.93,49.88,0,0,2.3-23.21-.02-29.01-2.33-5.8,6.98,18.56,8.15,27.84"/>
  <path class="cls-9" d="m51.23,169.96c-2.32-2.32-3.49-10.44-3.49-10.44-3.48,2.32,1.17,12.76,1.17,12.76-1.16,0-4.65-5.8-4.65-5.8,0,0,4.65,13.92,9.31,26.68,2.14,5.87-11.62-22.04-11.62-22.04,0,0,1.18,18.57,3.5,24.37,1.78,4.44-11.63-33.64-11.63-33.64-2.31,8.13,3.51,31.33,3.51,31.33-15.11-24.36-8.17-55.7-8.17-55.7-3.48,2.32-5.77,33.66-5.77,33.66C4.74,94.57,56.96,93.36,56.96,93.36c0,0,.81,8.23-3.4,16.37s-5.21,8.14-5.21,20.14,5,32,5,32l-2.12,8.09Z"/>
  <path class="cls-4" d="m135.16,114.16c1.16,1.16,0,0,4.64,3.48,3.27,2.45,7.11,2.02,9.1,1.55.87-.2,1.62-.73,2.13-1.45,1.15-1.62,2.89-4.43.37-3.59-3.48,1.16-9.29-4.63-8.13-4.63.58,0,2.04-.59,3.35-1.17.74-.33.58-1.42-.22-1.54l-5.45-.77-8.56-5.77s-19.05-11.39-23.05-15.39c-4.53-4.53-24-18-24-18,0,0-6,14-1,21,0,0,11.15.2,18.58,6.1,7.42,5.9,24.84,13.26,24.84,13.26,0,0,2.32,1.16,3.48,2.32l3.92,4.62Z"/>
  <path class="cls-8" d="m74.74,32.1C85.71,28.33,91.14.12,87.68.48c-25.5,2.61-15.21,25.04-12.94,31.63"/>
  <path class="cls-7" d="m74.53,32.68c1.52-11.5-19.67-28.36-20.9-25.1-9.06,23.98,14,24.19,20.9,25.1"/>
  <path class="cls-3" d="m74.7,32.56c13.55-14.67,32.84-19.25,31.81-11.9-3.55,25.39-23.9,14.07-32.22,11.83"/>
  <path class="cls-2" d="m89.35,116.87c-15-2-25,7-25,7-7-12-11.18-13.57-11.18-13.57,6.82-14.57,3.91-21.23,3.91-21.23-7.28-5.8-1.72-16.2.28-17.2,1.79-.89,9-9,9-9,0,0,2.37.17,1.87,1.2-.87,1.8-3.51,6.53-2.87,7.8,1,2,12,5,16.22-5.81,0,0,4.46.12,3.78.81,0,0-6,14-1,21,0,0-3.78,6.39,0,13,4,7,5,16,5,16Z"/>
  <path class="cls-4" d="m52.77,110.75s5.29,1.77,11.58,14.12l-4.56,14.2s-6.44,16.8-6.44,22.8"/>
  <path class="cls-4" d="m66.54,237.25c-3.49-6.96-11.18-4.65-11.18-4.65l-6.21,6.77s16.25,2.31,17.41-1.18,5.79-10.45,5.79-10.45v8.12s1.17,0,1.17,0c2.31-13.93-.01-15.09-.01-15.09-2.33-5.8-.02-24.37-.02-24.37,2.87-20.54-9.31-27.84-9.31-27.84,8.12-4.65,20.87-26.71,20.87-26.71,5.69-8.01,4.31-24.99,4.31-24.99h-2c-7,0-17.6-1.47-22.97,8.96-3.09,6.02-10.42,33.66-10.42,33.66-3.47,12.77-2.31,17.41-2.31,17.41,0,0,2.33,6.96,8.15,25.52,5.82,18.56,2.34,20.89,2.34,20.89,0,0-2.8,3.82-4.8,6.56l-2,3"/>
  <path class="cls-4" d="m72.54,160.64s-6.29,7.69-7.74,7.46,4.55,5.77,4.55,5.77"/>
  <path class="cls-1" d="m75.35,45.87c-2,5,4,8,4,8,0,0,6-12,1-18s-13-4-13-4c-10,2-8,12-8,12,0,0,4,3,11.46,1.9,0,0,3.54-.9,5.54-2.9l-1,3Z"/>
  <path class="cls-4" d="m68.58,63.29c5.23,1.42,8.89-7.14,8.89-7.14,0,0-3.12,9.71,3.88,9.71,0,0-1.99,9.9-11,9-10-1-1.77-11.58-1.77-11.58Z"/>
</svg>