<?xml version="1.0" encoding="UTF-8"?>
<svg id="Layer_1" data-name="Layer 1" xmlns="http://www.w3.org/2000/svg" xmlns:xlink="http://www.w3.org/1999/xlink" viewBox="0 0 77.75 217.98">
  <defs>
    <style>
      .cls-1 {
        fill: #51504c;
      }

      .cls-1, .cls-2, .cls-3, .cls-4, .cls-5, .cls-6, .cls-7, .cls-8, .cls-9, .cls-10, .cls-11, .cls-12, .cls-13 {
        stroke: #231f20;
        stroke-miterlimit: 10;
      }

      .cls-1, .cls-4, .cls-5, .cls-9, .cls-12, .cls-13 {
        stroke-width: .93px;
      }

      .cls-2 {
        fill: #e5cf1d;
      }

      .cls-2, .cls-3, .cls-6, .cls-7, .cls-8, .cls-10, .cls-11 {
        stroke-width: .95px;
      }

      .cls-3, .cls-4 {
        fill: #d51a21;
      }

      .cls-5 {
        fill: #0fa24a;
      }

      .cls-6 {
        fill: #2e4099;
      }

      .cls-7, .cls-9 {
        fill: none;
      }

      .cls-8 {
        fill: #ce3927;
      }

      .cls-10 {
        fill: #fff;
      }

      .cls-11 {
        fill: url(#radial-gradient-2);
      }

      .cls-12 {
        fill: url(#radial-gradient-3);
      }

      .cls-13 {
        fill: url(#radial-gradient);
      }
    </style>
    <radialGradient id="radial-gradient" cx="60.17" cy="76.77" fx="60.17" fy="76.77" r="13.16" gradientUnits="userSpaceOnUse">
      <stop offset="0" stop-color="#a9abae"/>
      <stop offset=".48" stop-color="#97999b"/>
      <stop offset="1" stop-color="#414042"/>
    </radialGradient>
    <radialGradient id="radial-gradient-2" cx="35.71" cy="7.64" fx="35.71" fy="7.64" r="4.14" xlink:href="#radial-gradient"/>
    <radialGradient id="radial-gradient-3" cx="56.02" cy="2.33" fx="56.02" fy="2.33" r="4.05" xlink:href="#radial-gradient"/>
  </defs>
  <path class="cls-3" d="m25.82,62.84c5.04.32,19.61.34,23.58-9.79.54-1.38.37-2.93-.4-4.19-3.31-5.38-13.63-20.87-23.25-21.91-11.66-1.26-18.66,5.74-15.66,11.74,2.54,5.08,10.11,18.06,12.97,22.52.61.95,1.63,1.56,2.76,1.64Z"/>
  <path class="cls-6" d="m47.37,45.59s1.55,1.18,6.06-2.69c4.52-3.87-.9-10.33-.9-10.33-.45-1.55-7-8.01-7-8.01,0,0-3.84-3.1-8.58-2.84s-7.68,6.46-7.68,6.46c0,0,9.37,5.32,18.09,17.42Z"/>
  <path class="cls-6" d="m10.12,39.51s-4.78-2.04-8.62,2.61,4.29,12.14,4.29,12.14l6.55,5.17s4.59,1.36,7.75-1.74"/>
  <path class="cls-3" d="m15.04,109.46c14.14,1.57,24.05-4.77,24.05-4.77,13-21-2.7-42.36-2.7-42.36l-6.3.36h-5c-2,0-3-2-3-2-2,0-6,3-6,3,0,0,6,12,6,21,0,11.05-9.1,24.54-7.05,24.77Z"/>
  <path class="cls-2" d="m20.92,43.93s-3.61-2.84-7.68-1.03c-4.06,1.81-2.71,5.68-2.71,5.68,0,0,2.61,5.99,7.56,4.11,1.33-.51,5-3,6-4"/>
  <path class="cls-10" d="m22.13,47.21c-.96,1.53-3.77,2.94-3.77,2.94-1.27.54-4.27-.46-3.82-3.28s6.55-1.19,6.55-1.19l1.04,1.53Z"/>
  <path class="cls-2" d="m23.18,43.15s-1.13-5.94,4.29-7.75,9.26,2.84,9.26,2.84c0,0,3.39,5.42-2.48,7.23-5.87,1.81-6.1,1.29-6.55,1.03"/>
  <path class="cls-10" d="m25.18,44.23s-.2-6.76,4.55-6.24,4.52,4.13,4.52,4.13c0,0-.28,3.72-7.48,3.41"/>
  <path class="cls-2" d="m34.42,59.35c3.67-.67,7.05-4.83,8.63-9.22s-3.16-5.17-3.16-5.17c0,0-2.94-.77-4.06,1.81s-4.3,5.57-4.3,5.57c-1.57,1.65-4.66,1.37-4.66,1.37,0,0-3.9-1.25-6.39.29s.23,4.91.23,4.91c0,0,2.71,2.84,9.03,1.29,0,0,3.02-.55,4.69-.85Z"/>
  <path class="cls-10" d="m33.73,57.13s5.02-2.61,6.15-6.23-1.81-3.87-2.03-1.81-5.42,5.42-5.42,5.42l-4.41,1.21-4.17-.17s-3.16.52,0,2.32c0,0,2.48,1.03,4.97,0l4.91-.75Z"/>
  <path class="cls-6" d="m35.14,63.04c-.45-4.65-3.39-10.33-3.39-10.33,0,0-3.39-6.97-7.9-9.3s-2.48,1.81-2.48,1.81l1.81,2.58s4.52,6.72,5.19,8.78,2.48,4.13,1.58,7.75.23,6.72.9,6.72,1.92.77,3.61-3.1c.68-1.55.68-4.91.68-4.91Z"/>
  <path class="cls-4" d="m63.93,92.36c-.16.68-5.75,9.05-5.75,9.05l3.85.5c11.06-2.23,15.25-9.35,15.25-9.35-2.21-23.51-26.19-40.87-26.19-40.87,0,0,3,5,3,7,0,0,10.67,25.36,9.84,33.68"/>
  <path class="cls-6" d="m43.27,181.34c9.03-4.65,28-24.28,30.25-30.74,2.26-6.46-11.06-45.46-11.06-45.46,1.81-2.32.68-2.58.68-2.58-2.03-1.81-21.45-1.81-21.45-1.81,0,0-.6,2.93-4.6,4.93s-14.82,3.85-14.82,3.85c-5.3,23.25-1.36,71.8,9.03,95.57,1.13,2.58-3.61,4.13-3.61,4.13l-3.11.19c-.81.05-1.59.35-2.26.87-8.24,6.49,2.2,7.2,2.2,7.2h9.26s4.97.52,10.39-4.65c5.42-5.17,2.71-13.69,2.71-13.69-9.71-32.54,0-71.55,0-71.55,0,0,5.64,16.01,5.42,18.6,0,0-6.55,7.75-9.03,8.27"/>
  <path class="cls-6" d="m22.47,171.74s-4.94.56-4.04,8.05c.9,7.49,6.1,19.89,6.1,19.89,0,0,2.29,4.5,3.74-2.4"/>
  <path class="cls-8" d="m47.11,90.42c-1.69-.37-1.81,1.03-1.81,1.03-2.94-5.17-2.48-3.87-3.61-6.72-1.13-2.84,1.81-1.29,1.81-1.29,0,0,5.19-6.72,8.81-4.13,4.37,3.12,3.39,8.52,3.39,8.52,0,0-1.58,4.13-8.58,2.58Z"/>
  <path class="cls-7" d="m53.09,55.68s1.19,1.3.45,4.64c-.04.17-.28.22-.65.19-1.94-.16-6.8-1.83-6.8-1.83,0,0,.23,7.07-.45,7.07-6.13,0-8.46-2.03-8.46-2.03"/>
  <path class="cls-9" d="m55.09,92.68s-1.79,5.98-4,8"/>
  <path class="cls-8" d="m55.01,17.07c-2.71.77-2.26-1.81-2.26-1.81,0,0-10.39,1.03-12.87-3.1,0,0,3.39-.52,5.19,0,0,0-8.13-6.97-2.03-10.33,2.48-1.03,9.2-3.41,9.71,5.42,0,0,5.19-1.55,6.1,4.13,0,0,1.58-.26,1.58,1.55,0,0-1.6,3.41-5.43,4.29"/>
  <path class="cls-1" d="m47.09,79.68s.69-4.23,4-6"/>
  <path class="cls-1" d="m51.75,90.39s4.46,2.33,7.34-.7"/>
  <path class="cls-13" d="m58.39,88.99c-2.13-4.33-5.49-11.6-8.15-17.48-1.42-3.14-.36-7,2.38-8.63l1.18-.71c2.65-1.58,5.93-.5,7.43,2.45l8.5,16.68c1.4,2.74,1.36,6.07-.4,8.11-.16.19-.37.33-.58.45l-2.24,1.21c-2.94,1.84-6.5,1.23-8.13-2.09Z"/>
  <path class="cls-1" d="m52.09,74.68c-2.52,1.01-3.99,4.81-3.65,4.33"/>
  <path class="cls-9" d="m53.24,89.66s4.02.73,4.85-.97"/>
  <path class="cls-11" d="m40.79,5.7l-10.61,2.58s0,1.29.23,1.29,10.84-2.58,10.84-2.58"/>
  <path class="cls-12" d="m51.04,4.2l10.4-2.47s0-1.26-.22-1.27-10.62,2.47-10.62,2.47"/>
  <path class="cls-5" d="m58.49,90.77c-.63,3.26-2.43,4.79-2.43,3.29,0-.51-2.21-2.78-2.21-2.78,0,0,3.24.41,4.24-.59"/>
  <path class="cls-2" d="m7.43,91.91c-2.5-14.13,8.67-28.23,8.67-28.23,0,0,6,13,6,21h19l3,6"/>
  <path class="cls-2" d="m7.43,91.91c2.14,8.79,23.81,3.81,27.74,2.83.39-.1.77-.23,1.14-.39l8.78-3.78"/>
  <path class="cls-2" d="m63.09,34.68c-6,3-14.09,14.17-14.09,14.17,0,0,10.09,9.83,11.09,10.83,0,0,12.12-14.52,14.06-22.76s-14.06-22.24-14.06-22.24c0,0-3.15,2.75-4.58,2.38s7.58,17.62,7.58,17.62Z"/>
  <path class="cls-5" d="m52.62,62.88c.53-1.81-1.58-2.63-1.58-2.63l-4.95-1.57v6s3.37,2.26,4,1c1-2,2.53-2.81,2.53-2.81Z"/>
</svg>