<?xml version="1.0" encoding="UTF-8"?>
<svg id="Layer_1" data-name="Layer 1" xmlns="http://www.w3.org/2000/svg" viewBox="0 0 88.38 206.25">
  <defs>
    <style>
      .cls-1 {
        fill: #e85061;
      }

      .cls-1, .cls-2, .cls-3, .cls-4, .cls-5, .cls-6, .cls-7, .cls-8, .cls-9, .cls-10, .cls-11, .cls-12, .cls-13 {
        stroke: #231f20;
        stroke-miterlimit: 10;
      }

      .cls-1, .cls-2, .cls-3, .cls-5, .cls-6, .cls-8, .cls-9, .cls-10, .cls-11, .cls-12, .cls-13 {
        stroke-width: .84px;
      }

      .cls-2 {
        fill: #fff;
      }

      .cls-3 {
        fill: #231f20;
      }

      .cls-4 {
        fill: #2e4099;
      }

      .cls-4, .cls-7 {
        stroke-width: .95px;
      }

      .cls-5 {
        fill: #d51a21;
      }

      .cls-6 {
        fill: #ed1c24;
      }

      .cls-7 {
        fill: #262c65;
      }

      .cls-8 {
        fill: #d83945;
      }

      .cls-9 {
        fill: #423f3f;
      }

      .cls-10 {
        fill: #efe809;
      }

      .cls-11 {
        fill: #007734;
      }

      .cls-12 {
        fill: #0fa24a;
      }

      .cls-13 {
        fill: none;
      }
    </style>
  </defs>
  <path class="cls-8" d="m79.05,59.08l1.43,3.79s8.36,7.82,4.83,11.79c0,0,3.47,4.97,2.47,10.97s-12.09,5.01-12.09,5.01c0,0-9.7-.8-9.3-4.4.39-3.61,0,22.76,0,22.76l-1.89,19.81s-5.38,28.9-5.51,33.52c0,0-1.58,5.28.26,10.56,0,0,4.1,13.03,2.71,14.7,0,0-1.18-5.95-6.18-7.95,0,0-11-7-15-20l-1-27,5.13-28.39,2.87-51.61c2-4,0-11-4-17l5.29-1.12s13.71.12,19.71,5.12,11,6,17,16c0,0,2,6-7,4"/>
  <path class="cls-4" d="m44.74,114.92c.04,3.71-3.9,19.54-3.9,19.54,0,0-.03,1.29.94,5.17s1,4,1,5c0,4.12,5.59,14.78,5.59,14.78,0,0-.59.22,0,10.03.25,4.2,11.09,12.41,11.09,12.41,0,0,5.81,4.75,2.38,9.77-3.43,5.02-1.58,9.24-1.58,9.24-9.02,8.59-22.07,3.72-26.62,1.61-.88-.41-1.61-1.07-2.07-1.93-2.76-5.12-10.78-7.92-10.78-7.92-2-2-4.63-1.8-4.63-1.8-16.9,1.06-12.41-9.77-12.41-9.77,0-12.67,3.43-12.41,3.43-12.41l7.39.79c-2.21-1.19,1.98-3.3,1.98-3.3,3.7-2.11,2.38-7.92,2.38-7.92,0,0,0-8.98-3.04-22.31-3.23-14.2,2.9-36.96,2.9-36.96-.92-1.45-2.01-2.32-2.01-2.32-5.28,5.81-9.21.26-9.21.26,0,0-5.79,2.74-5.79-5.26,0,0-4-1,2-8l1.27-23.49s-.13-11.58,8.3-16.05,14.43-9.46,14.43-9.46c0,0,4.45,3.55,7,1,3-3,5,7,5,7,0,0,1,6,3,8,0,0,2,3,5,2"/>
  <path class="cls-13" d="m6.91,51.69c-2.38,7.92-1.85,8.18-1.85,8.18,0,0,5.94-1.72,8.05.66"/>
  <path class="cls-6" d="m31.12,20.15c-3.32-5.5,1.67-8.59,1.67-8.59,0,0,10.3-4.49,15.31.53,0,0,4.22,3.96.53,8.18-3.07,3.51-12.72,1.73-15.88,1.03-.68-.15-1.27-.56-1.63-1.16Z"/>
  <path class="cls-13" d="m1.37,90.5s.53,7.66,4.49,6.6c0,0,2.11.26,4.22-1.85"/>
  <path class="cls-10" d="m26.58,188.59s-.79,5.81.53,6.86c2.03,1.62,2.64-2.38,2.64-2.38,0,0,.79-7.39-1.32-8.18,0,0-2.05-.35-1.85,3.7Z"/>
  <path class="cls-5" d="m45.86,95.39s.53,6.86.26,8.71"/>
  <path class="cls-7" d="m6.12,168.92s3.43,1.06,2.9,8.71c0,0,2.11,3.43,14.79-6.6"/>
  <path class="cls-12" d="m38.73.6s-.08,7.84.05,9.03c0,0-6,1-8,5s0,6,4,7l6,1-3.05,11.17-2.56,1.78c-6.34,3.17-8.98-3.17-8.45-4.49.53-1.32-.26-7.39-1.58-10.3-1.32-2.9-.53-4.49,2.11-10.3C29.88,4.69,37.78.63,37.78.63c0,0,1.34-1.22,5.83,2.22,0,0,6,4.25,8.39,6.48.54.5.95,1.12,1.23,1.79.77,1.87,2.42,6.28,2,8.89,0,0-.45,2.62,1.85,2.11,3.51-.78,12.7.51,12.7,4.51s0,5-3.2,5.26c-1.6.13-7.13-2.11-10.56-.53-14.58,6.73-18.24,2.27-18.24,2.27l3-11s8.14-.02,8.57-3.51,1.43-7.49-10.57-9.49"/>
  <path class="cls-11" d="m37.78,33.63s6.77,3.23,14.18-.64c3.71-1.93,6.46-2.45,7.82-2.36,2.21.14,2.91.45,4.48,1.22,1.18.57,2.57.58,3.74,0,.07-.03.14-.07.2-.1,3.84-2.06,2.51-7.88-1.82-8.38-4.07-.47-8.46.89-8.46.89-10.03,2.11-14.07,10.43-20.14,9.38"/>
  <ellipse class="cls-3" cx="35.3" cy="14.86" rx="2.11" ry="1.32"/>
  <ellipse class="cls-3" cx="44.8" cy="14.86" rx="2.11" ry="1.32"/>
  <path class="cls-13" d="m38.73,19.88s1.58-3.7,3.43,0"/>
  <rect class="cls-9" x="52.95" y="53.37" width="12.71" height="45.15" rx="3.11" ry="3.11" transform="translate(4.04 -2.99) rotate(2.99)"/>
  <path class="cls-9" d="m14.46,69.44l-1.81-5.82c-.47-1.65.49-3.38,2.14-3.85l6.24-1.78c1.65-.47,3.38.49,3.85,2.14l10.68,37.43c.47,1.65-.49,3.38-2.14,3.85l-6.24,1.78c-1.65.47-3.38-.49-3.85-2.14l-2.03-5.93"/>
  <circle class="cls-2" cx="60.11" cy="65.55" r="1.85"/>
  <circle class="cls-2" cx="59.59" cy="72.42" r="1.85"/>
  <circle class="cls-2" cx="59.32" cy="79.55" r="1.85"/>
  <circle class="cls-2" cx="58.79" cy="86.41" r="1.85"/>
  <path class="cls-3" d="m11.84,69.19h8.4v3.43h-10.17v-1.66c0-.98.79-1.77,1.77-1.77Z" transform="translate(-20.66 7.86) rotate(-17.54)"/>
  <rect class="cls-3" x="12.44" y="76.58" width="10.17" height="3.43" transform="translate(-22.78 8.92) rotate(-17.54)"/>
  <rect class="cls-3" x="14.56" y="83.97" width="10.17" height="3.43" transform="translate(-24.91 9.9) rotate(-17.54)"/>
  <path class="cls-3" d="m17.2,91.37h10.17v3.43h-7.59c-1.42,0-2.58-1.15-2.58-2.58v-.86h0Z" transform="translate(-27.01 11.04) rotate(-17.54)"/>
  <path class="cls-2" d="m51.67,95.65c-2.11-1.85-16.12,1.92-16.12,1.92l-11.27-38.47s12.58-7.03,30.15-4.38l-2.76,40.93Z"/>
  <polygon class="cls-3" points="28.17 59.74 32.66 58.16 41.1 94.86 39.26 95.12 28.17 59.74"/>
  <polygon class="cls-3" points="36.09 57.1 41.63 56.31 43.22 87.73 36.09 57.1"/>
  <polygon class="cls-3" points="45.59 56.05 50.08 56.58 48.23 93.8 46.65 93.8 45.59 56.05"/>
  <path class="cls-10" d="m50.35,109.64c0,2.92-2.48,5.02-4.88,5.02s-4.62-1.84-4.62-4.75,2.21-5.81,4.62-5.81,4.88,2.63,4.88,5.54Z"/>
  <path class="cls-10" d="m46.65,139.48c0,2.92-1.85,3.96-4.03,5.01-2.17,1.04-4.15-1.83-4.15-4.74s1.75-5.82,4.15-5.82,4.03,2.64,4.03,5.56Z"/>
  <path class="cls-10" d="m37.41,166.14c-.26-5.02-3.7-3.43-3.7-3.43,0,0-2.11,2.38.53,6.86,0,0,2.9,5.02,3.17.26.26-4.75,0-3.7,0-3.7Z"/>
  <path class="cls-1" d="m42.78,35.63s5.19,5.1,5.45,12.23c.02,0,.55,4.77-1.45,4.77-4.23,0-6.08-5.35-7.26-11.9-.74-4.1-2.74-6.1-2.74-6.1"/>
  <path class="cls-13" d="m40.84,39.68c-2.73,1.64-1.06-4.22-1.06-4.22,0,0,3.7,2.64,1.06,4.22Z"/>
  <path class="cls-13" d="m38.33,34c-6.07-1.06-7.92-15.58-7.92-15.58"/>
</svg>