<?xml version="1.0" encoding="UTF-8"?>
<svg id="Layer_1" data-name="Layer 1" xmlns="http://www.w3.org/2000/svg" viewBox="0 0 103.28 208.35">
  <defs>
    <style>
      .cls-1 {
        fill: #4a2a19;
      }

      .cls-1, .cls-2, .cls-3, .cls-4, .cls-5, .cls-6, .cls-7, .cls-8, .cls-9 {
        stroke: #231f20;
        stroke-miterlimit: 10;
      }

      .cls-1, .cls-2, .cls-3, .cls-4, .cls-5, .cls-7, .cls-8 {
        stroke-width: .89px;
      }

      .cls-2, .cls-6 {
        fill: #231f20;
      }

      .cls-3 {
        fill: #a08048;
      }

      .cls-4, .cls-9 {
        fill: #f16168;
      }

      .cls-5 {
        fill: #ed2024;
      }

      .cls-6 {
        stroke-width: .25px;
      }

      .cls-7 {
        fill: #b19459;
      }

      .cls-8 {
        fill: none;
      }

      .cls-9 {
        stroke-width: .83px;
      }
    </style>
  </defs>
  <path class="cls-1" d="m48.79,66.02l-6-5-3,5c1-3,2.14-4.36,3-5l6,5-2.69,2.8s-3.41,2.14-16.31,23.2l-2,3s-12.45-.17-15.1,3.54l5.1-.54c4-1,8.76,2.63,12.87,1.69,1.3-.3,2.59-.86,3.41-1.92,13.72-17.77,19.72-27.77,19.72-27.77"/>
  <path class="cls-5" d="m52.79,102.02c-4-3-4-5-4-6s3-7,3-7l-1-2c0-5,7-10,7-10-1-2-2-6-2-6,0,0,2.61-2.55,2.3-3.28s12.51-5.75,12.51-5.75c0,0,3.57,6.35,11.88,4.69,0,0,1.3-1.66,3.3,2.34,0,0,2.33.67,5.16,3.84s7.51,5.01,7.51,5.01c0,0,3.33.16,3.33,2.16s0,4-1,4,2,4,2,4c0,0-1,4-4,2l-3-4-3,1s-1.09,2.64-2.54,2.32-3.87,3.86-3.87,3.86l-15.18,13.58s-5.41,3.24-7.41,1.24-8-2-8-2l-3-4"/>
  <path class="cls-5" d="m63.99,32.87c1-1,4.83,1.96,4.83,1.96,0,0,1.17-.96,2.77.28,1.24.96,1.71,5.74,1.86,7.83.04.63-.04,1.25-.25,1.84-.7,1.94-2.35,6.61-2.88,8.51-.68,2.42.68,8.58.68,8.58l-10.2,6.15-5,3c-4-2-5.28-3.98-7-6-.07-.08-2-1-3-2-2.09-2.09-1.8-5.15-1.8-5.15-3,1-5,0-7-1s1-1,1-1l-2-1s-1-1,0-1,3.8-1.85,3.8-1.85c-2-3-.8-10.15-.8-10.15-1-2,0-3,0-3,0-4,4.05-3.84,4.05-3.84,0,0,2.44-2.45,3.2-1.3s17.76-.86,17.76-.86Z"/>
  <path class="cls-1" d="m62.08,31.79c-12,5.94-11.86.08-11.86.08-1.73-10.12,6.23-17.41,6.23-17.41,0,0,.21-1.07,3.87-1.07,0,0,.86,1.07,3.22.64,0,0,.64,1.5,2.36,1.72,0,0-.43.86,0,.86,0,0-1.93.21-.43,1.07,1.5.86,1.29.43,1.29.43,0,0,.64-.21,0-.64s.64.43.64.43c0,0-.64,1.07.43,1.72,0,0-1.29.43-1.29,1.5,0,0-.21,1.07.43,1.07,0,0-.86,1.29,0,1.93,0,0-1.29.64-.43,1.72,0,0-.86,1.07-.21,1.93,0,0-1.5,1.07-.43,1.72,0,0-1.72.43-.64,1.5,0,0-1.72-1.29-1.72.86-.64-.86-2.15-.21-1.5,1.29"/>
  <path class="cls-1" d="m40.79,64.02s-5.76,8.96-15,24"/>
  <path class="cls-1" d="m53.79,70.02l-4-5c-3-1-22,30-22,30l-10,1c-6.51-1.29-8.54-2.83-8.54-2.83,11.82,1.5,15.54-3.17,15.54-3.17l15-24,4-6"/>
  <path class="cls-8" d="m70.21,52.92s-2.36,10.74,5.8,14.18c0,0,4.94,1.07,6.88-.86,0,0,.86-.64,1.93,7.74"/>
  <path class="cls-8" d="m55.91,70.07s.33,6.7,5.27,14.87"/>
  <path class="cls-8" d="m90,72.34s8.78,5.29,9,6.15c0,0-3.44,3.87-3.87,6.88"/>
  <path class="cls-8" d="m96.26,76.25s5.1,2.25,5.32,3.75c0,0-5.37,4.94-4.94,7.31,0,0-4.51-5.16-4.73-6.23"/>
  <path class="cls-8" d="m60.26,83.36s-4.88,6.95-6.17,17.91l-1.07-.21c-4.08-1.93-4.08-4.08-4.08-4.08,4.08-11.39,10.09-16.23,10.09-16.23"/>
  <path class="cls-8" d="m64.84,83.44s-1.93,7.09-1.93,15.47"/>
  <path class="cls-8" d="m66.98,81.5s-1.07,6.02,0,9.67"/>
  <path class="cls-8" d="m101.58,80s-.64,3.87-1.72,4.51c0,0-.86-.86-.86.21,0,1.98-2.36,2.58-2.36,2.58"/>
  <path class="cls-8" d="m98.79,91.02c3,0,3.86-2.21,3.86-2.21,1.14-.79-3.65-4.08-3.65-4.08"/>
  <path class="cls-8" d="m97.23,87.11s2.57.91,3.57,2.91"/>
  <path class="cls-8" d="m93.48,83.58s3.37,4.37,2.94,5.45c0,0-.64-1.07-4.73.43,0,0,1.5,1.72-1.07,2.15s-4.3,2.36-4.3,2.36"/>
  <path class="cls-8" d="m88.04,81.07s2.79,2.79,3.22,2.79c0,0,1.72-.21-1.29,4.51"/>
  <path class="cls-8" d="m85.89,82.58l3.65,3.22s.94.47-.91,2.87c-.32.42-.73.89-1.24,1.43,0,0-.21,1.07-3.65,1.93"/>
  <path class="cls-8" d="m89.98,90.53c-.21-.43-.32-.29-1.34-1.86"/>
  <path class="cls-1" d="m70.64,107.29c-2.16,1.27-4.51,1.29-4.51,1.29l-9.88-2.58c.44-4.88-.75,22.51-1.16,32.1-.08,1.82.13,3.65.61,5.41,2.21,8.05,13.39,47.73,14.1,49.5,0,0,2,4,5,1"/>
  <path class="cls-8" d="m85.46,91.6l.64,2.58s1.5.21-3.65,4.3c-5.16,4.08-7.09,4.73-10.31,7.74-3.22,3.01-6.02,2.36-6.02,2.36,0,0-10.31-3.22-10.31-3.44,0-8.38,5.8-18.91,5.8-18.91,0,0-3.87,9.03-3.65,16.76"/>
  <path class="cls-8" d="m70.64,101.7s.26,3.5.99,4.87"/>
  <path class="cls-8" d="m81.38,85.8s0,4.73,1.29,6.23,3.43,2.88,3.43,2.88"/>
  <path class="cls-8" d="m88.47,80.86s-1.07,0-3.87,2.79l-4.3,3.01s-1.29,1.07-.21,2.58c0,0-.64,2.36-.43,3.87s-1.07-.64-1.07-.64c0,0-2.58.86-.86,1.72,1.72.86,1.5,1.72,1.5,1.72,0,0-.21,2.15-2.36,2.36s-.86,1.29-5.37,3.01c-.74.28-1.43.52-2.07.72-3.22,1-5.03,1-5.03,1l-1.5.64s-1.29.64,2.15.64,2.58-.21,2.58-.21c0,0,1.33.53,1.58,1.07.07.15.06.29-.08.43-.64.64-2.55,2.45-1.71,3.05"/>
  <line class="cls-8" x1="69.13" y1="95.9" x2="68.92" y2="104.93"/>
  <path class="cls-8" d="m74.72,80.86s1.67,12.29,2.45,13.02"/>
  <path class="cls-8" d="m76.44,76.56s-2.58,7.31-3.87,7.74-.86,0-.86,0c-8.81-6.88-4.94-8.17-4.94-8.17,0,0,7.09,1.5,10.53,0s7.95,1.72,7.95,1.72c9.24.43,8.17-.86,8.17-.86-4.73-7.95-9.46-8.38-9.46-8.38"/>
  <path class="cls-8" d="m73.43,89.45s-.64,5.16-.43,5.37"/>
  <path class="cls-8" d="m74.22,81.95s1.15,7.93-1.65,7.5-2.58-1.29-2.58-1.29c0,0-2.58-.86-2.79.64-.21,1.5-.86,2.36.86,3.44s3.01.64,3.44,1.07,1.72.86,1.29,1.72-4.08,1.07-4.51.86-1.93-2.58-3.22-2.36"/>
  <path class="cls-8" d="m77.3,76.13s6.45,4.08,6.66,6.02"/>
  <path class="cls-8" d="m84.45,77.35s3.59,2.86,4.45,2.65"/>
  <path class="cls-8" d="m92.8,77.62s.83-.2,1.47,2.38c.64,2.58,2.37,1.77,2.37,1.77"/>
  <path class="cls-8" d="m77.3,67.97s-9.24,5.8-10.53,8.17"/>
  <path class="cls-8" d="m78.16,67.97c-.21.21-5.8,6.88-5.8,8.81"/>
  <path class="cls-8" d="m66.98,39.6s3.22,3.44,3.87,10.96c0,0,.94,1.46-.06,2.46,0,0,.7-2.03-1.45-2.03,0,0-.9.53-1.51.24-.42-.19-.69-.77-.43-2.18.56-2.96-1.29-.86-1.29-.86,0,0,0,1.5-1.93,1.29s-.86-3.22-.86-3.22c0-2.79,5.8-5.37,3.22-10.1-2.58-4.73-5.37-2.58-5.37-2.58"/>
  <path class="cls-8" d="m66.12,48.2s.21,3.22,2.15,3.22"/>
  <path class="cls-8" d="m66.65,50.27s1.62,1.58-.96,5.87"/>
  <path class="cls-8" d="m71.28,52.71s.21-1.29-5.59,3.44"/>
  <path class="cls-8" d="m63.06,47.13s.06-3.67,1.35-5.81"/>
  <path class="cls-8" d="m63.76,37.24s.76,3.2.06,5.47"/>
  <path class="cls-8" d="m64.19,39.39s-1.93-2.58-4.94-1.07c0,0-.21,1.72-1.5,1.29"/>
  <path class="cls-8" d="m61.74,37.92c2.5-2.54-.78-4.55-.78-4.55,0,0-.43,2.58-2.79,3.87,0,0,1.35,3.63-3.38,5.78s-5.43-.19-5.43-.19c0,0-1.5-1.07-1.29,1.07.21,2.15,0,2.58-1.07,2.79s-.43,3.87.64,4.51,3.01,1.72,1.93,2.58.05,2.6.05,2.6"/>
  <path class="cls-2" d="m63.37,9.58s1.03-7.16-3.7-7.58c0,0-4.51.86-.21,6.45"/>
  <path class="cls-5" d="m66.31,8.51c.43-1.5.24-3.94.24-3.94,0-3.87-2.36-4.08-2.36-4.08,0,0-1.07-.45-4.4,1.52,0,0,3.21.22,3.6,4.11s-.03,3.33-.03,3.33"/>
  <path class="cls-8" d="m70.05,14.92s4.45.82,3.38,5.12c0,0-1.07,2.58-3.87,0"/>
  <path class="cls-5" d="m70.21,14.89l5.8-1.72s3.65.43,3.01,3.01c0,0,0,.64-2.36,2.15-2.36,1.5-3.65,2.36-3.65,2.36,0,0-1.21,1.33-2.21.33s-3.17-6.25-.59-6.13"/>
  <path class="cls-8" d="m59.25,9.87s-4.45-4.86-6.45-2.86c-2.49,2.49,1.23,3.9,1.23,3.9"/>
  <path class="cls-5" d="m57.65,4.86l-2.86,1.16s2.45.63,3.22,1.81"/>
  <path class="cls-2" d="m67.79,17.52v1.5l-1,1.5v7.5l-2,3-1,1,2,1,3.17,1.71.83-.71c2,0,3.35,2.79,3.35,2.79,1.07.64,1.07-.43,1.07-.43,1.07.86,1.07-.43,1.07-.43,1.07-.21.43-1.07.43-1.07.86-.43,0-1.07,0-1.07,2.36-.21,1.93-1.72,1.93-1.72,0,0,.43,1.29,2.36.21s.43-2.36.43-2.36c0,0-.64-.21-.43-1.93s2.15-1.29,2.15-1.29c1.5-.64,0-1.07,0-1.07,0,0-1.29.64-1.93-1.07-.64-1.72,1.07-1.29,1.07-1.29,1.72-.64,0-.86,0-.86.64-.64.21-1.07.21-1.07.64-.64-.43-1.5-.43-1.5.21-1.5-1.5-1.29-1.5-1.29,0-.64-.79-1.53-.79-1.53l-6,4"/>
  <path class="cls-8" d="m71.71,8.01s-.21-2.58-1.93-1.07c-1.72,1.5.21,1.29.21,1.29"/>
  <path class="cls-8" d="m69.13,8.01s-.64.43-.86,0c0,0-.43-2.15-1.5-.43s.86.64.86.64"/>
  <path class="cls-2" d="m66.48,8.43s-1.21-.2-1.21,1.09c0,0-1.29-.21-1.29.86"/>
  <path class="cls-2" d="m64.15,9.83s-1.25-.75-1.47.33"/>
  <path class="cls-2" d="m62.79,9.79s-.96-1.35-1.82-.28"/>
  <path class="cls-2" d="m59.89,9.95s-2.36-.86-1.93,1.29"/>
  <path class="cls-8" d="m61.4,9.09c.31.36-1.6-1.07-2.38.79"/>
  <path class="cls-2" d="m57.93,10.96s-1.69-1.44-2.77.49"/>
  <path class="cls-2" d="m55.57,10.88c-.61-.5-1.9-.07-1.69.79"/>
  <path class="cls-2" d="m52.36,9.99s-1.7-.05-.84,1.24,1.29-.21,1.29-.21"/>
  <path class="cls-2" d="m46.36,28.86s-.21.64-.86-.43c-.64-1.07,1.07-1.29,1.07-1.29.43-1.07,1.5-.86,1.5-.86-.86-.21-.64-1.07-.64-1.07,0,0-1.5,1.07-2.15-.64-.64-1.72,1.07-1.07,1.07-1.07,0,0-.43,0-.43-.86"/>
  <path class="cls-2" d="m52.07,11.76s1.16.55.3.98c0,0-.86-1.29-1.72-.21,0,0-1.07-.64-1.5.43,0,0-2.11.69-1.29,1.5.86.86,1.5-.64,1.5-.64.86,1.29,1.93.21,1.93.21,0,0,.86.43,0,1.07,0,0-1.29-.43-1.72.86,0,0-2.36-1.72-3.01-.21,0,0-.64.64,0,1.5,0,0,.64.86,1.29-.21"/>
  <path class="cls-2" d="m47.64,18.76s-.57.83-1.07.43c-1.07-.86.89-1.77.89-1.77"/>
  <path class="cls-2" d="m47.21,19.4s-1.38.38-.8,1.59"/>
  <path class="cls-2" d="m46.57,22.19s0,.64-1.29.43c-.3-.05-1.93,1.72-1.93.21,0-1.93,1.72-.86,1.72-.86.43-1.72,1.72-.86,1.72-.86"/>
  <path class="cls-8" d="m67.2,15.1c2.14-1.8-.16-2.89-.64-2.79,0,0,.29-1.13-.78-1.13"/>
  <path class="cls-8" d="m66.98,15.53s1.5.21,1.07,1.72c0,0,1.29.21.86,1.5"/>
  <path class="cls-8" d="m67.2,14.67s.43.43-.43,1.29"/>
  <path class="cls-8" d="m69.35,20.47c.64-1.07-.64-1.72-.64-1.72"/>
  <path class="cls-8" d="m70.64,21.33s-.43-1.07-1.07-.64"/>
  <path class="cls-8" d="m43.13,36.59s-5.37,1.5-3.87,5.8c0,0-3.44,9.24,3.44,12.89"/>
  <path class="cls-8" d="m39.26,39.39c-.64-3.44,2.15-3.65,2.15-3.65l1.39-.06"/>
  <path class="cls-8" d="m46.57,41.1s-5.37,1.5-3.65,6.88c0,0-.64,1.5.86,2.58,0,0-1.5,2.79-.21,4.3"/>
  <path class="cls-8" d="m46.57,38.96s-4.51,1.72-6.23,1.07c-.12.06-1.33-.26-1.14-.1"/>
  <path class="cls-8" d="m58.17,37.24s-4.3,3.22-8.17,2.15c0,0-2.36-.64-2.58-2.79,0,0-1.07-1.07-1.07.64,0,1.72-.21,3.65.43,4.73"/>
  <path class="cls-8" d="m49.31,55.78s-.37,2.09-2.74.58"/>
  <path class="cls-8" d="m48.1,56.9s-2.82,1.18-4.54-2.04"/>
  <path class="cls-8" d="m44.57,56.3s-.79,3.07-5.74,1.57"/>
  <path class="cls-8" d="m51.08,33.58s-.64,3.01-3.65,3.01"/>
  <polyline class="cls-6" points="48.29 15.52 47.29 17.52 46.29 20.52 45.29 23.52 46.29 26.52 46.02 29"/>
  <path class="cls-6" d="m45.98,29.01s-.48,1.13.38,1.56c0,0-1.29,1.72.64,2.36,0,0,.43.64,1.07.43,0,0-1.5.64-.86,1.72s1.07,0,1.07,0c.21,1.29,1.27.89,1.27.89l1.23-1.96s-1-2-1-6,3-9,3-9l4-5s2-1,3-1c0,0,.5,2.03,3.75,1.01,0,0,1.25,1.99,2.25,1.99l-1,1,2,1,2.5.5v-3l-1.5-1.5-1.03-1.98.03-2.02,1-1-1.5-.5-1,1h-1l-3-1-2,1-1,1-3,1-3-1-1,2-1,1-2,2"/>
  <path class="cls-8" d="m54.09,101.27s-.18,2.56,1.74,3"/>
  <polyline class="cls-7" points="38.57 105.79 29.44 184.79 18.96 185.02 7.29 184.87 6.73 179.31 1.44 104.71"/>
  <path class="cls-1" d="m66.08,207.73s-4.81.53-6.95-.27-.27-2.67-.27-2.67c7.21-3.47,10.69-11.22,10.69-11.22,0,0,2.24,3.45,5.24.45,0,0-8.17-46.22-9-52-1-7,5-35,5-35l15.36-13.53.42-1.33s.77-1.97,3.67-2.82c0,0,2.36-.05,2.13-2.45l3.3-.64,2.17,2.56s2.37,3.49-2.79,14.88c-5.16,11.39-16.91,36.8-17.17,39.37v2s6.3,18.9,3.9,46.95"/>
  <polyline class="cls-7" points="34.79 133.02 26.79 108.02 17.79 182.02 10.79 107.02 3.51 131.6"/>
  <line class="cls-8" x1="22.76" y1="184.9" x2="26.66" y2="205.92"/>
  <polygon class="cls-7" points="27.79 185.02 31.31 206.02 4.14 206.02 8.79 185.05 27.79 185.02"/>
  <path class="cls-3" d="m38.62,103.85l-36.96-1.07s-2.58,1.07-.21,1.93,36.96,1.07,36.96,1.07c0,0,4.3-.43.21-1.93Z"/>
  <line class="cls-8" x1="13.71" y1="184.72" x2="8.6" y2="205.71"/>
  <path class="cls-1" d="m75.13,193.95s2.23,3.59,6.95-2.67l1.34,3.74c1.34,3.74-2.14,12.56-2.14,12.56h-1.87s.27-6.15.27-6.15c-3.88,6.58-7.98,6.29-7.98,6.29,0,0-4.81.53-6.95-.27-2.14-.8-.27-2.67-.27-2.67,7.21-3.47,10.69-11.22,10.69-11.22"/>
  <path class="cls-5" d="m67.79,14.02s1,1,2,1c0,0,8.79-1.63,8.58-4.86s-4.3-2.58-4.3-2.58l-5.37,1.29s-2.58.64-2.15,2.79l1.24,2.35Z"/>
  <path class="cls-4" d="m67.79,9.02s-2.07,1.69-.54,3.85,3.06,2,3.06,2c0,0,2.47-3.84-2.53-5.84"/>
  <path class="cls-9" d="m71.16,21c-1.04-.63-2.54-2.08-1.54-4.91.2-.58.92-.75,1.36-.33.96.94,2.24,2.69,1.46,4.81-.19.51-.82.71-1.28.43Z"/>
  <path class="cls-4" d="m58.13,10.12c.33-.9.96-1.44.96-1.44,0,0-3.29-3.67-6.29-1.67s.99,3.77.99,3.77l4.34-.67Z"/>
  <path class="cls-4" d="m60.13,8.4c-.58-.1-1.08-.42-1.43-.89-.92-1.27-2.34-3.81-.04-4.95,2.79-1.37,4.13,1.63,4.4,2.31.03.09.06.18.07.27l.31,1.81c.17,1.01-.7,1.89-1.71,1.72l-1.6-.27Z"/>
</svg>