<?xml version="1.0" encoding="UTF-8"?>
<svg id="Layer_1" data-name="Layer 1" xmlns="http://www.w3.org/2000/svg" viewBox="0 0 103.11 208.32">
  <defs>
    <style>
      .cls-1 {
        fill: none;
        stroke: #231f20;
        stroke-miterlimit: 10;
        stroke-width: .89px;
      }
    </style>
  </defs>
  <path class="cls-1" d="m62.08,31.76c-12,5.94-11.86.08-11.86.08-1.73-10.12,6.23-17.41,6.23-17.41,0,0,.21-1.07,3.87-1.07,0,0,.86,1.07,3.22.64,0,0,.64,1.5,2.36,1.72,0,0-.43.86,0,.86,0,0-1.93.21-.43,1.07s1.29.43,1.29.43c0,0,.64-.21,0-.64s.64.43.64.43c0,0-.64,1.07.43,1.72,0,0-1.29.43-1.29,1.5,0,0-.21,1.07.43,1.07,0,0-.86,1.29,0,1.93,0,0-1.29.64-.43,1.72,0,0-.86,1.07-.21,1.93,0,0-1.5,1.07-.43,1.72,0,0-1.72.43-.64,1.5,0,0-1.72-1.29-1.72.86-.64-.86-2.15-.21-1.5,1.29"/>
  <path class="cls-1" d="m53.23,43.22s-7.95,29.01-8.38,30.3"/>
  <path class="cls-1" d="m45.1,72.79s-3.26,2.67-16.15,23.73"/>
  <path class="cls-1" d="m44.64,62.13c-.86.64-2.58,5.59-2.58,7.31"/>
  <path class="cls-1" d="m42.2,68.24s-8.1,9.36-17.34,24.41"/>
  <path class="cls-1" d="m25.73,91.14s-3.65,4.51-15.47,3.01c0,0,2.01,1.94,8.53,3.23"/>
  <path class="cls-1" d="m13.91,99.31c12.46-.86,13.65,2.3,17.76,1.36,1.3-.3,2.48-.97,3.41-1.92,16.78-17.15,19.02-26.52,19.02-26.52,5.37-4.94,10.1-22.78,10.1-22.78"/>
  <path class="cls-1" d="m29.28,95.97s-12.94-.15-15.59,3.55"/>
  <path class="cls-1" d="m70.21,52.89s-2.36,10.74,5.8,14.18c0,0,4.94,1.07,6.88-.86,0,0,.86-.64,1.93,7.74"/>
  <path class="cls-1" d="m55.91,70.04s.33,6.7,5.27,14.87"/>
  <path class="cls-1" d="m90,72.31s8.78,5.29,9,6.15c0,0-3.44,3.87-3.87,6.88"/>
  <path class="cls-1" d="m96.26,76.22s5.1,2.25,5.32,3.75c0,0-5.37,4.94-4.94,7.31,0,0-4.51-5.16-4.73-6.23"/>
  <path class="cls-1" d="m52.55,89.11l-1.11-1.5c-.36-.48-.44-1.12-.22-1.67,3.27-8.14,5.9-8.35,6.36-8.71"/>
  <path class="cls-1" d="m60.26,83.33s-4.88,6.95-6.17,17.91l-1.07-.21c-4.08-1.93-4.08-4.08-4.08-4.08,4.08-11.39,10.09-16.23,10.09-16.23"/>
  <path class="cls-1" d="m64.84,83.41s-1.93,7.09-1.93,15.47"/>
  <path class="cls-1" d="m66.98,81.47s-1.07,6.02,0,9.67"/>
  <path class="cls-1" d="m101.58,79.97s-.64,3.87-1.72,4.51c0,0-.86-.86-.86.21,0,1.98-2.36,2.58-2.36,2.58"/>
  <path class="cls-1" d="m99.65,90.71c3.22-1.29,3.01-1.93,3.01-1.93.21-.64-3.65-4.08-3.65-4.08"/>
  <path class="cls-1" d="m97.23,87.08s2.85,3.42,2.42,4.07"/>
  <path class="cls-1" d="m93.48,83.55s3.37,4.37,2.94,5.45c0,0-.64-1.07-4.73.43,0,0,1.5,1.72-1.07,2.15s-4.3,2.36-4.3,2.36"/>
  <path class="cls-1" d="m88.04,81.05s2.79,2.79,3.22,2.79c0,0,1.72-.21-1.29,4.51"/>
  <path class="cls-1" d="m85.89,82.55l3.65,3.22s.94.47-.91,2.87c-.32.42-.73.89-1.24,1.43,0,0-.21,1.07-3.65,1.93"/>
  <path class="cls-1" d="m99.58,90.4s-1.01.96-3.16.96c0,0,1.72-.43,1.29-.86s-1.72.43-1.72.43l-1.28-2.25"/>
  <path class="cls-1" d="m97.49,91.31s2.37,3.49-2.79,14.88c-5.16,11.39-18.03,34.22-17.17,39.37"/>
  <path class="cls-1" d="m70.64,107.26s-6.88,31.37-6.23,37.18,10.73,49.49,10.73,49.49"/>
  <path class="cls-1" d="m56.24,105.97c.44-4.88-.75,22.51-1.16,32.1-.08,1.82.13,3.65.61,5.41,2.21,8.05,13.12,48.4,13.83,50.17"/>
  <path class="cls-1" d="m85.46,91.57l.64,2.58s1.5.21-3.65,4.3c-5.16,4.08-7.09,4.73-10.31,7.74-3.22,3.01-6.02,2.36-6.02,2.36,0,0-10.31-3.22-10.31-3.44,0-8.38,5.8-18.91,5.8-18.91,0,0-3.87,9.03-3.65,16.76"/>
  <path class="cls-1" d="m70.64,101.67s.26,3.5.99,4.87"/>
  <path class="cls-1" d="m81.38,85.77s0,4.73,1.29,6.23,3.43,2.88,3.43,2.88"/>
  <path class="cls-1" d="m88.47,80.83s-1.07,0-3.87,2.79l-4.3,3.01s-1.29,1.07-.21,2.58c0,0-.64,2.36-.43,3.87s-1.07-.64-1.07-.64c0,0-2.58.86-.86,1.72,1.72.86,1.5,1.72,1.5,1.72,0,0-.21,2.15-2.36,2.36s-.86,1.29-5.37,3.01c-.74.28-1.43.52-2.07.72-3.22,1-5.03,1-5.03,1l-1.5.64s-1.29.64,2.15.64,2.58-.21,2.58-.21c0,0,1.33.53,1.58,1.07.07.15.06.29-.08.43-.64.64-2.55,2.45-1.71,3.05"/>
  <line class="cls-1" x1="69.13" y1="95.87" x2="68.92" y2="104.9"/>
  <path class="cls-1" d="m74.72,80.83s1.67,12.29,2.45,13.02"/>
  <path class="cls-1" d="m76.44,76.53s-2.58,7.31-3.87,7.74-.86,0-.86,0c-8.81-6.88-4.94-8.17-4.94-8.17,0,0,7.09,1.5,10.53,0,3.44-1.5,7.95,1.72,7.95,1.72,9.24.43,8.17-.86,8.17-.86-4.73-7.95-9.46-8.38-9.46-8.38"/>
  <path class="cls-1" d="m73.43,89.43s-.64,5.16-.43,5.37"/>
  <path class="cls-1" d="m74.22,81.92s1.15,7.93-1.65,7.5-2.58-1.29-2.58-1.29c0,0-2.58-.86-2.79.64-.21,1.5-.86,2.36.86,3.44s3.01.64,3.44,1.07,1.72.86,1.29,1.72c-.43.86-4.08,1.07-4.51.86s-1.93-2.58-3.22-2.36"/>
  <path class="cls-1" d="m77.3,76.1s6.45,4.08,6.66,6.02"/>
  <path class="cls-1" d="m84.45,77.32s3.59,2.86,4.45,2.65"/>
  <path class="cls-1" d="m92.8,77.59s.83-.2,1.47,2.38c.64,2.58,2.37,1.77,2.37,1.77"/>
  <path class="cls-1" d="m91.91,90.29s-1.72.64-1.93.21-.32-.29-1.34-1.86"/>
  <path class="cls-1" d="m77.3,67.94s-9.24,5.8-10.53,8.17"/>
  <path class="cls-1" d="m78.16,67.94c-.21.21-5.8,6.88-5.8,8.81"/>
  <path class="cls-1" d="m70.82,61.68s-10.07,5.61-13.51,6.25"/>
  <path class="cls-1" d="m67.34,63.56s-4.01,4.81-11.31,6.95"/>
  <path class="cls-1" d="m69.35,35.49c-2.58-3.22-5.16-2.15-5.16-2.15"/>
  <path class="cls-1" d="m71.07,50.75c4.41-8.47,1.29-14.05.03-15.77-.34-.47-1.03-.5-1.4-.07-.13.15-.25.33-.34.58"/>
  <path class="cls-1" d="m66.98,39.57s3.22,3.44,3.87,10.96c0,0,.86,1.5.43,2.15,0,0,.21-1.72-1.93-1.72,0,0-.9.53-1.51.24-.42-.19-.69-.77-.43-2.18.56-2.96-1.29-.86-1.29-.86,0,0,0,1.5-1.93,1.29s-.86-3.22-.86-3.22c0-2.79,5.8-5.37,3.22-10.1-2.58-4.73-5.37-2.58-5.37-2.58"/>
  <path class="cls-1" d="m66.12,48.17s.21,3.22,2.15,3.22"/>
  <path class="cls-1" d="m66.65,50.24s1.62,1.58-.96,5.87"/>
  <path class="cls-1" d="m71.28,52.68s.21-1.29-5.59,3.44"/>
  <path class="cls-1" d="m63.06,47.11s.06-3.67,1.35-5.81"/>
  <path class="cls-1" d="m63.76,37.21s.76,3.2.06,5.47"/>
  <path class="cls-1" d="m64.19,39.36s-1.93-2.58-4.94-1.07c0,0-.21,1.72-1.5,1.29"/>
  <path class="cls-1" d="m61.74,37.89c2.5-2.54-.78-4.55-.78-4.55,0,0-.43,2.58-2.79,3.87,0,0,1.29,2.36-3.44,4.51s-5.37,1.07-5.37,1.07c0,0-1.5-1.07-1.29,1.07.21,2.15,0,2.58-1.07,2.79s-.43,3.87.64,4.51,3.01,1.72,1.93,2.58.05,2.6.05,2.6"/>
  <path class="cls-1" d="m63.37,9.55s1.03-7.16-3.7-7.58c0,0-4.51.86-.21,6.45"/>
  <path class="cls-1" d="m66.31,8.48c.43-1.5.24-3.94.24-3.94,0-3.87-2.36-4.08-2.36-4.08,0,0-1.73-.3-5.05,1.68"/>
  <path class="cls-1" d="m68.7,8.84s5.32,1.5,2.42,5.25c-.45.58-.87.85-1.6.8-.37-.02-1.07,0-1.6-.53"/>
  <path class="cls-1" d="m70.05,14.9s4.45.82,3.38,5.12c0,0-1.07,2.58-3.87,0"/>
  <path class="cls-1" d="m70.21,14.86l5.8-1.72s3.65.43,3.01,3.01c0,0,0,.64-2.36,2.15-2.36,1.5-3.65,2.36-3.65,2.36"/>
  <path class="cls-1" d="m70.21,14.86s8.38-1.5,8.17-4.73-4.3-2.58-4.3-2.58l-5.37,1.29s-2.58.64-2.15,2.79"/>
  <path class="cls-1" d="m59.25,8.84s-4.73-4.73-6.88-1.93,1.65,3.98,1.65,3.98"/>
  <line class="cls-1" x1="57.65" y1="4.83" x2="53.6" y2="6.11"/>
  <path class="cls-1" d="m77.84,17.55s.75.32.75.96c0,0,1.72-.21,1.5,1.29,0,0,1.07.86.43,1.5,0,0,.43.43-.21,1.07,0,0,1.72.21,0,.86,0,0-1.72-.43-1.07,1.29.64,1.72,1.93,1.07,1.93,1.07,0,0,1.5.43,0,1.07,0,0-1.93-.43-2.15,1.29s.43,1.93.43,1.93c0,0,1.5,1.29-.43,2.36s-2.36-.21-2.36-.21c0,0,.43,1.5-1.93,1.72,0,0,.86.64,0,1.07,0,0,.64.86-.43,1.07,0,0,0,1.29-1.07.43,0,0,0,1.07-1.07.43"/>
  <path class="cls-1" d="m71.71,7.98s-.21-2.58-1.93-1.07c-1.72,1.5.21,1.29.21,1.29"/>
  <path class="cls-1" d="m69.13,7.98s-.64.43-.86,0c0,0-.43-2.15-1.5-.43s.86.64.86.64"/>
  <path class="cls-1" d="m66.48,8.4s-1.21-.2-1.21,1.09c0,0-1.29-.21-1.29.86"/>
  <path class="cls-1" d="m64.15,9.8s-1.25-.75-1.47.33"/>
  <path class="cls-1" d="m62.79,9.76s-.96-1.35-1.82-.28"/>
  <path class="cls-1" d="m59.89,9.92s-2.36-.86-1.93,1.29"/>
  <path class="cls-1" d="m61.4,9.06s-1.97-2.3-2.38.79"/>
  <path class="cls-1" d="m57.93,10.93s-1.69-1.44-2.77.49"/>
  <path class="cls-1" d="m55.57,10.85c-.61-.5-1.9-.07-1.69.79"/>
  <path class="cls-1" d="m52.36,9.96s-1.7-.05-.84,1.24,1.29-.21,1.29-.21"/>
  <path class="cls-1" d="m46.36,28.83s-.21.64-.86-.43c-.64-1.07,1.07-1.29,1.07-1.29.43-1.07,1.5-.86,1.5-.86-.86-.21-.64-1.07-.64-1.07,0,0-1.5,1.07-2.15-.64-.64-1.72,1.07-1.07,1.07-1.07,0,0-.43,0-.43-.86"/>
  <path class="cls-1" d="m52.07,11.73s1.16.55.3.98c0,0-.86-1.29-1.72-.21,0,0-1.07-.64-1.5.43,0,0-2.11.69-1.29,1.5.86.86,1.5-.64,1.5-.64.86,1.29,1.93.21,1.93.21,0,0,.86.43,0,1.07,0,0-1.29-.43-1.72.86,0,0-2.36-1.72-3.01-.21,0,0-.64.64,0,1.5,0,0,.64.86,1.29-.21"/>
  <path class="cls-1" d="m47.64,18.73s-.57.83-1.07.43c-1.07-.86.89-1.77.89-1.77"/>
  <path class="cls-1" d="m47.21,19.37s-1.38.38-.8,1.59"/>
  <path class="cls-1" d="m46.57,22.17s0,.64-1.29.43c-.3-.05-1.93,1.72-1.93.21,0-1.93,1.72-.86,1.72-.86.43-1.72,1.72-.86,1.72-.86"/>
  <path class="cls-1" d="m67.2,15.07c2.14-1.8-.16-2.89-.64-2.79,0,0,.29-1.13-.78-1.13"/>
  <path class="cls-1" d="m66.98,15.5s1.5.21,1.07,1.72c0,0,1.29.21.86,1.5"/>
  <path class="cls-1" d="m67.2,14.64s.43.43-.43,1.29"/>
  <path class="cls-1" d="m69.35,20.45c.64-1.07-.64-1.72-.64-1.72"/>
  <path class="cls-1" d="m70.64,21.31s-.43-1.07-1.07-.64"/>
  <path class="cls-1" d="m53.2,43.51s-2.33,2.51-1.47,5.3"/>
  <path class="cls-1" d="m47.42,33.32l-4.07.67s-1.07.64-.21,2.58c0,0-5.37,1.5-3.87,5.8,0,0-3.44,9.24,3.44,12.89"/>
  <path class="cls-1" d="m42.81,35.65l-1.39.06s-2.79.21-2.15,3.65"/>
  <path class="cls-1" d="m46.57,41.08s-5.37,1.5-3.65,6.88c0,0-.64,1.5.86,2.58,0,0-1.5,2.79-.21,4.3"/>
  <path class="cls-1" d="m46.57,38.93s-4.51,1.72-6.23,1.07c0,0-1-.42-1.14-.1"/>
  <path class="cls-1" d="m58.17,37.21s-4.3,3.22-8.17,2.15c0,0-2.36-.64-2.58-2.79,0,0-1.07-1.07-1.07.64,0,1.72-.21,3.65.43,4.73"/>
  <path class="cls-1" d="m49.31,55.75s-.37,2.09-2.74.58"/>
  <path class="cls-1" d="m48.07,61.92s-2.79-.64-3.65-4.3"/>
  <path class="cls-1" d="m43.99,57.84s-.43,4.51,3.22,7.52"/>
  <path class="cls-1" d="m48.1,56.87s-2.82,1.18-4.54-2.04"/>
  <path class="cls-1" d="m38.95,50.93s.1.89-2.91,3.25c0,0-1.29.64,1.29,1.72,2.58,1.07,2.15,1.29,2.15,1.29,0,0-2.36-.43-1.5.21s1.07.43,1.07.43"/>
  <path class="cls-1" d="m44.57,56.27s-.79,3.07-5.74,1.57"/>
  <path class="cls-1" d="m51.08,33.55s-.64,3.01-3.65,3.01"/>
  <path class="cls-1" d="m49.56,35.95s-1.06.4-1.27-.89c0,0-.43,1.07-1.07,0s.86-1.72.86-1.72c-.64.21-1.07-.43-1.07-.43-1.93-.64-.64-2.36-.64-2.36-.86-.43-.38-1.56-.38-1.56"/>
  <path class="cls-1" d="m54.09,101.24s-.18,2.56,1.74,3"/>
  <path class="cls-1" d="m38.62,103.82l-36.96-1.07s-2.58,1.07-.21,1.93,36.96,1.07,36.96,1.07c0,0,4.3-.43.21-1.93Z"/>
  <polyline class="cls-1" points="38.4 105.76 29.27 184.76 26.41 184.76 7.13 184.84"/>
  <line class="cls-1" x1="1.44" y1="104.68" x2="7.26" y2="184.84"/>
  <path class="cls-1" d="m82.08,191.25c2.4-28.06-4.18-48.22-4.18-48.22"/>
  <path class="cls-1" d="m75.17,193.54s-3.47,7.75-10.69,11.22c0,0-1.87,1.87.27,2.67,2.14.8,6.95.27,6.95.27,0,0,3.71.92,7.98-6.29l-.27,6.15h1.87s3.47-8.82,2.14-12.56l-1.34-3.74"/>
  <path class="cls-1" d="m69.56,193.54s-3.47,7.75-10.69,11.22c0,0-1.87,1.87.27,2.67s6.95.27,6.95.27"/>
  <polyline class="cls-1" points="26.41 184.76 31.31 205.95 4.14 205.95 9.22 184.84"/>
  <polyline class="cls-1" points="35.72 131.5 27.21 105.73 17.95 184.04 10.2 104.68 3.51 130.58"/>
  <line class="cls-1" x1="22.76" y1="184.87" x2="26.66" y2="205.9"/>
  <line class="cls-1" x1="13.71" y1="184.7" x2="8.6" y2="205.68"/>
</svg>