<?xml version="1.0" encoding="UTF-8"?>
<svg id="Layer_1" data-name="Layer 1" xmlns="http://www.w3.org/2000/svg" viewBox="0 0 175.06 232.17">
  <defs>
    <style>
      .cls-1 {
        fill: none;
        stroke: #231f20;
        stroke-miterlimit: 10;
        stroke-width: .87px;
      }
    </style>
  </defs>
  <path class="cls-1" d="m102.53,46.28c-.24.49-.31,6.61-.79,7.94-1.87,5.23-6.49,12.95-14.09,12-8.84-1.11-8.09-14.27-8.09-14.27"/>
  <path class="cls-1" d="m81.44,193.27s4.41-5.67,5.04-13.85c.6-7.79,5.67-14.79,5.67-14.79"/>
  <path class="cls-1" d="m67.28,165.89v3.78c-.31-.31-2.2,1.57-2.2,1.57,0,0,0,.63-.94,1.26s-.63,2.2-.63,2.2c0,0,.63,1.26-.31,1.57s-.63,1.89-.63,1.89c0,0,.63,1.26-.31,2.52-.94,1.26,0,1.57,0,1.57,0,0,.94.94.31,1.89s.31,1.89.31,1.89c0,0,1.57-.63.94.94s1.26,1.57,1.26,1.57c0,0,.94-1.26,1.26-.31s1.57,0,1.57,0c0,0,1.89-1.57,1.57-.63s1.26.94,1.26.94c0,0,.94-1.57,1.26-.63s2.2.31,2.2.31c0,0,.31-1.26,1.26-.63s2.2.31,2.2.31c.63.31,1.89-1.89,1.89-1.89,0,0,0-1.26.31-1.26s.63-1.26.31-2.2.63-.63.63-.63c0,0,1.26-.94.63-1.57s-.31-1.57-.31-1.57c0,0,1.89-.63,1.26-1.26s0-.94,0-.94c0,0,1.26-.31.63-1.57s.63-1.57.63-1.57c0,0,1.26,0,.31-1.57s.63-1.26.63-1.26c0,0,.63-1.26,0-1.89s-.31-1.26.31-1.26.63-1.89.63-1.89c-.94-1.26-5.04,0-5.04,0-5.67,3.15-13.22.31-13.22.31,2.52-21.72,3.78-43.44,3.78-43.44l1.66-34.13-.4,10.52c.31,12.28-9.33,15.74-10.39,16.05-7.55,2.2-23.92-6.92-23.92-6.92-9.95-2.21-8.5-10.07-8.5-10.07.31-7.55-6.61-5.35-6.61-5.35,0,0-2.36,3.96-3.46-3.78,0-5.04,3.46-6.92,3.46-6.92,0,0,3.93-.16,5.04.94,0,0,3.15,6.92-.94,10.07"/>
  <path class="cls-1" d="m81.76,62.02s-6.92.94-10.39,3.78c0,0-8.74,6.16-11.65,11.96"/>
  <path class="cls-1" d="m150.06,115.53s-1.1,4.75-5.04,4.09c-1.89-.31-9.44-1.89-9.44-1.89-12.9,1.26-22.35-8.5-22.35-8.5,0,0-3.87-22.26-4.97-22.26"/>
  <path class="cls-1" d="m96.24,65.8c8.16-.83,11.41,1.26,15.42,4.41,1.95,1.52,6.61,5.04,8.76,9.03,3.7,6.86,5.4,19.62,8.23,19.93,12.55,1.39,22.03,6.29,22.03,6.29,0,0,9.44-4.72,10.7-4.41,0,0,7.37,1.66,6.92,4.09,0,0-1.26,2.2-.94,4.41s-1.89,3.15-1.89,3.15c0,0,.31,1.26,0,2.2s-5.04,2.83-5.04,2.83c0,0-.95-.02-1.26-.33"/>
  <path class="cls-1" d="m118.58,162.74c1.04-7.92-4.72-39.66-4.72-39.66,0,0-2.52-11.33-.63-14.16"/>
  <path class="cls-1" d="m92.15,164.63c.84.04,4.82,11.81,5.67,12.9.07.09,1.99,14.61,2.83,14.79,0,0,.94,2.2-3.46,5.98-1.65,1.42-1.89,2.35-1.52,2.94.61.99,2.9,1.04,3.1.84.31-.31-.63,2.83,4.72.63,0,0,.63,3.78,3.78,0,0,0,1.26-.63,1.89.63s1.89,1.89,3.78.63,2.2.63,2.2.63c0,0,2.2.31,2.52-.94s2.2-1.57,2.2-1.57c0,0,1.57.94,2.83.63.55-.14.74-.4.78-.65.05-.32-.15-.61-.15-.61-1.57-5.04-8.18-8.18-5.35-14.48"/>
  <path class="cls-1" d="m82.61,62.88s-.04,3.34-.53,4.49"/>
  <path class="cls-1" d="m95.61,63.91c0,.79.07,1.64.63,2.2"/>
  <path class="cls-1" d="m102.85,48.17h-4.72s-.31-1.26-2.2-1.26h-4.09c-.23,0-.45.05-.66.13-.54.23-1.54.75-1.54,1.44h-3.15c-.63-.94-1.57-.94-1.57-.94-5.35-.94-5.67,1.26-5.67,1.26,0,0-.31,3.15.63,3.78,0,0,2.2.94,4.41.94s2.52-3.46,2.52-3.46h2.52s0,2.52,1.89,3.15,4.09,0,4.09,0c2.52,0,2.83-3.78,2.83-3.78h4.41"/>
  <path class="cls-1" d="m155.08,103.4s1.28-1.41.34-5.82c0,0,3.31-1.24,3.23,4.42l11.56-57.93s.31-1.57,3.78-.31c0,0-10.7,56.97-10.7,57.6"/>
  <path class="cls-1" d="m96.43,201.95s-2.08.44-.51,2.02,1.89,0,1.89,0c0,0,.63-.31.94,1.26s2.52,1.57,3.78-.31,1.26,1.57,1.26,1.57c0,0,1.26,2.2,3.15,0s2.52,1.26,2.52,1.26c0,0,1.26,2.2,3.15-.31s2.2.63,2.2.63c0,0,.94.94,2.2.31s1.57-2.2,1.57-2.2c0,0,0-2.2,1.57-1.26s2.2.94,2.2.94c0,0,1.89.31.31-1.89-.18-.26.63.63,1.89.63s1.26-.94,1.26-.94c.31-1.57-2.52-2.2-2.52-2.2"/>
  <path class="cls-1" d="m99.39,206.49s-1.89,4.72,1.26,4.09c0,0,1.26,0,1.57-1.57s.94.94.94.94c0,0,.31,2.2,1.89.94s1.26-1.89,1.26-1.89c0,0,1.89-.63,1.89.63,0,.45.31,1.26,1.89,1.89s1.57-1.26,1.26-1.57,2.2-.63,1.89.31,2.83,1.26,2.83.31,1.26-1.26,1.26-1.26c0,0,.31,1.57,1.89,1.57s0-1.89.63-2.52,1.26.63,1.26.63c1.89,0,1.26-3.15,1.26-3.15"/>
  <path class="cls-1" d="m99.44,210.62s-1.63,2.79,1.2,2.16l1.26-.63s.63,0,.94,1.26,2.2,2.52,2.83,1.89.63-1.89.63-1.89c0,0,.31-1.57,1.26-.63s3.15,2.52,4.09,2.2,0-1.89,0-1.89c0,0,.31-1.26,1.26-.63s1.89-.31,1.89-.31c0,0,.63,1.57,1.57,1.26s-.94-2.2.63-1.89.63,1.89,1.89,1.26.94-1.89.94-1.89"/>
  <path class="cls-1" d="m102.44,212.44s-3.37,3.49-2.12,6.33c1.26,2.83,3.15,0,3.78.31s.31,1.89.63,2.2.63,2.2,3.78-.63c0,0,1.26-.63,1.57.31s1.89,1.26,2.83-.31,1.57-1.26,1.57-1.26c0,0,1.26.31,2.2-.63s1.57-.31,1.57-.31c0,0,1.89.63,2.83,0s1.26-.63,1.26-.63c0,0,.63.31.94,0,2.49-2.49-3.39-6.01-3.39-6.01"/>
  <path class="cls-1" d="m100.64,219.71s-2.2,2.2-1.26,2.52,2.2-.31,2.2-.31c0,0,.94,0,.94,1.57s.31,3.15,1.26,2.83,1.89-2.2,1.89-2.2c0,0,.94.63.63,1.26,0,0,0,1.57,2.52-1.57,0,0,.63-.63,1.26.31s2.2.94,2.2.94c.94,0,.94-2.2,1.26-2.2s1.57,0,1.57-.94.94-.94.94-.94c0,.94,1.89,1.26,2.52,1.26s.31-1.26.31-1.26h1.57c.31,0,.31-.94.31-.94,0,0,.94.31,2.2.63s.63-.63.63-.63c0,0,.31-.31.94-.31s1.26-.31,1.26-.31c0,0,.94-1.26,0-.94s-2.52-.63-2.52-.63"/>
  <path class="cls-1" d="m105.23,225.08s-1.76,2.18,7.06,3.44c0,0,2.69,1.4,7.55,2.83,5.35,1.57,12.9-2.2,12.9-2.2,0,0,2.52-1.26-.63-4.72-3.15-3.46-6.73-4.82-6.73-4.82"/>
  <path class="cls-1" d="m118.58,162.74s1.57.31.94,2.83.31,2.52.31,2.52c0,0,.94.63.31,2.2s0,2.2,0,2.2c0,0,.94,1.26.31,2.52s.31,1.57.31,1.57c0,0,1.26.94.31,2.2s-.63,1.57-.63,1.89.63,1.57,0,2.2-.63,2.2-.63,2.2c0,0,.31,2.52-1.57,1.89s-1.57.63-1.57.63c0,0-.63,1.26-2.2-.31,0,0-.94,1.89-1.57.94,0,0-.31-2.52-1.26-.63s-2.2.94-2.2.94c0,0-.31-2.2-1.26-.63s-2.52.63-2.52.63c0,0,.31-.94-1.57-.94s-.94-2.2-.94-2.2c0,0,0-1.57-1.26-1.26s-.94-2.52-.31-2.52,0-1.89,0-1.89c0,0-1.26-.94-.63-1.89s0-1.89,0-1.89c-2.83-.31-1.26-1.57-1.26-1.57,0,0,2.2-.94.31-1.57s-2.2-1.89-1.57-1.89.31-1.89.31-1.89c0,0-2.52-2.2-1.57-2.52s.31-1.57.31-1.57c-1.57-2.83-.31-1.89-.31-1.89,0,0,1.26.94,9.44-.31,8.18-1.26,12.28,0,12.28,0"/>
  <path class="cls-1" d="m99.33,163.46s.06,3.69,2.89,7.15c2.83,3.46,2.2,8.18,2.2,8.18,0,0-1.57,4.09,1.89,5.04,3.46.94,9.76.31,9.76.31,0,0,2.2.31,2.2-5.04s-.94-16.68-.94-16.68"/>
  <path class="cls-1" d="m80.89,165.62s-3.53,11.6-3.85,14.12c0,0-.31,4.41-4.72,4.41h-5.35s-3.15,1.26-2.52-6.92c0,0,1.4-6.26,2.75-8.01"/>
  <path class="cls-1" d="m64.58,188.62s3.33,4.96,16.86,4.65"/>
  <path class="cls-1" d="m64.82,188.92s-1.95.88-1,3.09-1.57,2.52-1.57,2.52c0,0-.94,0-.94.63s-.94,3.46,1.89,4.09,2.83.31,2.83.31c0,0,.94-.31,2.2,1.26s3.78-.63,3.78-.63c0,0,1.26-.31,1.89.63s2.83.63,3.15,0,.94.31.94.31c0,0,2.2.31,2.52-.31s.63-.63.63-.63c0,0,1.89.31,2.2-.94s.31-1.26.31-1.89-2.2-4.41-2.2-4.41"/>
  <path class="cls-1" d="m83.33,199.25s3.46,2.83,1.89,4.09c0,0-.31.63-.94,0,0,0-.63,1.57-1.89.31,0,0-.31,5.98-3.46,1.89,0,0-2.2.63-2.2-1.26"/>
  <path class="cls-1" d="m62.48,199.01s-1.81,2.44,1.02,2.75c0,0-.94,1.57.94,2.2s2.2-1.57,2.2-1.57c0,0-.31,2.2.94,2.2s1.26-.94,1.26-.94c0,0-.31,2.52,1.57,1.26,0,0,.32-.32.59-.65.19-.24.36-.48.36-.61"/>
  <path class="cls-1" d="m76.72,204.91s-2.2,3.46-3.46,0"/>
  <path class="cls-1" d="m71.26,203.98s-.54,1.61,2.15,1.27"/>
  <path class="cls-1" d="m63.79,203.7s.02,3.1-.92,3.42-1.26,2.52,0,2.83.79-.32,3.15-1.26c1.57-.63,1.57.94,1.57.94,0,0,.31,2.83,3.78.63,0,0,.63-1.57,2.2,0s2.2,2.52,4.41.94c0,0,.63,2.2,2.2,2.2s1.26-.63,1.26-.63c.63.94,3.15,0,3.15,0,0,0,1.26-2.83-.63-4.09s-1.57-3.78-1.57-3.78"/>
  <path class="cls-1" d="m62.33,209.58s-1.97,1.31-.39,1.94c1.57.63,3.46-.31,3.46-.31,0,0,.31-1.26,1.57,1.26s2.2.31,2.2.31c0,0-.63,1.57.94,1.89s1.89-1.57,1.89-1.57c0,0,0-.63,2.2.94s2.2,2.52,3.78.63,2.52,1.26,2.52,1.26c0,0,.94,1.26,2.2-.63,0,0,1.57.94,1.89,0s.63-.63.63-.63c0,0,.63-.63-.31-2.2"/>
  <path class="cls-1" d="m64.59,211.61s-.77,2.75-2.03,3.06-1.89,1.26-.63,1.57,1.89.31,1.89.31"/>
  <path class="cls-1" d="m63.5,216.87s-.63,2.2,1.57,1.57,2.2-1.57,2.2-1.57c0,0,1.26.31,1.57.94s1.89,0,1.89,0c0,0,.94-.31.63,1.89s1.57,1.89,1.57,1.89c0,0,2.2,0,2.52.31s-.31,1.26,2.2,1.26,4.02-.22,4.41,0c2.2,1.26,2.83-1.57,1.89-3.15s-1.57-4.09-1.57-4.09"/>
  <path class="cls-1" d="m61.93,216.56s-2.2.94-2.52.94-.31.94.31.94c.33,0,.74-.08,1.06-.17.3-.08.52-.15.52-.15"/>
  <path class="cls-1" d="m63.5,218.45s-1.61,1.09-3.01-.09"/>
  <path class="cls-1" d="m84.29,222.53c.3.32,1.24,1.27,2.5,1.58s-.31,1.57-1.26,1.26-1.89-.94-1.89-.94c0,0,0,1.26-.94,1.26s-2.2-.63-2.2-.63c0,0,0,.94-.94.94h-2.2s-.63-1.57-.94-1.26c0,0-.31,2.2-1.57.31s-1.26-1.26-1.26-1.26c0,0-.63.31-1.57.31s-.63-1.57-.63-1.57c-1.26-.31-.94-.94-.94-.94,0,0,0-2.52-.63-1.26s-2.83,1.89-2.52.63-.55-3.32-.55-3.32"/>
  <path class="cls-1" d="m66.1,218.04s-3.22,1.98-6.37,1.98-7.55,4.41-7.55,4.41c0,0-3.46,4.41.94,5.98s12.27,1.58,16.68-.31,6.61-1.26,6.61-1.26c0,0,3.78-.31,3.15-2.83"/>
  <path class="cls-1" d="m28.88,85.94s.31-5.98,1.26-5.35,1.26.63,1.26.63c-.94,2.83-.31,3.15-.31,5.67s1.26,2.52,1.26,2.52h1.57"/>
  <path class="cls-1" d="m79.56,47.85s-.63-1.89-.31-3.15"/>
  <path class="cls-1" d="m77.67,45.15c-1.08-.56-.63-2.14-.27-3,.14-.35.51-.55.88-.48.61.12,1.51.32,1.91.52.49.24-.9,1.98-1.56,2.77-.24.28-.64.37-.96.2Z"/>
  <path class="cls-1" d="m77.53,41.91s-1.75-2.87.77-3.19,2.52,0,2.52,0"/>
  <path class="cls-1" d="m83.96,40.3s1.57,1.57.63,1.89-3.15.31-3.15.31c0,0-2.2-.63-.31-2.52"/>
  <path class="cls-1" d="m83.33,37.15s-3.15,0-2.2,2.52,3.46,0,3.46,0c0,0,.94-1.89-1.26-2.52Z"/>
  <path class="cls-1" d="m84.84,39.12s1.01-.08,2.58,1.49-2.52,1.26-2.52,1.26"/>
  <path class="cls-1" d="m89.94,41.56s-2.83.31-2.52-.94.31-2.2,1.89-1.89,2.52.63,2.52,1.57-.63,1.57-1.89,1.26Z"/>
  <path class="cls-1" d="m85.57,39.34s-1.29-1.87.6-2.5,3.31.29,3.39,1.87"/>
  <path class="cls-1" d="m92.78,38.73s2.52-.94,3.46.31,0,3.15-.63,3.15-2.83.63-3.15-.94.31-2.52.31-2.52Z"/>
  <path class="cls-1" d="m91.2,39.04s-1.26-1.57,0-2.52,3.46.31,3.15,1.89"/>
  <path class="cls-1" d="m96.55,40.62s3.78-.94,4.41,1.57"/>
  <path class="cls-1" d="m95.96,42.04s1.23,2.67,4.37,2.04"/>
  <path class="cls-1" d="m100.33,42.5s4.09,0,3.78,3.15c-.31,3.15-4.09-1.89-4.09-1.89,0,0-.94-.94.31-1.26Z"/>
  <path class="cls-1" d="m99.97,40.94s2.77-.76,3.61,2.76"/>
  <path class="cls-1" d="m95.29,38.41s.94-1.57,2.83-.63.94,2.52.94,2.52"/>
  <line class="cls-1" x1="77.35" y1="33.06" x2="77.37" y2="39.09"/>
  <line class="cls-1" x1="103.79" y1="36.52" x2="103.48" y2="43.13"/>
  <path class="cls-1" d="m77.82,25.98s-2.52,0-1.89,1.89c0,0-2.52,1.89,0,2.52,0,0-.94,3.15,1.89,2.52,0,0,.94,1.89,2.83,0,0,0,.94.31,1.57-.31,1.2-1.2.63-2.2.63-2.2.94-1.26-.94-1.89-.94-1.89.94-2.2-.94-2.83-.94-2.83"/>
  <path class="cls-1" d="m79.08,19.37s-1.26-1.57-2.2-1.57-1.57,1.26-.63,1.89c0,0-1.57.31-.94,1.89,0,0,0,.94.63.94"/>
  <path class="cls-1" d="m75.94,23.78s-1.89-.31-.63-1.89"/>
  <path class="cls-1" d="m77.82,25.66s-1,.58-1.89-.31c-.31-.31-.31-1.57,0-1.57"/>
  <path class="cls-1" d="m77.82,25.04s-.63,1.89,1.57,1.57,1.89-2.2,1.89-2.2"/>
  <path class="cls-1" d="m83.49,22.52c1.26,1.57,0,2.2,0,2.2-.94,1.89-2.52.63-2.52.63"/>
  <path class="cls-1" d="m78.13,18.35s.95-1.18,2.21.08c0,0,1.57-.94,2.2.94,0,0,1.57.94.31,2.2"/>
  <path class="cls-1" d="m83.18,21.26s1.26.63.63,1.57"/>
  <path class="cls-1" d="m81.6,18.11s.31-.94,1.57-.63"/>
  <path class="cls-1" d="m83.32,25.08s-.15.9,1.11.59c0,0,.63.94,1.26,0,0,0,.63.94,1.26,0,0,0,.63.63,1.26-.31,0,0,1.26.63,1.57-.63,0,0,1.26.31.94-.94"/>
  <path class="cls-1" d="m82.86,17.48s.31-1.26,1.57-.63"/>
  <path class="cls-1" d="m84.17,16.76s.26-1.48,1.52-.54"/>
  <path class="cls-1" d="m85.41,16.21s.86-.97,1.69.16"/>
  <path class="cls-1" d="m86.91,16.17s.91-1.2,1.6.22"/>
  <path class="cls-1" d="m88.49,16.11s1.37-.63,1.3.95"/>
  <path class="cls-1" d="m89.64,16.82s1.29.15.83,1.48"/>
  <path class="cls-1" d="m90.53,18.03s1.5.07.73,1.44"/>
  <path class="cls-1" d="m91.36,19.37s1.26.63,0,1.26c0,0,1.57.94,0,1.26"/>
  <path class="cls-1" d="m90.81,23.92s1.18.17.55-1.09"/>
  <path class="cls-1" d="m91.67,21.89s1.22.8-.17,1.34"/>
  <path class="cls-1" d="m90.46,24.68s-.36,1.62,1.53,1.3"/>
  <path class="cls-1" d="m91.81,26s.81,1.55,2.38.61"/>
  <path class="cls-1" d="m91.4,18.54s1.21-.74,2.16-.11"/>
  <path class="cls-1" d="m93.32,18.35s1.81-1.18,2.44.39"/>
  <path class="cls-1" d="m94.06,26.69s1.08.86,1.71-.4"/>
  <path class="cls-1" d="m95.77,18.43s1.57-.63,1.57.94"/>
  <path class="cls-1" d="m95.67,26.45s1.67.16,1.35-1.1"/>
  <path class="cls-1" d="m97.34,19.06s1.89.31.63,1.89"/>
  <path class="cls-1" d="m98.07,20.81s1.16,1.08-.1,1.71"/>
  <path class="cls-1" d="m97.05,25.55s1.24.11.92-1.15"/>
  <path class="cls-1" d="m98.16,22.42s.9,1.29-.12,2.11"/>
  <path class="cls-1" d="m82.73,31.95s.79,1.81,3.28.32"/>
  <path class="cls-1" d="m96.67,26.36s1.93.25.67,1.82"/>
  <path class="cls-1" d="m88.84,25.66s-1.57,1.26,0,2.52"/>
  <path class="cls-1" d="m97.5,27.97s2.68,2.42-.47,3.04"/>
  <path class="cls-1" d="m88.7,28.07s-2.06,2.64.77,3.26c0,0,.94.31,1.26,0"/>
  <path class="cls-1" d="m85.69,32.27s2.55,1.43,3.01-1.17"/>
  <path class="cls-1" d="m97.02,31.02s.94,1.89,0,2.52-2.83.31-2.52-.94"/>
  <path class="cls-1" d="m94.51,32.9s-1.14.98-3.15.31c-.94-.31-.94-1.89-.94-1.89"/>
  <path class="cls-1" d="m105.21,28.5s1.57.31.94,1.57"/>
  <path class="cls-1" d="m101.12,27.55s1.89.94.63,2.83c0,0,1.26,1.26,0,2.2"/>
  <path class="cls-1" d="m101.12,33.85c-.63.94-1.89.31-1.89.31-1.89.63-1.89-.94-1.89-.94"/>
  <path class="cls-1" d="m101.75,32.27s.94,1.57-.63,1.57"/>
  <path class="cls-1" d="m97.34,18.74s.31-1.26,2.2-.63"/>
  <path class="cls-1" d="m97.82,25.34s-.17,1.27,1.41,1.27"/>
  <path class="cls-1" d="m99.37,18.06s2.06-1.21,2.37,1.31"/>
  <path class="cls-1" d="m99.06,26.62s1.12,1.87,2.37.3"/>
  <path class="cls-1" d="m101.75,19.06s2.2.63,1.26,1.89"/>
  <path class="cls-1" d="m103,20.63s1.89.63.63,1.89"/>
  <path class="cls-1" d="m103.83,22.32s1.07,1.45-.19,2.08"/>
  <path class="cls-1" d="m101.12,27.24s1.89.31,2.2-.94"/>
  <path class="cls-1" d="m103.95,24.41s.94,1.57-.63,2.2"/>
  <path class="cls-1" d="m100.17,34.48s0,1.89,2.2.94"/>
  <path class="cls-1" d="m102.3,35.47s.39,1.21,1.34.9.94-.94.94-.94c0,0-.31-.31,0-.63.12-.12.28-.23.43-.33.32-.21.51-.57.51-.95v-.29"/>
  <path class="cls-1" d="m105.52,33.51s.94.03.94-.92-.94-1.26-.94-1.26c0,0,.31-.63,0-.94s.65-.39.65-.39"/>
  <path class="cls-1" d="m102.34,27.21s.35,1.28,1.61,1.28"/>
  <path class="cls-1" d="m103.24,20.31s.39-1.57,2.28-.62"/>
  <path class="cls-1" d="m103.63,28.5s1.89.94,2.52-.94"/>
  <path class="cls-1" d="m105.34,19.6s2.07-.86,2.07.71"/>
  <path class="cls-1" d="m107.44,20.16s1.55.79.29,1.73"/>
  <path class="cls-1" d="m107.87,21.75s1.43,1.4-.14,1.71"/>
  <path class="cls-1" d="m106.09,27.78s1.63-.23,1-1.8"/>
  <path class="cls-1" d="m107.94,23.43s1.05.98-.21,1.29"/>
  <path class="cls-1" d="m107.1,26.29s1.19-.74.91-1.63"/>
  <ellipse class="cls-1" cx="96.24" cy="57.14" rx="3.15" ry="1.73" transform="translate(5.18 122.21) rotate(-66.25)"/>
  <path class="cls-1" d="m79.61,53.86s.73-1.13,1.99.76c1.26,1.89,1.26,3.78,1.26,3.78,0,0-.94,2.2-2.52-.31"/>
  <path class="cls-1" d="m104,46.43s4.35,2.21,4.35,11.33-.06,9.96-.06,9.96"/>
  <line class="cls-1" x1="78.14" y1="45.49" x2="78.37" y2="62.78"/>
  <path class="cls-1" d="m104.26,46.12s4.59.61,6.23,1.84c.02.02.05.03.07.05,0,0-.63.94-1.89.94,0,0,4.09,3.46,3.46,6.29,0,0-.94.31-1.57-.94,0,0,.31,3.15,2.52,3.78,0,0,.31.94-2.52,1.26,0,0,3.46,3.46,2.83,5.35,0,0-1.57.94-2.2-.63,0,0,1.2,4.97.13,5.95"/>
  <path class="cls-1" d="m77.2,45.18s-2.52,3.15-1.89,3.46,1.26-.31,1.26-.31"/>
  <path class="cls-1" d="m76.27,48.62s-.65,3.17-.34,3.49c0,0,1.26,0,1.26-.31"/>
  <path class="cls-1" d="m77.2,51.79s-.31,4.41-.94,4.72c0,0,0,.31.94.31,0,0,0,2.52-.94,2.52,0,0,.94.94,1.26-.31,0,0-.31,2.83-1.26,2.52,0,0,.67,1.45,1.28,1.35"/>
  <path class="cls-1" d="m82.41,65.63s4.85,4.42,8,3.79c3.15-.63,6.21-.69,7.51-3.65"/>
  <path class="cls-1" d="m87.65,68.93s5.75,4.41,6.07,5.99,4.41,8.5,10.07,8.18c0,0,4.41.94,8.81-1.26s9.03-.09,9.03-.09"/>
  <path class="cls-1" d="m89.1,72.79s1.16,3.7,1.79,3.7"/>
  <path class="cls-1" d="m90.27,71.21s-5.05,5.92-6.62,8.12c-1.57,2.2-3.78,5.04-11.02,5.04s-15.11-3.46-15.11-3.46c0,0-5.01,1.6-1.89,4.72.31.31,2.52-1.57,2.52-1.57,0,0,.28,2.83,1.89,2.83.94,0,1.89-1.26,1.89-1.26,0,0,.39,1.91,2.2,2.52.94.31,1.89-1.57,1.89-1.57,0,0,.59,2.63,3.15,2.2,1.89-.31,1.57-2.52,1.57-2.52,0,0,.8,2.29,1.81,2.88,0,0,2.59-.36,2.91-1.93,0,0,.31,1.89,3.15,2.2"/>
  <path class="cls-1" d="m89.31,77.13s.63.63,1.89.63"/>
  <path class="cls-1" d="m96.87,80.9s-.94,1.57.31,2.2h1.57s-.63,2.83,1.26,3.78c0,0,1.26-.31,1.57-1.26,0,0,.94,2.52,3.46,3.15,0,0,.94-1.89.31-3.15,0,0,1.26,2.2,3.15,2.52"/>
  <path class="cls-1" d="m91.83,75.87s0,3.15.63,3.46,1.26-.94,1.26-.94c0,0-.31,1.26,1.57,2.83,0,0,.63.31,1.26,0"/>
  <path class="cls-1" d="m83.31,85s.65,3.15-.61,3.15-3.46-1.89-3.46-1.89c0,0,.31,2.52-.63,2.83"/>
  <path class="cls-1" d="m89.58,77.34s1.62,2.93.67,3.24c-1.82.61-1.89-.31-1.89-.31,0,0,.63,3.15-.31,3.46s-1.57-1.57-1.57-1.57c0,0,1.26,3.15.31,3.46-1.82.61-3.78-.63-3.78-.63"/>
  <path class="cls-1" d="m108.51,88.46s1.26-.63,1.57-2.83c0,0,1.26.94,3.15.94,0,0,.63-.31.94-2.2,0,0,1.89,2.52,4.41,2.2,0,0,2.2-1.57,1.26-3.15,0,0,1.26,3.15,3.15,3.15"/>
  <path class="cls-1" d="m57.94,81.07l-.06-1.23c-.02-.45.33-.82.78-.82h.75l.53-1.53"/>
  <path class="cls-1" d="m23.22,92.86l-2.52,32.1s1.89,1.57-4.09,0c-5.98-1.57-5.04-6.61-4.41-9.76s-2.52-2.83-2.52-2.83c-6.68,8.9-3.06,18.39-1.2,22.05.59,1.16.76,2.48.45,3.75-.44,1.82-1.27,4.5-2.72,6.94-3.76,6.32-10.39,17.31-.94,28.64,0,0,16.35,16.34,33.03,1.54,11.92-10.57,6.17-19.99,1.92-24.52-1.77-1.88-2.12-4.68-.83-6.92.98-1.69,2.16-3.71,3.33-5.68,2.83-4.72-1.57-7.87-3.46-4.72-1.81,3.02-8.05,8.61-10.07,2.83-2.2-6.29-.94-14.48-.63-18.57l1.03-21.24c.71,2.36,2.44,1.73,2.44,1.73,5.98-3.78,1.89-8.81,1.89-8.81.94-2.2,3.15-.31,4.09.31,2.2,4.41,12.59,6.92,12.59,6.92,4.72,1.26,5.35-3.15,6.61-7.87l.94-4.72"/>
  <path class="cls-1" d="m23.65,81.69c-.12-.48,1.14-8.66,1.14-8.66l6.61.63-.31,6.92"/>
  <path class="cls-1" d="m24.47,73.66l-2.52-6.61,10.07-14.79,5.98.31.63.94-2.83,5.98.94,9.13s-3.46.31-3.46,1.26c0,.94-1.89,3.78-1.89,3.78"/>
  <path class="cls-1" d="m19.44,152.04s-3.78-.63-3.78,3.15c0,4.81,11.65,3.46,11.65,3.46,0,0,2.2.31,2.52-2.83.34-3.45-3.15-3.46-3.15-3.46l-7.24-.31Z"/>
  <path class="cls-1" d="m18.31,164.58s-3.78-.63-3.78,3.15c0,4.81,11.65,3.46,11.65,3.46,0,0,2.2.31,2.52-2.83.34-3.45-3.15-3.46-3.15-3.46l-7.24-.31Z"/>
  <ellipse class="cls-1" cx="35.96" cy="158.33" rx="1.73" ry="1.89"/>
  <ellipse class="cls-1" cx="36.91" cy="163.05" rx="1.73" ry="1.89"/>
  <ellipse class="cls-1" cx="34.7" cy="168.09" rx="1.73" ry="1.89"/>
  <path class="cls-1" d="m113.86,123.08s-4.09,2.52-12.59,1.89c-8.5-.63-11.96.94-11.96.94-9.44,1.57-18.37-2.69-18.37-2.69"/>
  <path class="cls-1" d="m150.69,105.45s-2.83.94-3.78,5.67-1.26,5.35-1.26,5.35c0,0,2.83-2.2,3.78-1.89l.94.31-.3.84"/>
  <path class="cls-1" d="m68.83,109.85s1.28,5.36,1.28,7.88,1.25,3.38,1.25,3.38"/>
  <path class="cls-1" d="m114.3,124.63s1.14-1.55,1.14-4.69c0-8.28-.01-8.96-.01-8.96"/>
  <path class="cls-1" d="m155.73,114.27l-12.28,44.69s-3.78,10.39.63,8.81c4.41-1.57,4.72-10.39,4.72-10.39l10.7-41.55"/>
  <path class="cls-1" d="m170.2,44.08s-12.59-3.46-23.61,1.57-12.28,11.65-12.28,11.65c0,0-2.2,14.16,6.92,16.37s14.48-2.52,14.48-2.52c0,0,10.51-9.17,11.08-10.57"/>
  <path class="cls-1" d="m170.03,44.59s2.65-1.31,3.77.66"/>
  <path class="cls-1" d="m169.57,46.92s2.65-1.31,3.77.66"/>
  <path class="cls-1" d="m169.33,48.17s2.65-1.31,3.77.66"/>
  <path class="cls-1" d="m169.01,50.69s2.65-1.31,3.77.66"/>
  <path class="cls-1" d="m168.54,51.95s2.65-1.31,3.77.66"/>
  <path class="cls-1" d="m168.22,54.47s2.65-1.31,3.77.66"/>
  <path class="cls-1" d="m171.66,56.55s3.27.74,2.95,11.76c-.31,11.02-4.09,11.65-4.09,11.65,0,0-2.45,1.3-3.59,2.38"/>
  <path class="cls-1" d="m171.36,58.25s1.04-.33,1.04,5.02v8.81s-.63,3.15-2.52,4.72-2.44,2.2-2.44,2.2"/>
  <path class="cls-1" d="m164.85,62.65s-5.67,9.13-5.67,10.39c0,0-3.15,10.07,2.52,12.59"/>
  <path class="cls-1" d="m166.34,63.35s-4.64,7.48-4.95,9.05-2.2,8.18,1.26,9.13"/>
  <path class="cls-1" d="m165.23,65.64s-1.32,6.76-3.84,6.76"/>
  <path class="cls-1" d="m166.43,82.48s3.78,1.89,5.04.31c0,0-.94,1.57-.63,2.2s1.64,1.85,1.64,1.85"/>
  <path class="cls-1" d="m165.8,86.57s5.67,1.89,6.61,0"/>
  <path class="cls-1" d="m159.19,83.74s-3.15,3.46-2.52,4.72c0,0,1.57-.94,2.2.63"/>
  <path class="cls-1" d="m161.1,85.44s-2.85,1.76-1.91,4.28"/>
  <path class="cls-1" d="m159.82,70.83s-6.61,1.57-6.61,6.92-1.57,9.44-2.52,9.76-4.09,3.15-10.7,1.26c0,0-1.57.31-2.2-1.57,0,0,.63,4.09-.94,3.78-1.88-.38,3.78.63,3.78.63,5.67,2.52,11.02-.94,11.02-.94,0,0,3.46-2.2,3.46-8.5s3.71-7.51,3.71-7.51"/>
  <line class="cls-1" x1="157.93" y1="103.25" x2="155.48" y2="115.66"/>
  <line class="cls-1" x1="159.5" y1="114.9" x2="159.32" y2="116.54"/>
  <path class="cls-1" d="m155.1,116.47s-1.89-.94-1.89-1.89-3.15,0-3.15,0"/>
  <path class="cls-1" d="m159.67,101.5s-2.37,1.12-1.43,1.75"/>
  <path class="cls-1" d="m160.13,115.21l-2.83-1.89s-1.65-1.39-.63-3.78"/>
  <path class="cls-1" d="m80.66,17.95s.63.63,1.89-.63.63-2.2.63-2.2c.94-1.26-.94-1.89-.94-1.89.94-2.2-.94-2.83-.94-2.83"/>
  <path class="cls-1" d="m78.14,10.71s-2.52,0-1.89,1.89c0,0-1.89,1.89.63,2.52,0,0-1.57,3.3,1.57,2.99"/>
  <path class="cls-1" d="m78.45,3.32s-.31-.79-1.26-.79-1.57,1.26-.63,1.89c0,0-1.89.47-.63,2.05"/>
  <path class="cls-1" d="m76.25,8.51s-2.2-.79-.31-2.05"/>
  <path class="cls-1" d="m82.23,8.98c1.26,2.52-1.26,1.26-1.26,1.26-1.26,3.78-2.83.16-2.83.16,0,0-1.26,1.1-2.2-.16-.76-1.01,0-1.89.31-1.89"/>
  <path class="cls-1" d="m78.44,3.08s1.27-1.65,2.21.08c0,0,1.89-1.1,1.89,1.42,0,0,2.52.94.31,1.89,0,0,2.2,1.89-.63,2.52"/>
  <path class="cls-1" d="m81.92,2.85s.31-.94,1.57-.63"/>
  <path class="cls-1" d="m91.04,8.51c.31,1.26-.94.94-.94.94-.31,1.26-1.57.63-1.57.63-.63.94-1.26.31-1.26.31-.63.94-1.26,0-1.26,0-.63.94-1.26,0-1.26,0-1.26.31-1.11-.59-1.11-.59,0,0-1.43.29-.63-1.05"/>
  <path class="cls-1" d="m83.18,2.22s.31-1.26,1.57-.63"/>
  <path class="cls-1" d="m84.49,1.49s.26-1.48,1.52-.54"/>
  <path class="cls-1" d="m85.73.94s.86-.97,1.69.16"/>
  <path class="cls-1" d="m87.23.9s.91-1.2,1.6.22"/>
  <path class="cls-1" d="m88.8.84s1.37-.63,1.3.95"/>
  <path class="cls-1" d="m89.96,1.55s1.29.15.83,1.48"/>
  <path class="cls-1" d="m90.84,2.76s1.5.07.73,1.44"/>
  <path class="cls-1" d="m91.67,4.1s1.26.63,0,1.26c0,0,1.57.94,0,1.26"/>
  <path class="cls-1" d="m91.13,8.65s1.18.17.55-1.09"/>
  <path class="cls-1" d="m91.99,6.62s1.22.8-.17,1.34"/>
  <path class="cls-1" d="m90.77,9.41s-.36,1.62,1.53,1.3"/>
  <path class="cls-1" d="m92.12,10.74s.81,1.55,2.38.61"/>
  <path class="cls-1" d="m91.72,3.27s1.21-.74,2.16-.11"/>
  <path class="cls-1" d="m93.64,3.08s1.81-1.18,2.44.39"/>
  <path class="cls-1" d="m94.37,11.43s1.08.86,1.71-.4"/>
  <path class="cls-1" d="m96.08,3.16s1.57-.63,1.57.94"/>
  <path class="cls-1" d="m95.99,11.19s1.67.16,1.35-1.1"/>
  <path class="cls-1" d="m97.65,3.79s1.89.31.63,1.89"/>
  <path class="cls-1" d="m98.38,5.55s1.16,1.08-.1,1.71"/>
  <path class="cls-1" d="m97.36,10.29s1.24.11.92-1.15"/>
  <path class="cls-1" d="m98.48,7.16s.9,1.29-.12,2.11"/>
  <path class="cls-1" d="m96.98,11.09s1.93.25.67,1.82"/>
  <path class="cls-1" d="m89.16,10.4s-1.57,1.26,0,2.52"/>
  <path class="cls-1" d="m97.81,12.71s2.68,2.42-.47,3.04"/>
  <path class="cls-1" d="m89.02,12.8s-2.06,2.64.77,3.26c0,0,.94.31,1.26,0"/>
  <path class="cls-1" d="m97.34,15.75s1.06,2.12,0,2.52c-1.26.47-1.89.16-2.52-.47"/>
  <path class="cls-1" d="m94.82,17.64s-1.14.98-3.15.31c-.94-.31-.94-1.89-.94-1.89"/>
  <path class="cls-1" d="m105.52,13.23s1.57.31.94,1.57"/>
  <path class="cls-1" d="m101.43,12.29s1.89.94.63,2.83c0,0,1.26,1.26,0,2.2"/>
  <path class="cls-1" d="m102.06,17.01s.94,1.57-.63,1.57"/>
  <path class="cls-1" d="m97.65,3.48s.31-1.26,2.2-.63"/>
  <path class="cls-1" d="m98.14,10.07s-.17,1.27,1.41,1.27"/>
  <path class="cls-1" d="m99.69,2.79s2.06-1.21,2.37,1.31"/>
  <path class="cls-1" d="m99.37,11.36s1.12,1.87,2.37.3"/>
  <path class="cls-1" d="m102.06,3.79s2.2.63,1.26,1.89"/>
  <path class="cls-1" d="m103.32,5.36s1.89.63.63,1.89"/>
  <path class="cls-1" d="m104.14,7.06s1.07,1.45-.19,2.08"/>
  <path class="cls-1" d="m101.43,11.97s1.89.31,2.2-.94"/>
  <path class="cls-1" d="m104.26,9.14s.94,1.57-.63,2.2"/>
  <path class="cls-1" d="m104.89,19.37c.32-.21.94-.56.94-.94v-.47"/>
  <path class="cls-1" d="m105.84,18.24s.94.03.94-.92c0-.94-.94-1.26-.94-1.26,0,0,.31-.63,0-.94s.65-.39.65-.39"/>
  <path class="cls-1" d="m102.65,11.95s.35,1.28,1.61,1.28"/>
  <path class="cls-1" d="m103.56,5.04s.39-1.57,2.28-.62"/>
  <path class="cls-1" d="m103.95,13.23s1.89.94,2.52-.94"/>
  <path class="cls-1" d="m105.65,4.34s2.07-.86,2.07.71"/>
  <path class="cls-1" d="m107.75,4.89s1.55.79.29,1.73"/>
  <path class="cls-1" d="m108.19,6.48s1.43,1.4-.14,1.71"/>
  <path class="cls-1" d="m106.41,12.52s1.63-.23,1-1.8"/>
  <path class="cls-1" d="m108.25,8.16s1.05.98-.21,1.29"/>
  <path class="cls-1" d="m107.41,11.03s1.19-.74.91-1.63"/>
</svg>