<?xml version="1.0" encoding="UTF-8"?>
<svg id="Layer_1" data-name="Layer 1" xmlns="http://www.w3.org/2000/svg" xmlns:xlink="http://www.w3.org/1999/xlink" viewBox="0 0 151.9 208.63">
  <defs>
    <style>
      .cls-1 {
        fill: #001423;
      }

      .cls-1, .cls-2, .cls-3, .cls-4, .cls-5, .cls-6, .cls-7, .cls-8, .cls-9, .cls-10, .cls-11, .cls-12 {
        stroke: #231f20;
        stroke-miterlimit: 10;
      }

      .cls-1, .cls-2, .cls-3, .cls-5, .cls-6, .cls-7, .cls-9, .cls-11, .cls-12 {
        stroke-width: .8px;
      }

      .cls-2 {
        fill: none;
      }

      .cls-3, .cls-4 {
        fill: #fff;
      }

      .cls-4 {
        stroke-width: .75px;
      }

      .cls-5 {
        fill: #8d1f27;
      }

      .cls-6 {
        fill: #231f20;
      }

      .cls-7 {
        fill: #fff9ae;
      }

      .cls-8 {
        fill: #aad37c;
      }

      .cls-9 {
        fill: url(#linear-gradient);
      }

      .cls-10 {
        stroke-width: .84px;
      }

      .cls-10, .cls-12 {
        fill: #d83945;
      }

      .cls-11 {
        fill: url(#linear-gradient-2);
      }
    </style>
    <linearGradient id="linear-gradient" x1="90.69" y1="8.22" x2="111.86" y2="8.22" gradientUnits="userSpaceOnUse">
      <stop offset="0" stop-color="#fff"/>
      <stop offset="1" stop-color="#231f20"/>
    </linearGradient>
    <linearGradient id="linear-gradient-2" x1="58.19" y1="3.84" x2="79" y2="3.84" xlink:href="#linear-gradient"/>
  </defs>
  <path class="cls-12" d="m52,52s22.61,32.08,23.41,42.49c0,0,35.24-15.22,40.05-14.42,0,0,3.2-.8,10.41,4l2.4,1.6,1.6,49.66-9.61,1.6s-5.61-17.62-8.81-20.82-2.4-9.61-2.4-9.61c-8.01,3.2-12.01,14.42-35.24,22.43-23.72,8.18-24.83-12.01-27.23-19.22-2.4-7.21-10.41-32.04-10.41-32.04,0,0-14.16,14.33-19.16,18.33l-1.07,1.5s7.42,11.41,9.83,24.22c.3,1.57-8.01,5.61-8.01,5.61C6.02,116.91,1.71,102.25.51,97.14c-.27-1.15-.05-2.35.62-3.33l17.42-25.75c7.21-12.82,16.46-16.06,16.46-16.06l1.85-1.44-5.92,1.43s-12.39-11.96-12.32-12.15l6.79-5.92s10.52,10.59,11.56,10.33,5.6,4.82,12.82,3.78l1.03.53,5.8.21"/>
  <path class="cls-10" d="m58.55,129.96l9.65,21.4s.8,2.4-2.4,4c0,0-4.81-.8-5.61,13.62l-2.4,14.42,8.81,2.4s12.82-18.42,16.82-22.43c4-4,4.81-4.81,6.41-14.42,1.6-9.61-4.16-25.17-4.16-25.17"/>
  <path class="cls-10" d="m52.88,37.75s.11,7.08-2.3,11.09l29.63-.8v-26.43l10.41-.8s3.2,0,3.2,36.84c0,4.81-30.03,10.35-30.83,10.35l-10.65-15.49"/>
  <path class="cls-3" d="m35.37,14.4c8.81,2.4,13.22,12.41,13.22,12.41-3.2.8,0,4.81,0,4.81l1.6,4s-.8,0-4,1.6c-3.2,1.6-4,0-6.41-4s-5.61-2.4-5.61-2.4c0,0-5.61,4.81-8.01-5.61s.4-11.61.4-11.61c0,0,3.2-1.6,4.81,1.6,0,0,1.56-1.47,4-.8Z"/>
  <path class="cls-3" d="m52.19,33.62c0-3.2,1.6,3.2,1.6,3.2l-6.41,4.81h-5.61c-4,0-4-4-4-4l-1.6-4s-.8-2.4,1.6-.8c2.4,1.6,4,5.61,4,5.61,0,0,3.2,1.6,8.01-1.6,0,0,2.4-2.4,2.4-3.2Z"/>
  <path class="cls-3" d="m71.41,92.89c-8.81-21.63-22.43-38.45-22.43-38.45,0,0,19.22,33.64,19.22,40.05l3.2-1.6Z"/>
  <path class="cls-3" d="m51.39,61.66c-.8.8-7.21,1.6-7.21,1.6l-.8,2.4s7.21,0,8.81-2.4l-.8-1.6Z"/>
  <path class="cls-3" d="m54.59,68.06c-3.2,2.4-10.41,3.2-10.41,3.2v4s9.61-1.6,12.01-4l-1.6-3.2Z"/>
  <path class="cls-3" d="m58.59,76.07c-2.4,2.4-12.82,2.4-12.82,2.4v3.2s9.61,1.6,14.42-3.2l-1.6-2.4Z"/>
  <path class="cls-3" d="m62.6,86.49c-.8,2.4-12.82,4-12.82,4l-.8-3.2s11.21-1.6,12.82-3.2l.8,2.4Z"/>
  <path class="cls-3" d="m7.33,96.9c-1.6,1.6.8,4,2.4,4s0-5.61,0-5.61c0,0,20.02-26.43,22.43-26.43s5.61-2.4,4-4-4.81.8-4.81.8c0,0,2.4-5.61-.8-5.61s-1.6,6.41-1.6,6.41c0,0-20.82,25.63-20.82,27.23,0,0-7.21,1.6-5.61,3.2,0,0,0,1.6,4,.8"/>
  <path class="cls-3" d="m65.8,96.1c1.18-1.35,0-3.2,0-3.2l-7.21.8s-6.41,4.81-2.4,11.21c0,0,.8,1.6,5.61-1.6,0,0,3.2,4,6.41,3.2s4-7.21,4-7.21c0,0-.8-.8-2.4,0s1.6-2.4,1.6-2.4c0,0,0-2.4-1.6-.8-1.6,1.6-2.87,6.41-4,6.41-1.6,0-5.61,0,0-6.41Z"/>
  <path class="cls-3" d="m16.14,123.33c-.8-.8,0-5.61,0-5.61,0,0-3.2-6.41-5.61-8.01s-4-3.2-3.2-4c.8-.8,4,1.6,4,1.6,0,0-.8-2.4,0-3.2,2.89-2.89,2.4,4.81,2.4,4.81l5.61,9.61s4,0,2.4,1.6-3.2-.8-3.2-.8c0,0,0,4.81-2.4,4"/>
  <path class="cls-3" d="m68.21,113.72c3.2.8,24.83-10.41,24.83-10.41,0,0,24.03-9.61,22.43-10.41-1.6-.8,0-3.2,0-3.2,0,0-30.44,12.82-31.24,14.42-.8,1.6-16.82,8.01-17.62,8.01,0,0-3.2-3.2-4.81-1.6-1.6,1.6,2.4,3.2,2.4,3.2,0,0-4,4.81-1.6,5.61s5.61-5.61,5.61-5.61Z"/>
  <ellipse class="cls-3" cx="120.27" cy="90.89" rx="2.4" ry="2.8"/>
  <path class="cls-3" d="m71.41,131.34c.8,0,2.4-1.6,2.4-1.6l4.81,9.61h-2.4l-4.81-8.01Z"/>
  <ellipse class="cls-3" cx="79.82" cy="142.55" rx="2.4" ry="2" transform="translate(-80.51 173.96) rotate(-71.84)"/>
  <path class="cls-3" d="m78.62,150.56c-.8,5.61-8.01,20.02-8.81,20.02h-2.4l8.81-20.82s.8-.8,0-1.6-2.4-3.2-.8-4,3.2,4,3.2,4c0,0,1.6-2.4,3.2-2.4s1.6,2.4,1.6,2.4c0,0-1.6,2.4-2.4,1.6s-2.4.8-2.4.8Z"/>
  <path class="cls-3" d="m121.07,96.9c.8-1.6,1.6-1.6,2.4-1.6s-.8,4-.8,4l.8,21.63-2.4.8-.8-21.63s-4.81-4-3.2-4.81,4,1.6,4,1.6Z"/>
  <path class="cls-3" d="m56.99,56.05h13.62s4-4,5.61-3.2-2.4,3.2-2.4,3.2c0,0,5.61-.8,5.61.8s-4.81,2.4-6.41,1.6c-1.6-.8-13.62.8-13.62.8l-2.4-3.2Z"/>
  <path class="cls-3" d="m89.03,56.05c3.3.82-.8-5.61-.8-5.61,0,0,.8-12.01,0-13.62s-.8-6.41-.8-6.41c2.4-.8,1.6-4.81.8-4.81s-2.4,3.2-2.4,3.2c0,0,0-3.2-1.6-3.2s.8,5.61.8,5.61v18.42s-3.2,3.2-1.6,5.61c0,0,1.6,2.4,4-2.4,0,0-1.6,2.4,1.6,3.2Z"/>
  <path class="cls-6" d="m30.16,24.94c.22-.58.72-1.01,1.32-1.16l2.29-.57s3.98.1,3.2,3.2c-.52,2.07-2.7,2.47-4.19,2.49-1.21.02-2.33-.7-2.7-1.86-.19-.58-.23-1.29.08-2.11Z"/>
  <path class="cls-6" d="m45.78,24.01c.98-1.96-1.2-3.43-2.29-4.09-1.03-.63-2.35-.17-2.74.97s-.31,2.64,1.83,3.93c0,0,2.4.8,3.2-.8Z"/>
  <path class="cls-6" d="m40.97,29.62s-.8-4.81,1.6-3.2c2.4,1.6,3.2,2.4,3.2,4s-2.4-.8-2.4-.8c0,0,.57,1.84,0,2.4-.8.8-2.4.8-2.4-2.4Z"/>
  <rect class="cls-2" x="41.77" y="35.23" width="1.6" height="1.6" rx=".39" ry=".39" transform="translate(57.88 -17.61) rotate(65.69)"/>
  <rect class="cls-2" x="44.44" y="33.97" width="1.6" height="1.6" rx=".39" ry=".39" transform="translate(58.3 -20.77) rotate(65.69)"/>
  <rect class="cls-2" x="47.57" y="32.88" width="1.79" height="1.6" rx=".41" ry=".41" transform="translate(59.2 -24.36) rotate(65.69)"/>
  <path class="cls-12" d="m21,16l3.71,15.21-9.51,10.08-1.46-.46-.8-13.62,7.21-9.61c4.81-11.21,14.42-5.61,14.42-5.61,0,0,12.01,4,18.42,20.02h2.4v4.81h-1.6s-.78-3.82-1.78-3.82c0,0-8-19-17-19l-3.2,1.02-2.56-2.5-2.5.43"/>
  <path class="cls-10" d="m24.95,32.02c-4.81-16.02,1.6-18.42,1.6-18.42,0,0-1.55,2.4-1.55,7.4l2.8,8.4"/>
  <line class="cls-12" x1="17.75" y1="46.44" x2="27.36" y2="56.85"/>
  <path class="cls-1" d="m57.79,183.4h-1.6l-9.61,20.82v4h36.04v-1.6h.8v-1.6s-16.02-9.61-17.62-9.61,2.4-8.81,2.4-8.81l-1.6-.8"/>
  <path class="cls-1" d="m129.88,135.34l1.6.8.8,7.21c1.6.8,19.22,17.62,19.22,17.62v.8h-1.6l-.8,3.2-30.44-9.61.8-3.2v-2.4h.8l-.8-12.82h.8"/>
  <path class="cls-2" d="m25.75,33.62s9.61,12.01,23.23,12.82c.8.05,1.6-7.21,1.6-7.21"/>
  <path class="cls-7" d="m28.95,31.01l-13.61,11.42s.8.8.8,1.6c0,0,1.6,0,1.6,3.2s-.8,5.61-1.6,6.41c-4,4-5.61-1.6-5.61-1.6-.8-4,1.01-5.28,2.4-6.41.35-.28,3.2-2.4.8-1.6-2.4.8-4.81,0-4.81,0-5.61-1.6-2.4-4-2.4-4,5.61-1.6,8.81,1.6,8.81,1.6l12.01-12.01"/>
  <path class="cls-2" d="m27.36,36.03s12.01,13.62,22.43,12.01c0,0,2.4-4.81,1.6-8.81"/>
  <path class="cls-8" d="m12.94,52.84c-2.82-.76-.29-4.03,1.32-5.78.43-.46,1.16-.15,1.17.5.04,2.22-.23,5.89-2.49,5.28Z"/>
  <path class="cls-8" d="m13.74,42.43s-3.2-2.4-5.61-.8c0,0-.8,1.6,3.2,1.6s2.4-.8,2.4-.8"/>
  <line class="cls-12" x1="15.1" y1="24.38" x2="18.55" y2="38.43"/>
  <path class="cls-5" d="m53,126c-4-1.6-12.83-51.73-12.83-51.73,0,0-1.6-4.81-7.21-2.4-5.61,2.4-9.61,17.62-9.61,18.42l12.82-12.62,8.86,27.45s2.98,11.87,3.98,14.87c.89,2.68,4,6,4,6Z"/>
  <path class="cls-1" d="m25.23,122.68s9.34,6.25,10.94,14.26c0,0-4.81-1.6-4.81-3.2s.8,1.6.8,1.6c4.81,10.41.8,13.62.8,13.62-12.01-1.6-14.5-21.86-14.5-21.86"/>
  <path class="cls-1" d="m81.02,21.61s.8-3.2-2.4-6.41c-3.2-3.2-4-1.6-4.81-5.61,0,0-2.4-6.41,0-3.2,2.4,3.2,3.2,4.81,3.2,4.81,0,0,2.4.9,2.4-2.4,0-.8-.8-3.2-.8-3.2-.8-7.21,7.21-4.81,7.21-4.81,4.81.8,5.61,3.2,4.81,8.81s-1.39,11.24-1.39,11.24"/>
  <path class="cls-9" d="m90.87,5.43l19.38,2.61c1.16.16,1.88,1.07,1.51,1.94h0c-.3.7-1.22,1.13-2.16,1.01l-18.91-2.44"/>
  <path class="cls-11" d="m79,7l-19.38-3c-.93-.11-1.56-.91-1.4-1.74l.07-.35c.16-.79.98-1.33,1.87-1.21l18.46,2.49"/>
  <rect class="cls-2" x="60.2" y="1.59" width="4.81" height="1.6" rx=".69" ry=".69" transform="translate(.76 -7.66) rotate(7.04)"/>
  <circle class="cls-2" cx="77.42" cy="4.39" r=".4"/>
  <circle class="cls-2" cx="93.43" cy="7.59" r=".4"/>
  <circle class="cls-2" cx="99.04" cy="8.39" r=".4"/>
  <path class="cls-2" d="m52.19,32.02c0-.8-3.2-4.81-3.2-4.81l2.4,5.61.8-.8"/>
  <path class="cls-10" d="m33.76,12.8s-4-2.4-8.01-.8c-4,1.6-4,8.01-4,8.01,0,0,1.6-5.61,3.2-6.41,1.6-.8,4-1.6,8.81-.8Z"/>
  <path class="cls-6" d="m25.75,33.62l2.8-2.3s1.78,1.32,5.61-.5,5.61,2.4,5.61,2.4c0,0-3.77-2.22-3.77-1.22s.86,3.47.86,3.47l1.14,4.53s2,3,8,2,3.96-2.38,3.96-2.38l-.96,6.38s-13.15-1.24-17.58-7.12-5.67-5.26-5.67-5.26Z"/>
  <path class="cls-2" d="m29,13s2.59,1.04,2.8,2.02c0,0,2.21-1.51,4.21-.27,0,0,8.96,2.67,12.98,12.46"/>
  <path class="cls-12" d="m17.75,46.44s-.4-1.92-1.07-2.18-.67-2.26-.67-2.26l2.32-2.11,12.68,12.11h3l-6,4"/>
  <polygon class="cls-4" points="46.58 204.23 82.62 206.63 82.62 208.23 46.58 208.23 46.58 204.23"/>
  <polygon class="cls-3" points="119.3 152.84 119 155 149.1 164.98 149.72 162.66 119.3 152.84"/>
</svg>